G04 #@! TF.FileFunction,Copper,L2,Bot,Signal*
%FSLAX46Y46*%
G04 Gerber Fmt 4.6, Leading zero omitted, Abs format (unit mm)*
G04 Created by KiCad (PCBNEW 4.0.1-stable) date 2017-04-12 2:11:18 PM*
%MOMM*%
G01*
G04 APERTURE LIST*
%ADD10C,0.150000*%
%ADD11C,0.762000*%
%ADD12C,0.177800*%
%ADD13C,0.254000*%
G04 APERTURE END LIST*
D10*
D11*
X106700000Y-42300000D03*
X93600000Y-48900000D03*
X87000000Y-50200000D03*
X109200000Y-43000000D03*
X111700000Y-43200000D03*
X100800000Y-43900000D03*
X87000000Y-51400000D03*
X102600000Y-44500000D03*
X101900000Y-45200000D03*
X106700000Y-44900000D03*
X87000000Y-52700000D03*
X109200000Y-45000000D03*
X111700000Y-45700000D03*
X101000000Y-46600000D03*
X86900000Y-54000000D03*
X104100000Y-47300000D03*
X106600000Y-47400000D03*
X100200000Y-48000000D03*
X86900000Y-55200000D03*
X109200000Y-47700000D03*
X99300000Y-49400000D03*
X111700000Y-48300000D03*
X86900000Y-56500000D03*
X104100000Y-49900000D03*
X100100000Y-50600000D03*
X106700000Y-49900000D03*
X87000000Y-57800000D03*
X109200000Y-50000000D03*
X97700000Y-52800000D03*
X111800000Y-50700000D03*
X87000000Y-59000000D03*
X104200000Y-52400000D03*
X98900000Y-53600000D03*
X106600000Y-52600000D03*
X87000000Y-60300000D03*
X109200000Y-52500000D03*
X100700000Y-54300000D03*
X111700000Y-53200000D03*
X87000000Y-61600000D03*
X104000000Y-54900000D03*
X98600000Y-55700000D03*
X106600000Y-55100000D03*
X109200000Y-55000000D03*
X87000000Y-62800000D03*
X98500000Y-57100000D03*
X111700000Y-55800000D03*
X104100000Y-57500000D03*
X87000000Y-64100000D03*
X98500000Y-58500000D03*
X106600000Y-57700000D03*
X87000000Y-65400000D03*
X109200000Y-57600000D03*
X98300000Y-59900000D03*
X111800000Y-58400000D03*
X87000000Y-66600000D03*
X104100000Y-60100000D03*
X98000000Y-61300000D03*
X106700000Y-60100000D03*
X109200000Y-60200000D03*
X87000000Y-67900000D03*
X98000000Y-62700000D03*
X111700000Y-60900000D03*
X87000000Y-69200000D03*
X104100000Y-62500000D03*
X97800000Y-64100000D03*
X106600000Y-62800000D03*
X109200000Y-62900000D03*
X87000000Y-70500000D03*
X97800000Y-65500000D03*
X111700000Y-63500000D03*
X87000000Y-71800000D03*
X104100000Y-65200000D03*
X97600000Y-66900000D03*
X106700000Y-65300000D03*
X87000000Y-73000000D03*
X109200000Y-65300000D03*
X97600000Y-68300000D03*
X111700000Y-66000000D03*
X74485000Y-48895000D03*
X100300000Y-67300000D03*
X100300000Y-68300000D03*
X106600000Y-67700000D03*
X74485000Y-50165000D03*
X109200000Y-67800000D03*
X101400000Y-69100000D03*
X111800000Y-68500000D03*
X74485000Y-51435000D03*
X101400000Y-70100000D03*
X106600000Y-70300000D03*
X100700000Y-70800000D03*
X74485000Y-52705000D03*
X109200000Y-70400000D03*
X111800000Y-71000000D03*
X99900000Y-72200000D03*
X74485000Y-53975000D03*
X100800000Y-72600000D03*
X106600000Y-72800000D03*
X99500000Y-73600000D03*
X74485000Y-55245000D03*
X109200000Y-72900000D03*
X111700000Y-73600000D03*
X100700000Y-74400000D03*
X74485000Y-56515000D03*
X100700000Y-75400000D03*
X106600000Y-75400000D03*
X100700000Y-76400000D03*
X74485000Y-57785000D03*
X109200000Y-75400000D03*
X111700000Y-76100000D03*
X102200000Y-76900000D03*
X74485000Y-59055000D03*
X102100000Y-78000000D03*
X106600000Y-78000000D03*
X102200000Y-79000000D03*
X74485000Y-60325000D03*
X109200000Y-78000000D03*
X111700000Y-78800000D03*
X100600000Y-79700000D03*
X69300000Y-83300000D03*
X40600000Y-79700000D03*
X82900000Y-82300000D03*
X43200000Y-79500000D03*
X45800000Y-79400000D03*
X70000000Y-81900000D03*
X48300000Y-79200000D03*
X82000000Y-82000000D03*
X72000000Y-81500000D03*
X40700000Y-77000000D03*
X81100000Y-81500000D03*
X43200000Y-77100000D03*
X45700000Y-76400000D03*
X74300000Y-81800000D03*
X48300000Y-76500000D03*
X81200000Y-80400000D03*
X71400000Y-79000000D03*
X40700000Y-74500000D03*
X80900000Y-79100000D03*
X43200000Y-74300000D03*
X72600000Y-78200000D03*
X45700000Y-74500000D03*
X48300000Y-74200000D03*
X80600000Y-78000000D03*
X40800000Y-72000000D03*
X75700000Y-78000000D03*
X79300000Y-78000000D03*
X43200000Y-71900000D03*
X45800000Y-72000000D03*
X77300000Y-77600000D03*
X48400000Y-71300000D03*
X78300000Y-77600000D03*
X40700000Y-69500000D03*
X73300000Y-75400000D03*
X43200000Y-69500000D03*
X78900000Y-76600000D03*
X74485000Y-73025000D03*
X45800000Y-69300000D03*
X77915000Y-73025000D03*
X48300000Y-68900000D03*
X40700000Y-67000000D03*
X49900000Y-68100000D03*
X50700000Y-67500000D03*
X43200000Y-66800000D03*
X63945000Y-48895000D03*
X57800000Y-49600000D03*
X45700000Y-66500000D03*
X51000000Y-66500000D03*
X63945000Y-50165000D03*
X48300000Y-66100000D03*
X52000000Y-66400000D03*
X56600000Y-50500000D03*
X40700000Y-64400000D03*
X51700000Y-65100000D03*
X63945000Y-51435000D03*
X43300000Y-64300000D03*
X52700000Y-65000000D03*
X57900000Y-51400000D03*
X52700000Y-64000000D03*
X45800000Y-64200000D03*
X63945000Y-52705000D03*
X48300000Y-63500000D03*
X53700000Y-64000000D03*
X55300000Y-52200000D03*
X53700000Y-63000000D03*
X40800000Y-61800000D03*
X63945000Y-53975000D03*
X43300000Y-61800000D03*
X54700000Y-62600000D03*
X58100000Y-53600000D03*
X45800000Y-61500000D03*
X54700000Y-61600000D03*
X63945000Y-55245000D03*
X48300000Y-61000000D03*
X55700000Y-61400000D03*
X57100000Y-54600000D03*
X40700000Y-59300000D03*
X55700000Y-60400000D03*
X63945000Y-56515000D03*
X43200000Y-59200000D03*
X56700000Y-60200000D03*
X57400000Y-56000000D03*
X45800000Y-59100000D03*
X56500000Y-59000000D03*
X63945000Y-57785000D03*
X48300000Y-58500000D03*
X55800000Y-58300000D03*
X58100000Y-56700000D03*
X40700000Y-56800000D03*
X57500000Y-59300000D03*
X63945000Y-59055000D03*
X43300000Y-56700000D03*
X60515000Y-60325000D03*
X45700000Y-56100000D03*
X48500000Y-56500000D03*
X57500000Y-48200000D03*
X60515000Y-61595000D03*
X40700000Y-53400000D03*
X63945000Y-61595000D03*
X43300000Y-54300000D03*
X49900000Y-51200000D03*
X66100000Y-62900000D03*
X60515000Y-62865000D03*
X45700000Y-53500000D03*
X58200000Y-44100000D03*
X60515000Y-64135000D03*
X66500000Y-64800000D03*
X40700000Y-51000000D03*
X43180000Y-50800000D03*
X67000000Y-64000000D03*
X57200000Y-44500000D03*
X63945000Y-64135000D03*
X60800000Y-65400000D03*
X45720000Y-50800000D03*
X60515000Y-66675000D03*
X40700000Y-49100000D03*
X63945000Y-66675000D03*
X43200000Y-48600000D03*
X60515000Y-67945000D03*
X45700000Y-48300000D03*
X60515000Y-69215000D03*
X40800000Y-46700000D03*
X63945000Y-69215000D03*
X43100000Y-46000000D03*
X60515000Y-70485000D03*
X45700000Y-45300000D03*
X60515000Y-71755000D03*
X40700000Y-44000000D03*
X63945000Y-71755000D03*
X43300000Y-43900000D03*
X60515000Y-73025000D03*
X45800000Y-43100000D03*
X57500000Y-74400000D03*
X84400000Y-84600000D03*
X84300000Y-82100000D03*
X72100000Y-45900000D03*
X70700000Y-84700000D03*
D12*
X100200000Y-42300000D02*
X106700000Y-42300000D01*
X93600000Y-48900000D02*
X100200000Y-42300000D01*
X87000000Y-50200000D02*
X87600000Y-49600000D01*
X100700000Y-43000000D02*
X109200000Y-43000000D01*
X94100000Y-49600000D02*
X100700000Y-43000000D01*
X87600000Y-49600000D02*
X94100000Y-49600000D01*
X111200000Y-43700000D02*
X111700000Y-43200000D01*
X101000000Y-43700000D02*
X111200000Y-43700000D01*
X100800000Y-43900000D02*
X101000000Y-43700000D01*
X87000000Y-51400000D02*
X88100000Y-50300000D01*
X101600000Y-44500000D02*
X102600000Y-44500000D01*
X95800000Y-50300000D02*
X101600000Y-44500000D01*
X88100000Y-50300000D02*
X95800000Y-50300000D01*
X101900000Y-45200000D02*
X102000000Y-45300000D01*
X102000000Y-45300000D02*
X106300000Y-45300000D01*
X106300000Y-45300000D02*
X106700000Y-44900000D01*
X87000000Y-52700000D02*
X89000000Y-50700000D01*
X89000000Y-50700000D02*
X95902898Y-50700000D01*
X108544398Y-45655602D02*
X109200000Y-45000000D01*
X102800000Y-45655602D02*
X108544398Y-45655602D01*
X102555602Y-45900000D02*
X102800000Y-45655602D01*
X100702898Y-45900000D02*
X102555602Y-45900000D01*
X95902898Y-50700000D02*
X100702898Y-45900000D01*
X101344398Y-46255602D02*
X103144398Y-46255602D01*
X111388796Y-46011204D02*
X111700000Y-45700000D01*
X103388796Y-46011204D02*
X111388796Y-46011204D01*
X101000000Y-46600000D02*
X101344398Y-46255602D01*
X103144398Y-46255602D02*
X103388796Y-46011204D01*
X89844398Y-51055602D02*
X89900000Y-51055602D01*
X86900000Y-54000000D02*
X89844398Y-51055602D01*
X89900000Y-51055602D02*
X96050194Y-51055602D01*
X99805796Y-47300000D02*
X104100000Y-47300000D01*
X96050194Y-51055602D02*
X99805796Y-47300000D01*
X105500000Y-47400000D02*
X106600000Y-47400000D01*
X104900000Y-48000000D02*
X105500000Y-47400000D01*
X100200000Y-48000000D02*
X104900000Y-48000000D01*
X90688796Y-51411204D02*
X90700000Y-51411204D01*
X86900000Y-55200000D02*
X90688796Y-51411204D01*
X90700000Y-51411204D02*
X96288796Y-51411204D01*
X107500000Y-47700000D02*
X109200000Y-47700000D01*
X106500000Y-48700000D02*
X107500000Y-47700000D01*
X99000000Y-48700000D02*
X106500000Y-48700000D01*
X96288796Y-51411204D02*
X99000000Y-48700000D01*
X99300000Y-49400000D02*
X99600000Y-49100000D01*
X99600000Y-49100000D02*
X106700000Y-49100000D01*
X106700000Y-49100000D02*
X107400000Y-48400000D01*
X107400000Y-48400000D02*
X111600000Y-48400000D01*
X111600000Y-48400000D02*
X111700000Y-48300000D01*
X91633194Y-51766806D02*
X91700000Y-51766806D01*
X86900000Y-56500000D02*
X91633194Y-51766806D01*
X99800000Y-49900000D02*
X104100000Y-49900000D01*
X97933194Y-51766806D02*
X99800000Y-49900000D01*
X91700000Y-51766806D02*
X97933194Y-51766806D01*
X100100000Y-50600000D02*
X105100000Y-50600000D01*
X105100000Y-50600000D02*
X105800000Y-49900000D01*
X105800000Y-49900000D02*
X106700000Y-49900000D01*
X87000000Y-57800000D02*
X92677592Y-52122408D01*
X92677592Y-52122408D02*
X92700000Y-52122408D01*
X107800000Y-50000000D02*
X109200000Y-50000000D01*
X106844398Y-50955602D02*
X107800000Y-50000000D01*
X100700000Y-50955602D02*
X106844398Y-50955602D01*
X99533194Y-52122408D02*
X100700000Y-50955602D01*
X92700000Y-52122408D02*
X99533194Y-52122408D01*
X97700000Y-52800000D02*
X98000000Y-52500000D01*
X98000000Y-52500000D02*
X99700000Y-52500000D01*
X99700000Y-52500000D02*
X100888796Y-51311204D01*
X100888796Y-51311204D02*
X107588796Y-51311204D01*
X107588796Y-51311204D02*
X108200000Y-50700000D01*
X108200000Y-50700000D02*
X111800000Y-50700000D01*
X87000000Y-59000000D02*
X92500000Y-53500000D01*
X100302898Y-52400000D02*
X104200000Y-52400000D01*
X99802898Y-52900000D02*
X100302898Y-52400000D01*
X98600000Y-52900000D02*
X99802898Y-52900000D01*
X98000000Y-53500000D02*
X98600000Y-52900000D01*
X92500000Y-53500000D02*
X98000000Y-53500000D01*
X98900000Y-53600000D02*
X99200000Y-53300000D01*
X99200000Y-53300000D02*
X100000000Y-53300000D01*
X100000000Y-53300000D02*
X100200000Y-53100000D01*
X100200000Y-53100000D02*
X106100000Y-53100000D01*
X106100000Y-53100000D02*
X106600000Y-52600000D01*
X87000000Y-60300000D02*
X93000000Y-54300000D01*
X108244398Y-53455602D02*
X109200000Y-52500000D01*
X100500000Y-53455602D02*
X108244398Y-53455602D01*
X99655602Y-54300000D02*
X100500000Y-53455602D01*
X93000000Y-54300000D02*
X99655602Y-54300000D01*
X100700000Y-54300000D02*
X101188796Y-53811204D01*
X101188796Y-53811204D02*
X111088796Y-53811204D01*
X111088796Y-53811204D02*
X111700000Y-53200000D01*
X87000000Y-61600000D02*
X93600000Y-55000000D01*
X103900000Y-55000000D02*
X104000000Y-54900000D01*
X93600000Y-55000000D02*
X103900000Y-55000000D01*
X98600000Y-55700000D02*
X98700000Y-55600000D01*
X98700000Y-55600000D02*
X106100000Y-55600000D01*
X106100000Y-55600000D02*
X106600000Y-55100000D01*
X93400000Y-56400000D02*
X99555602Y-56400000D01*
X99555602Y-56400000D02*
X100000000Y-55955602D01*
X100000000Y-55955602D02*
X108244398Y-55955602D01*
X108244398Y-55955602D02*
X109200000Y-55000000D01*
X87000000Y-62800000D02*
X93400000Y-56400000D01*
X98500000Y-57100000D02*
X98800000Y-56800000D01*
X98800000Y-56800000D02*
X99800000Y-56800000D01*
X99800000Y-56800000D02*
X100288796Y-56311204D01*
X100288796Y-56311204D02*
X111188796Y-56311204D01*
X111188796Y-56311204D02*
X111700000Y-55800000D01*
X93300000Y-57800000D02*
X98802898Y-57800000D01*
X98802898Y-57800000D02*
X99102898Y-57500000D01*
X99102898Y-57500000D02*
X104100000Y-57500000D01*
X87000000Y-64100000D02*
X93300000Y-57800000D01*
X98500000Y-58500000D02*
X98800000Y-58200000D01*
X98800000Y-58200000D02*
X106100000Y-58200000D01*
X106100000Y-58200000D02*
X106600000Y-57700000D01*
X87000000Y-65400000D02*
X93200000Y-59200000D01*
X108244398Y-58555602D02*
X109200000Y-57600000D01*
X99500000Y-58555602D02*
X108244398Y-58555602D01*
X98855602Y-59200000D02*
X99500000Y-58555602D01*
X93200000Y-59200000D02*
X98855602Y-59200000D01*
X98300000Y-59900000D02*
X98600000Y-59600000D01*
X98600000Y-59600000D02*
X98958500Y-59600000D01*
X98958500Y-59600000D02*
X99647296Y-58911204D01*
X99647296Y-58911204D02*
X111288796Y-58911204D01*
X111288796Y-58911204D02*
X111800000Y-58400000D01*
X87000000Y-66600000D02*
X93000000Y-60600000D01*
X99100000Y-60100000D02*
X104100000Y-60100000D01*
X98600000Y-60600000D02*
X99100000Y-60100000D01*
X93000000Y-60600000D02*
X98600000Y-60600000D01*
X98000000Y-61300000D02*
X98300000Y-61000000D01*
X98300000Y-61000000D02*
X98855602Y-61000000D01*
X98855602Y-61000000D02*
X99055602Y-60800000D01*
X99055602Y-60800000D02*
X106000000Y-60800000D01*
X106000000Y-60800000D02*
X106700000Y-60100000D01*
X92900000Y-62000000D02*
X98855602Y-62000000D01*
X98855602Y-62000000D02*
X99700000Y-61155602D01*
X99700000Y-61155602D02*
X108244398Y-61155602D01*
X108244398Y-61155602D02*
X109200000Y-60200000D01*
X87000000Y-67900000D02*
X92900000Y-62000000D01*
X98000000Y-62700000D02*
X98300000Y-62400000D01*
X98300000Y-62400000D02*
X99100000Y-62400000D01*
X99100000Y-62400000D02*
X99988796Y-61511204D01*
X99988796Y-61511204D02*
X111088796Y-61511204D01*
X111088796Y-61511204D02*
X111700000Y-60900000D01*
X87000000Y-69200000D02*
X92800000Y-63400000D01*
X99800000Y-62500000D02*
X104100000Y-62500000D01*
X98900000Y-63400000D02*
X99800000Y-62500000D01*
X92800000Y-63400000D02*
X98900000Y-63400000D01*
X97800000Y-64100000D02*
X98100000Y-63800000D01*
X98100000Y-63800000D02*
X99400000Y-63800000D01*
X99400000Y-63800000D02*
X100000000Y-63200000D01*
X100000000Y-63200000D02*
X106200000Y-63200000D01*
X106200000Y-63200000D02*
X106600000Y-62800000D01*
X98902898Y-64800000D02*
X92700000Y-64800000D01*
X98902898Y-64800000D02*
X100102898Y-63600000D01*
X100102898Y-63600000D02*
X108500000Y-63600000D01*
X108500000Y-63600000D02*
X109200000Y-62900000D01*
X87000000Y-70500000D02*
X92700000Y-64800000D01*
X97800000Y-65500000D02*
X98100000Y-65200000D01*
X98100000Y-65200000D02*
X99100000Y-65200000D01*
X99100000Y-65200000D02*
X100344398Y-63955602D01*
X100344398Y-63955602D02*
X111244398Y-63955602D01*
X111244398Y-63955602D02*
X111700000Y-63500000D01*
X87000000Y-71800000D02*
X92600000Y-66200000D01*
X99700000Y-65200000D02*
X104100000Y-65200000D01*
X98700000Y-66200000D02*
X99700000Y-65200000D01*
X92600000Y-66200000D02*
X98700000Y-66200000D01*
X97600000Y-66900000D02*
X97900000Y-66600000D01*
X97900000Y-66600000D02*
X99000000Y-66600000D01*
X99000000Y-66600000D02*
X99700000Y-65900000D01*
X99700000Y-65900000D02*
X106100000Y-65900000D01*
X106100000Y-65900000D02*
X106700000Y-65300000D01*
X87000000Y-73000000D02*
X92400000Y-67600000D01*
X108244398Y-66255602D02*
X109200000Y-65300000D01*
X99847296Y-66255602D02*
X108244398Y-66255602D01*
X98502898Y-67600000D02*
X99847296Y-66255602D01*
X92400000Y-67600000D02*
X98502898Y-67600000D01*
X97600000Y-68300000D02*
X97800000Y-68100000D01*
X97800000Y-68100000D02*
X98505796Y-68100000D01*
X98505796Y-68100000D02*
X99994592Y-66611204D01*
X99994592Y-66611204D02*
X111088796Y-66611204D01*
X111088796Y-66611204D02*
X111700000Y-66000000D01*
X88600000Y-75700000D02*
X91900000Y-75700000D01*
X74485000Y-48895000D02*
X74490000Y-48900000D01*
X74490000Y-48900000D02*
X84900000Y-48900000D01*
X84900000Y-48900000D02*
X86200000Y-50200000D01*
X86200000Y-50200000D02*
X86200000Y-73300000D01*
X86200000Y-73300000D02*
X88600000Y-75700000D01*
X91900000Y-75700000D02*
X100300000Y-67300000D01*
X100300000Y-68300000D02*
X100900000Y-67700000D01*
X100900000Y-67700000D02*
X106600000Y-67700000D01*
X108600000Y-68400000D02*
X109200000Y-67800000D01*
X101155602Y-68400000D02*
X108600000Y-68400000D01*
X93500000Y-76055602D02*
X101155602Y-68400000D01*
X88452704Y-76055602D02*
X93500000Y-76055602D01*
X85844398Y-73447296D02*
X88452704Y-76055602D01*
X85844398Y-51200000D02*
X85844398Y-73447296D01*
X84744398Y-50100000D02*
X85844398Y-51200000D01*
X74550000Y-50100000D02*
X84744398Y-50100000D01*
X74550000Y-50100000D02*
X74485000Y-50165000D01*
X101744398Y-68755602D02*
X111544398Y-68755602D01*
X101400000Y-69100000D02*
X101744398Y-68755602D01*
X111544398Y-68755602D02*
X111800000Y-68500000D01*
X99958500Y-70100000D02*
X101400000Y-70100000D01*
X93647296Y-76411204D02*
X99958500Y-70100000D01*
X88305408Y-76411204D02*
X93647296Y-76411204D01*
X85488796Y-73594592D02*
X88305408Y-76411204D01*
X85488796Y-52800000D02*
X85488796Y-73594592D01*
X84088796Y-51400000D02*
X85488796Y-52800000D01*
X74520000Y-51400000D02*
X84088796Y-51400000D01*
X74520000Y-51400000D02*
X74485000Y-51435000D01*
X102600000Y-70300000D02*
X106600000Y-70300000D01*
X102100000Y-70800000D02*
X102600000Y-70300000D01*
X100700000Y-70800000D02*
X102100000Y-70800000D01*
X108600000Y-71000000D02*
X109200000Y-70400000D01*
X102600000Y-71000000D02*
X108600000Y-71000000D01*
X102100000Y-71500000D02*
X102600000Y-71000000D01*
X99061398Y-71500000D02*
X102100000Y-71500000D01*
X93794592Y-76766806D02*
X99061398Y-71500000D01*
X88158112Y-76766806D02*
X93794592Y-76766806D01*
X85133194Y-73741888D02*
X88158112Y-76766806D01*
X85133194Y-54300000D02*
X85133194Y-73741888D01*
X83533194Y-52700000D02*
X85133194Y-54300000D01*
X74490000Y-52700000D02*
X83533194Y-52700000D01*
X74490000Y-52700000D02*
X74485000Y-52705000D01*
X111444398Y-71355602D02*
X111800000Y-71000000D01*
X102844398Y-71355602D02*
X111444398Y-71355602D01*
X102344398Y-71855602D02*
X102844398Y-71355602D01*
X100244398Y-71855602D02*
X102344398Y-71855602D01*
X99900000Y-72200000D02*
X100244398Y-71855602D01*
X100500000Y-72900000D02*
X100800000Y-72600000D01*
X98164296Y-72900000D02*
X100500000Y-72900000D01*
X93941888Y-77122408D02*
X98164296Y-72900000D01*
X88010816Y-77122408D02*
X93941888Y-77122408D01*
X84777592Y-73889184D02*
X88010816Y-77122408D01*
X84777592Y-56000000D02*
X84777592Y-73889184D01*
X82777592Y-54000000D02*
X84777592Y-56000000D01*
X74510000Y-54000000D02*
X82777592Y-54000000D01*
X74510000Y-54000000D02*
X74485000Y-53975000D01*
X101700000Y-72800000D02*
X106600000Y-72800000D01*
X101200000Y-73300000D02*
X101700000Y-72800000D01*
X99800000Y-73300000D02*
X101200000Y-73300000D01*
X99500000Y-73600000D02*
X99800000Y-73300000D01*
X108444398Y-73655602D02*
X109200000Y-72900000D01*
X100400000Y-73655602D02*
X108444398Y-73655602D01*
X96577592Y-77478010D02*
X100400000Y-73655602D01*
X87863520Y-77478010D02*
X96577592Y-77478010D01*
X84421990Y-74036480D02*
X87863520Y-77478010D01*
X84421990Y-57400000D02*
X84421990Y-74036480D01*
X82221990Y-55200000D02*
X84421990Y-57400000D01*
X74530000Y-55200000D02*
X82221990Y-55200000D01*
X74530000Y-55200000D02*
X74485000Y-55245000D01*
X111288796Y-74011204D02*
X111700000Y-73600000D01*
X101088796Y-74011204D02*
X111288796Y-74011204D01*
X100700000Y-74400000D02*
X101088796Y-74011204D01*
X98266388Y-77833612D02*
X100700000Y-75400000D01*
X87716224Y-77833612D02*
X98266388Y-77833612D01*
X84066388Y-74183776D02*
X87716224Y-77833612D01*
X84066388Y-58866388D02*
X84066388Y-74183776D01*
X81700000Y-56500000D02*
X84066388Y-58866388D01*
X74500000Y-56500000D02*
X81700000Y-56500000D01*
X74500000Y-56500000D02*
X74485000Y-56515000D01*
X101700000Y-75400000D02*
X106600000Y-75400000D01*
X100700000Y-76400000D02*
X101700000Y-75400000D01*
X108500000Y-76100000D02*
X109200000Y-75400000D01*
X102000000Y-76100000D02*
X108500000Y-76100000D01*
X99900000Y-78200000D02*
X102000000Y-76100000D01*
X87579714Y-78200000D02*
X99900000Y-78200000D01*
X83710786Y-74331072D02*
X87579714Y-78200000D01*
X83710786Y-60300000D02*
X83710786Y-74331072D01*
X81210786Y-57800000D02*
X83710786Y-60300000D01*
X74500000Y-57800000D02*
X81210786Y-57800000D01*
X74500000Y-57800000D02*
X74485000Y-57785000D01*
X111344398Y-76455602D02*
X111700000Y-76100000D01*
X102644398Y-76455602D02*
X111344398Y-76455602D01*
X102200000Y-76900000D02*
X102644398Y-76455602D01*
X101500000Y-78600000D02*
X102100000Y-78000000D01*
X87476816Y-78600000D02*
X101500000Y-78600000D01*
X83355184Y-74478368D02*
X87476816Y-78600000D01*
X83355184Y-61800000D02*
X83355184Y-74478368D01*
X80555184Y-59000000D02*
X83355184Y-61800000D01*
X74540000Y-59000000D02*
X80555184Y-59000000D01*
X74540000Y-59000000D02*
X74485000Y-59055000D01*
X103200000Y-78000000D02*
X106600000Y-78000000D01*
X102200000Y-79000000D02*
X103200000Y-78000000D01*
X108500000Y-78700000D02*
X109200000Y-78000000D01*
X103600000Y-78700000D02*
X108500000Y-78700000D01*
X102600000Y-79700000D02*
X103600000Y-78700000D01*
X101600000Y-79700000D02*
X102600000Y-79700000D01*
X100855602Y-78955602D02*
X101600000Y-79700000D01*
X87329520Y-78955602D02*
X100855602Y-78955602D01*
X82999582Y-74625664D02*
X87329520Y-78955602D01*
X82999582Y-62500000D02*
X82999582Y-74625664D01*
X80799582Y-60300000D02*
X82999582Y-62500000D01*
X74510000Y-60300000D02*
X80799582Y-60300000D01*
X74510000Y-60300000D02*
X74485000Y-60325000D01*
X111444398Y-79055602D02*
X111700000Y-78800000D01*
X104144398Y-79055602D02*
X111444398Y-79055602D01*
X103100000Y-80100000D02*
X104144398Y-79055602D01*
X101000000Y-80100000D02*
X103100000Y-80100000D01*
X100600000Y-79700000D02*
X101000000Y-80100000D01*
X69300000Y-83300000D02*
X69200000Y-83400000D01*
X69200000Y-83400000D02*
X44300000Y-83400000D01*
X44300000Y-83400000D02*
X40600000Y-79700000D01*
X82900000Y-82300000D02*
X82900000Y-82900000D01*
X82900000Y-82900000D02*
X81400000Y-84400000D01*
X69700000Y-82600000D02*
X69800000Y-82600000D01*
X71600000Y-84400000D02*
X81400000Y-84400000D01*
X69800000Y-82600000D02*
X71600000Y-84400000D01*
X69700000Y-82600000D02*
X68944398Y-82600000D01*
X46300000Y-82600000D02*
X43200000Y-79500000D01*
X46744398Y-83044398D02*
X46300000Y-82600000D01*
X68500000Y-83044398D02*
X46744398Y-83044398D01*
X68944398Y-82600000D02*
X68500000Y-83044398D01*
X48600000Y-82200000D02*
X45800000Y-79400000D01*
X69700000Y-82200000D02*
X48600000Y-82200000D01*
X70000000Y-81900000D02*
X69700000Y-82200000D01*
X50900000Y-81800000D02*
X48300000Y-79200000D01*
X69100000Y-81800000D02*
X50900000Y-81800000D01*
X69700000Y-81200000D02*
X69100000Y-81800000D01*
X70700000Y-81200000D02*
X69700000Y-81200000D01*
X72700000Y-83200000D02*
X70700000Y-81200000D01*
X80800000Y-83200000D02*
X72700000Y-83200000D01*
X82000000Y-82000000D02*
X80800000Y-83200000D01*
X72000000Y-81500000D02*
X71300000Y-80800000D01*
X71300000Y-80800000D02*
X69597102Y-80800000D01*
X69597102Y-80800000D02*
X68997102Y-81400000D01*
X68997102Y-81400000D02*
X52200000Y-81400000D01*
X52200000Y-81400000D02*
X49060000Y-78260000D01*
X49060000Y-78260000D02*
X41960000Y-78260000D01*
X41960000Y-78260000D02*
X40700000Y-77000000D01*
X49200000Y-77600000D02*
X43700000Y-77600000D01*
X81100000Y-81500000D02*
X80100000Y-82500000D01*
X80100000Y-82500000D02*
X74000000Y-82500000D01*
X74000000Y-82500000D02*
X71944398Y-80444398D01*
X71944398Y-80444398D02*
X69355602Y-80444398D01*
X69355602Y-80444398D02*
X68900000Y-80900000D01*
X68900000Y-80900000D02*
X52500000Y-80900000D01*
X52500000Y-80900000D02*
X49200000Y-77600000D01*
X43700000Y-77600000D02*
X43200000Y-77100000D01*
X53044398Y-80544398D02*
X52588796Y-80088796D01*
X68752704Y-80544398D02*
X53044398Y-80544398D01*
X69208306Y-80088796D02*
X68752704Y-80544398D01*
X45700000Y-76400000D02*
X46500000Y-77200000D01*
X49700000Y-77300000D02*
X49700000Y-77200000D01*
X49600000Y-77200000D02*
X49700000Y-77300000D01*
X46500000Y-77200000D02*
X49600000Y-77200000D01*
X72588796Y-80088796D02*
X69300000Y-80088796D01*
X52588796Y-80088796D02*
X49700000Y-77200000D01*
X69300000Y-80088796D02*
X69208306Y-80088796D01*
X74300000Y-81800000D02*
X72588796Y-80088796D01*
X69100000Y-79733194D02*
X69055602Y-79733194D01*
X53191694Y-80188796D02*
X52736092Y-79733194D01*
X68600000Y-80188796D02*
X53191694Y-80188796D01*
X69055602Y-79733194D02*
X68600000Y-80188796D01*
X52736092Y-79733194D02*
X49502898Y-76500000D01*
X49502898Y-76500000D02*
X48300000Y-76500000D01*
X80533194Y-79733194D02*
X69100000Y-79733194D01*
X81200000Y-80400000D02*
X80533194Y-79733194D01*
X71300000Y-79100000D02*
X71300000Y-79377592D01*
X71400000Y-79000000D02*
X71300000Y-79100000D01*
X69000000Y-79377592D02*
X68855602Y-79377592D01*
X71300000Y-79377592D02*
X69000000Y-79377592D01*
X41900000Y-75700000D02*
X40700000Y-74500000D01*
X49205796Y-75700000D02*
X41900000Y-75700000D01*
X52883388Y-79377592D02*
X49205796Y-75700000D01*
X68855602Y-79377592D02*
X68400000Y-79833194D01*
X68400000Y-79833194D02*
X53338990Y-79833194D01*
X53338990Y-79833194D02*
X52883388Y-79377592D01*
X73800000Y-79100000D02*
X72500000Y-79100000D01*
X72500000Y-79100000D02*
X71700000Y-78300000D01*
X69800000Y-78300000D02*
X69430296Y-78300000D01*
X71700000Y-78300000D02*
X69800000Y-78300000D01*
X44200000Y-75300000D02*
X43200000Y-74300000D01*
X49308694Y-75300000D02*
X44200000Y-75300000D01*
X53030684Y-79021990D02*
X49308694Y-75300000D01*
X80900000Y-79100000D02*
X73800000Y-79100000D01*
X68252704Y-79477592D02*
X53486286Y-79477592D01*
X53486286Y-79477592D02*
X53030684Y-79021990D01*
X69430296Y-78300000D02*
X68252704Y-79477592D01*
X69210995Y-77910995D02*
X72310995Y-77910995D01*
X72310995Y-77910995D02*
X72600000Y-78200000D01*
X72500000Y-78100000D02*
X72500000Y-78000000D01*
X72600000Y-78200000D02*
X72500000Y-78100000D01*
X69221990Y-77900000D02*
X69210995Y-77910995D01*
X69210995Y-77910995D02*
X68000000Y-79121990D01*
X46144398Y-74944398D02*
X45700000Y-74500000D01*
X49455990Y-74944398D02*
X46144398Y-74944398D01*
X53111592Y-78600000D02*
X49455990Y-74944398D01*
X68000000Y-79121990D02*
X53633582Y-79121990D01*
X53633582Y-79121990D02*
X53111592Y-78600000D01*
X79900000Y-78700000D02*
X80600000Y-78000000D01*
X69200000Y-77500000D02*
X69000000Y-77500000D01*
X53780878Y-78766388D02*
X53214490Y-78200000D01*
X67733612Y-78766388D02*
X53928174Y-78766388D01*
X49214490Y-74200000D02*
X48300000Y-74200000D01*
X53214490Y-78200000D02*
X49214490Y-74200000D01*
X74200000Y-77500000D02*
X69200000Y-77500000D01*
X75400000Y-78700000D02*
X74200000Y-77500000D01*
X79900000Y-78700000D02*
X75400000Y-78700000D01*
X53928174Y-78766388D02*
X53780878Y-78766388D01*
X69000000Y-77500000D02*
X67733612Y-78766388D01*
X67292112Y-78410786D02*
X53928174Y-78410786D01*
X53361786Y-77844398D02*
X49017388Y-73500000D01*
X49017388Y-73500000D02*
X42300000Y-73500000D01*
X42300000Y-73500000D02*
X40800000Y-72000000D01*
X53928174Y-78410786D02*
X53361786Y-77844398D01*
X75700000Y-78000000D02*
X74844398Y-77144398D01*
X74844398Y-77144398D02*
X68900000Y-77144398D01*
X68900000Y-77144398D02*
X68558500Y-77144398D01*
X68558500Y-77144398D02*
X67292112Y-78410786D01*
X67100000Y-78055184D02*
X67144816Y-78055184D01*
X75300000Y-76788796D02*
X68411204Y-76788796D01*
X44400000Y-73100000D02*
X43200000Y-71900000D01*
X49120286Y-73100000D02*
X44400000Y-73100000D01*
X53509082Y-77488796D02*
X49120286Y-73100000D01*
X75488796Y-76788796D02*
X77044398Y-78344398D01*
X77044398Y-78344398D02*
X78955602Y-78344398D01*
X78955602Y-78344398D02*
X79300000Y-78000000D01*
X75300000Y-76788796D02*
X75488796Y-76788796D01*
X67100000Y-78055184D02*
X54075470Y-78055184D01*
X54075470Y-78055184D02*
X53509082Y-77488796D01*
X67144816Y-78055184D02*
X68411204Y-76788796D01*
X68100000Y-76433194D02*
X67400000Y-77133194D01*
X67300000Y-77133194D02*
X67166388Y-77133194D01*
X54222766Y-77699582D02*
X53656378Y-77133194D01*
X66600000Y-77699582D02*
X54222766Y-77699582D01*
X67166388Y-77133194D02*
X66600000Y-77699582D01*
X53656378Y-77133194D02*
X48523184Y-72000000D01*
X48523184Y-72000000D02*
X45800000Y-72000000D01*
X67400000Y-77133194D02*
X67300000Y-77133194D01*
X76133194Y-76433194D02*
X68100000Y-76433194D01*
X77300000Y-77600000D02*
X76133194Y-76433194D01*
X66900000Y-76777592D02*
X66866388Y-76777592D01*
X54443980Y-77343980D02*
X53877592Y-76777592D01*
X66300000Y-77343980D02*
X54443980Y-77343980D01*
X66866388Y-76777592D02*
X66300000Y-77343980D01*
X53877592Y-76777592D02*
X48400000Y-71300000D01*
X67022408Y-76777592D02*
X66900000Y-76777592D01*
X67722408Y-76077592D02*
X67022408Y-76777592D01*
X76777592Y-76077592D02*
X67722408Y-76077592D01*
X78300000Y-77600000D02*
X76777592Y-76077592D01*
X72500000Y-75400000D02*
X72200000Y-75700000D01*
X72200000Y-75700000D02*
X67521990Y-75700000D01*
X67521990Y-75700000D02*
X66800000Y-76421990D01*
X66800000Y-76421990D02*
X66500000Y-76421990D01*
X41800000Y-70600000D02*
X40700000Y-69500000D01*
X48700000Y-70600000D02*
X41800000Y-70600000D01*
X54521990Y-76421990D02*
X48700000Y-70600000D01*
X66366388Y-76421990D02*
X65800000Y-76988378D01*
X65800000Y-76988378D02*
X55088378Y-76988378D01*
X55088378Y-76988378D02*
X54521990Y-76421990D01*
X66500000Y-76421990D02*
X66366388Y-76421990D01*
X73300000Y-75400000D02*
X72500000Y-75400000D01*
X66100000Y-76066388D02*
X66066388Y-76066388D01*
X55235674Y-76632776D02*
X54669286Y-76066388D01*
X65500000Y-76632776D02*
X55235674Y-76632776D01*
X66066388Y-76066388D02*
X65500000Y-76632776D01*
X54669286Y-76066388D02*
X48847296Y-70244398D01*
X48847296Y-70244398D02*
X43944398Y-70244398D01*
X43944398Y-70244398D02*
X43200000Y-69500000D01*
X66633612Y-76066388D02*
X66100000Y-76066388D01*
X68000000Y-74700000D02*
X66633612Y-76066388D01*
X73600000Y-74700000D02*
X68000000Y-74700000D01*
X74600000Y-75700000D02*
X73600000Y-74700000D01*
X78000000Y-75700000D02*
X74600000Y-75700000D01*
X78900000Y-76600000D02*
X78000000Y-75700000D01*
X65800000Y-75710786D02*
X65666388Y-75710786D01*
X55382970Y-76277174D02*
X54816582Y-75710786D01*
X65100000Y-76277174D02*
X55382970Y-76277174D01*
X65666388Y-75710786D02*
X65100000Y-76277174D01*
X54816582Y-75710786D02*
X48805796Y-69700000D01*
X48805796Y-69700000D02*
X46200000Y-69700000D01*
X46200000Y-69700000D02*
X45800000Y-69300000D01*
X66389214Y-75710786D02*
X65800000Y-75710786D01*
X67800000Y-74300000D02*
X66389214Y-75710786D01*
X73210000Y-74300000D02*
X67800000Y-74300000D01*
X73210000Y-74300000D02*
X74485000Y-73025000D01*
X48508694Y-68900000D02*
X48300000Y-68900000D01*
X55530266Y-75921572D02*
X48508694Y-68900000D01*
X64952704Y-75921572D02*
X55530266Y-75921572D01*
X65519092Y-75355184D02*
X64952704Y-75921572D01*
X66144816Y-75355184D02*
X65519092Y-75355184D01*
X69300000Y-72200000D02*
X66144816Y-75355184D01*
X77090000Y-72200000D02*
X69300000Y-72200000D01*
X77090000Y-72200000D02*
X77915000Y-73025000D01*
X40700000Y-67000000D02*
X40700000Y-67000000D01*
X41800000Y-68100000D02*
X40700000Y-67000000D01*
X49900000Y-68100000D02*
X41800000Y-68100000D01*
X63945000Y-48895000D02*
X58505000Y-48895000D01*
X63940000Y-48900000D02*
X63945000Y-48895000D01*
X50700000Y-67500000D02*
X50600000Y-67400000D01*
X50600000Y-67400000D02*
X43800000Y-67400000D01*
X43800000Y-67400000D02*
X43200000Y-66800000D01*
X58505000Y-48895000D02*
X57800000Y-49600000D01*
X46000000Y-66800000D02*
X45700000Y-66500000D01*
X50700000Y-66800000D02*
X46000000Y-66800000D01*
X51000000Y-66500000D02*
X50700000Y-66800000D01*
X49700000Y-66100000D02*
X48300000Y-66100000D01*
X50000000Y-65800000D02*
X49700000Y-66100000D01*
X51400000Y-65800000D02*
X50000000Y-65800000D01*
X52000000Y-66400000D02*
X51400000Y-65800000D01*
X56800000Y-50300000D02*
X56600000Y-50500000D01*
X63810000Y-50300000D02*
X56800000Y-50300000D01*
X63810000Y-50300000D02*
X63945000Y-50165000D01*
X41700000Y-65400000D02*
X40700000Y-64400000D01*
X51400000Y-65400000D02*
X41700000Y-65400000D01*
X51700000Y-65100000D02*
X51400000Y-65400000D01*
X44044398Y-65044398D02*
X43300000Y-64300000D01*
X50555602Y-65044398D02*
X44044398Y-65044398D01*
X51200000Y-64400000D02*
X50555602Y-65044398D01*
X52100000Y-64400000D02*
X51200000Y-64400000D01*
X52700000Y-65000000D02*
X52100000Y-64400000D01*
X63910000Y-51400000D02*
X57900000Y-51400000D01*
X63910000Y-51400000D02*
X63945000Y-51435000D01*
X52700000Y-64000000D02*
X49400000Y-64000000D01*
X49400000Y-64000000D02*
X49200000Y-64200000D01*
X49200000Y-64200000D02*
X45800000Y-64200000D01*
X52100000Y-63500000D02*
X48300000Y-63500000D01*
X52300000Y-63300000D02*
X52100000Y-63500000D01*
X53000000Y-63300000D02*
X52300000Y-63300000D01*
X53700000Y-64000000D02*
X53000000Y-63300000D01*
X55400000Y-52100000D02*
X55300000Y-52200000D01*
X63340000Y-52100000D02*
X55400000Y-52100000D01*
X63340000Y-52100000D02*
X63945000Y-52705000D01*
X53700000Y-63000000D02*
X53500000Y-62800000D01*
X53500000Y-62800000D02*
X41800000Y-62800000D01*
X41800000Y-62800000D02*
X40800000Y-61800000D01*
X43700000Y-62200000D02*
X43300000Y-61800000D01*
X54300000Y-62200000D02*
X43700000Y-62200000D01*
X54700000Y-62600000D02*
X54300000Y-62200000D01*
X63570000Y-53600000D02*
X58100000Y-53600000D01*
X63570000Y-53600000D02*
X63945000Y-53975000D01*
X46100000Y-61800000D02*
X45800000Y-61500000D01*
X54500000Y-61800000D02*
X46100000Y-61800000D01*
X54700000Y-61600000D02*
X54500000Y-61800000D01*
X48700000Y-61400000D02*
X48300000Y-61000000D01*
X53900000Y-61400000D02*
X48700000Y-61400000D01*
X54400000Y-60900000D02*
X53900000Y-61400000D01*
X55200000Y-60900000D02*
X54400000Y-60900000D01*
X55700000Y-61400000D02*
X55200000Y-60900000D01*
X57400000Y-54300000D02*
X57100000Y-54600000D01*
X63000000Y-54300000D02*
X57400000Y-54300000D01*
X63000000Y-54300000D02*
X63945000Y-55245000D01*
X41700000Y-60300000D02*
X40700000Y-59300000D01*
X55600000Y-60300000D02*
X41700000Y-60300000D01*
X55700000Y-60400000D02*
X55600000Y-60300000D01*
X43944398Y-59944398D02*
X43200000Y-59200000D01*
X54700000Y-59944398D02*
X43944398Y-59944398D01*
X54944398Y-59700000D02*
X54700000Y-59944398D01*
X56200000Y-59700000D02*
X54944398Y-59700000D01*
X56700000Y-60200000D02*
X56200000Y-59700000D01*
X63430000Y-56000000D02*
X57400000Y-56000000D01*
X63430000Y-56000000D02*
X63945000Y-56515000D01*
X46000000Y-59300000D02*
X45800000Y-59100000D01*
X56200000Y-59300000D02*
X46000000Y-59300000D01*
X56500000Y-59000000D02*
X56200000Y-59300000D01*
X48744398Y-58944398D02*
X48300000Y-58500000D01*
X55155602Y-58944398D02*
X48744398Y-58944398D01*
X55800000Y-58300000D02*
X55155602Y-58944398D01*
X58200000Y-56600000D02*
X58100000Y-56700000D01*
X62760000Y-56600000D02*
X58200000Y-56600000D01*
X62760000Y-56600000D02*
X63945000Y-57785000D01*
X41700000Y-57800000D02*
X40700000Y-56800000D01*
X55000000Y-57800000D02*
X41700000Y-57800000D01*
X55200000Y-57600000D02*
X55000000Y-57800000D01*
X56200000Y-57600000D02*
X55200000Y-57600000D01*
X57400000Y-58800000D02*
X56200000Y-57600000D01*
X57400000Y-59200000D02*
X57400000Y-58800000D01*
X57500000Y-59300000D02*
X57400000Y-59200000D01*
X43900000Y-57300000D02*
X43300000Y-56700000D01*
X54044398Y-57300000D02*
X43900000Y-57300000D01*
X54144398Y-57200000D02*
X54044398Y-57300000D01*
X57000000Y-57200000D02*
X54144398Y-57200000D01*
X59000000Y-59200000D02*
X57000000Y-57200000D01*
X63800000Y-59200000D02*
X59000000Y-59200000D01*
X63800000Y-59200000D02*
X63945000Y-59055000D01*
X46000000Y-55800000D02*
X45700000Y-56100000D01*
X49397102Y-55800000D02*
X46000000Y-55800000D01*
X56698551Y-48498551D02*
X49397102Y-55800000D01*
X56698551Y-47801449D02*
X56698551Y-48498551D01*
X58200000Y-46300000D02*
X56698551Y-47801449D01*
X63300000Y-46300000D02*
X58200000Y-46300000D01*
X66000000Y-49000000D02*
X63300000Y-46300000D01*
X66000000Y-58300000D02*
X66000000Y-49000000D01*
X64400000Y-59900000D02*
X66000000Y-58300000D01*
X60940000Y-59900000D02*
X64400000Y-59900000D01*
X60940000Y-59900000D02*
X60515000Y-60325000D01*
X49200000Y-56500000D02*
X48500000Y-56500000D01*
X57500000Y-48200000D02*
X49200000Y-56500000D01*
X46800000Y-54844398D02*
X45144398Y-54844398D01*
X60515000Y-61595000D02*
X61220000Y-62300000D01*
X61220000Y-62300000D02*
X64600000Y-62300000D01*
X64600000Y-62300000D02*
X66711204Y-60188796D01*
X66711204Y-60188796D02*
X66711204Y-48705408D01*
X66711204Y-48705408D02*
X63594592Y-45588796D01*
X63594592Y-45588796D02*
X57905408Y-45588796D01*
X57905408Y-45588796D02*
X55987347Y-47506857D01*
X55987347Y-47506857D02*
X55987347Y-48203959D01*
X55987347Y-48203959D02*
X49346908Y-54844398D01*
X46800000Y-54844398D02*
X49346908Y-54844398D01*
X40900000Y-53600000D02*
X40700000Y-53400000D01*
X43900000Y-53600000D02*
X40900000Y-53600000D01*
X45144398Y-54844398D02*
X43900000Y-53600000D01*
X44200000Y-55200000D02*
X43300000Y-54300000D01*
X49494204Y-55200000D02*
X44200000Y-55200000D01*
X56342949Y-48351255D02*
X49494204Y-55200000D01*
X56342949Y-47654153D02*
X56342949Y-48351255D01*
X58052704Y-45944398D02*
X56342949Y-47654153D01*
X63447296Y-45944398D02*
X58052704Y-45944398D01*
X66355602Y-48852704D02*
X63447296Y-45944398D01*
X66355602Y-59184398D02*
X66355602Y-48852704D01*
X66355602Y-59184398D02*
X63945000Y-61595000D01*
X45700000Y-53800000D02*
X46100000Y-54200000D01*
X49900000Y-51200000D02*
X46900000Y-54200000D01*
X46900000Y-54200000D02*
X46100000Y-54200000D01*
X66065000Y-62865000D02*
X66100000Y-62900000D01*
X60515000Y-62865000D02*
X60650000Y-63000000D01*
X60515000Y-62865000D02*
X66065000Y-62865000D01*
X45700000Y-53800000D02*
X45700000Y-53500000D01*
X58200000Y-44100000D02*
X57800000Y-44100000D01*
X66500000Y-64800000D02*
X63100000Y-64800000D01*
X62400000Y-64100000D02*
X63100000Y-64800000D01*
X60550000Y-64100000D02*
X62400000Y-64100000D01*
X60515000Y-64135000D02*
X60550000Y-64100000D01*
X42000000Y-51000000D02*
X40700000Y-51000000D01*
X43255602Y-49744398D02*
X42000000Y-51000000D01*
X52241112Y-49744398D02*
X43255602Y-49744398D01*
X56500000Y-45485510D02*
X52241112Y-49744398D01*
X56500000Y-44200000D02*
X56500000Y-45485510D01*
X56900000Y-43800000D02*
X56500000Y-44200000D01*
X57500000Y-43800000D02*
X56900000Y-43800000D01*
X57800000Y-44100000D02*
X57500000Y-43800000D01*
X63945000Y-64135000D02*
X64080000Y-64000000D01*
X64080000Y-64000000D02*
X67000000Y-64000000D01*
X57200000Y-45288408D02*
X57200000Y-44500000D01*
X52388408Y-50100000D02*
X57200000Y-45288408D01*
X43880000Y-50100000D02*
X52388408Y-50100000D01*
X43880000Y-50100000D02*
X43180000Y-50800000D01*
X60800000Y-65400000D02*
X66100000Y-65400000D01*
X45720000Y-50800000D02*
X46020000Y-50500000D01*
X46020000Y-50500000D02*
X52491306Y-50500000D01*
X52491306Y-50500000D02*
X57758112Y-45233194D01*
X57758112Y-45233194D02*
X63741888Y-45233194D01*
X63741888Y-45233194D02*
X67066806Y-48558112D01*
X67066806Y-48558112D02*
X67066806Y-63066806D01*
X67066806Y-63066806D02*
X67700000Y-63700000D01*
X67700000Y-63700000D02*
X67700000Y-64800000D01*
X67400000Y-65100000D02*
X67100000Y-65400000D01*
X67700000Y-64800000D02*
X67400000Y-65100000D01*
X67000000Y-65500000D02*
X67100000Y-65400000D01*
X66200000Y-65500000D02*
X67000000Y-65500000D01*
X66100000Y-65400000D02*
X66200000Y-65500000D01*
X60515000Y-66675000D02*
X61380602Y-66675000D01*
X60500000Y-66690000D02*
X60515000Y-66675000D01*
X60500000Y-66700000D02*
X60500000Y-66690000D01*
X40988796Y-49388796D02*
X40700000Y-49100000D01*
X52093816Y-49388796D02*
X40988796Y-49388796D01*
X56144398Y-45338214D02*
X52093816Y-49388796D01*
X56144398Y-44052704D02*
X56144398Y-45338214D01*
X56752704Y-43444398D02*
X56144398Y-44052704D01*
X62455990Y-43444398D02*
X56752704Y-43444398D01*
X67422408Y-48410816D02*
X62455990Y-43444398D01*
X67422408Y-62919510D02*
X67422408Y-48410816D01*
X68055602Y-63552704D02*
X67422408Y-62919510D01*
X68055602Y-64947296D02*
X68055602Y-63552704D01*
X67102898Y-65900000D02*
X68055602Y-64947296D01*
X62155602Y-65900000D02*
X67102898Y-65900000D01*
X61380602Y-66675000D02*
X62155602Y-65900000D01*
X63945000Y-66675000D02*
X66830796Y-66675000D01*
X63920000Y-66700000D02*
X63945000Y-66675000D01*
X63900000Y-66700000D02*
X63920000Y-66700000D01*
X43633194Y-49033194D02*
X43200000Y-48600000D01*
X51946520Y-49033194D02*
X43633194Y-49033194D01*
X55788796Y-45190918D02*
X51946520Y-49033194D01*
X55788796Y-43905408D02*
X55788796Y-45190918D01*
X56605408Y-43088796D02*
X55788796Y-43905408D01*
X62603286Y-43088796D02*
X56605408Y-43088796D01*
X67778010Y-48263520D02*
X62603286Y-43088796D01*
X67778010Y-62772214D02*
X67778010Y-48263520D01*
X68411204Y-63405408D02*
X67778010Y-62772214D01*
X68411204Y-65094592D02*
X68411204Y-63405408D01*
X66830796Y-66675000D02*
X68411204Y-65094592D01*
X60515000Y-67945000D02*
X66063694Y-67945000D01*
X60500000Y-67960000D02*
X60515000Y-67945000D01*
X60500000Y-68000000D02*
X60500000Y-67960000D01*
X52176816Y-48300000D02*
X45700000Y-48300000D01*
X55400000Y-45076816D02*
X52176816Y-48300000D01*
X55400000Y-43791306D02*
X55400000Y-45076816D01*
X56458112Y-42733194D02*
X55400000Y-43791306D01*
X62750582Y-42733194D02*
X56458112Y-42733194D01*
X68133612Y-48116224D02*
X62750582Y-42733194D01*
X68133612Y-62500000D02*
X68133612Y-48116224D01*
X68766806Y-63133194D02*
X68133612Y-62500000D01*
X68766806Y-65241888D02*
X68766806Y-63133194D01*
X66063694Y-67945000D02*
X68766806Y-65241888D01*
X51900000Y-46700000D02*
X40800000Y-46700000D01*
X56222408Y-42377592D02*
X51900000Y-46700000D01*
X62897878Y-42377592D02*
X56222408Y-42377592D01*
X69200000Y-48679714D02*
X62897878Y-42377592D01*
X69200000Y-65311592D02*
X69200000Y-48679714D01*
X66210990Y-68300602D02*
X69200000Y-65311592D01*
X61429398Y-68300602D02*
X66210990Y-68300602D01*
X61429398Y-68300602D02*
X60515000Y-69215000D01*
X52097102Y-46000000D02*
X43100000Y-46000000D01*
X56075112Y-42021990D02*
X52097102Y-46000000D01*
X63045174Y-42021990D02*
X56075112Y-42021990D01*
X69555602Y-48532418D02*
X63045174Y-42021990D01*
X69555602Y-65458888D02*
X69555602Y-48532418D01*
X66114490Y-68900000D02*
X69555602Y-65458888D01*
X64260000Y-68900000D02*
X66114490Y-68900000D01*
X64260000Y-68900000D02*
X63945000Y-69215000D01*
X52294204Y-45300000D02*
X45700000Y-45300000D01*
X55927816Y-41666388D02*
X52294204Y-45300000D01*
X63366388Y-41666388D02*
X55927816Y-41666388D01*
X69911204Y-48211204D02*
X63366388Y-41666388D01*
X69911204Y-65606184D02*
X69911204Y-48211204D01*
X65617388Y-69900000D02*
X69911204Y-65606184D01*
X61100000Y-69900000D02*
X65617388Y-69900000D01*
X61100000Y-69900000D02*
X60515000Y-70485000D01*
X41300000Y-44600000D02*
X40700000Y-44000000D01*
X52491306Y-44600000D02*
X41300000Y-44600000D01*
X55780520Y-41310786D02*
X52491306Y-44600000D01*
X63513684Y-41310786D02*
X55780520Y-41310786D01*
X70266806Y-48063908D02*
X63513684Y-41310786D01*
X70266806Y-65753480D02*
X70266806Y-48063908D01*
X65764684Y-70255602D02*
X70266806Y-65753480D01*
X62014398Y-70255602D02*
X65764684Y-70255602D01*
X62014398Y-70255602D02*
X60515000Y-71755000D01*
X52688408Y-43900000D02*
X43300000Y-43900000D01*
X55633224Y-40955184D02*
X52688408Y-43900000D01*
X63660980Y-40955184D02*
X55633224Y-40955184D01*
X70622408Y-47916612D02*
X63660980Y-40955184D01*
X70622408Y-65900776D02*
X70622408Y-47916612D01*
X65123184Y-71400000D02*
X70622408Y-65900776D01*
X64300000Y-71400000D02*
X65123184Y-71400000D01*
X64300000Y-71400000D02*
X63945000Y-71755000D01*
X52985510Y-43100000D02*
X45800000Y-43100000D01*
X55485928Y-40599582D02*
X52985510Y-43100000D01*
X63899582Y-40599582D02*
X55485928Y-40599582D01*
X70978010Y-47678010D02*
X63899582Y-40599582D01*
X70978010Y-66048072D02*
X70978010Y-47678010D01*
X64226082Y-72800000D02*
X70978010Y-66048072D01*
X60740000Y-72800000D02*
X64226082Y-72800000D01*
X60740000Y-72800000D02*
X60515000Y-73025000D01*
X74550000Y-67350000D02*
X73050000Y-67350000D01*
X60600000Y-74400000D02*
X57500000Y-74400000D01*
X61700000Y-73300000D02*
X60600000Y-74400000D01*
X67100000Y-73300000D02*
X61700000Y-73300000D01*
X73050000Y-67350000D02*
X67100000Y-73300000D01*
X84300000Y-82100000D02*
X84300000Y-84500000D01*
X84300000Y-84500000D02*
X84400000Y-84600000D01*
X84300000Y-77100000D02*
X84300000Y-82100000D01*
X71900000Y-64700000D02*
X74550000Y-67350000D01*
X74550000Y-67350000D02*
X84300000Y-77100000D01*
X71900000Y-46100000D02*
X71900000Y-64700000D01*
X72100000Y-45900000D02*
X71900000Y-46100000D01*
D13*
G36*
X112785600Y-42925895D02*
X112639864Y-42573188D01*
X112328451Y-42261231D01*
X111921362Y-42092193D01*
X111480572Y-42091808D01*
X111073188Y-42260136D01*
X110761231Y-42571549D01*
X110631449Y-42884100D01*
X110308102Y-42884100D01*
X110308192Y-42780572D01*
X110139864Y-42373188D01*
X109828451Y-42061231D01*
X109421362Y-41892193D01*
X108980572Y-41891808D01*
X108573188Y-42060136D01*
X108449007Y-42184100D01*
X107808102Y-42184100D01*
X107808192Y-42080572D01*
X107639864Y-41673188D01*
X107328451Y-41361231D01*
X106921362Y-41192193D01*
X106480572Y-41191808D01*
X106073188Y-41360136D01*
X105949007Y-41484100D01*
X100200000Y-41484100D01*
X99887769Y-41546207D01*
X99623072Y-41723071D01*
X93554184Y-47791960D01*
X93380572Y-47791808D01*
X92973188Y-47960136D01*
X92661231Y-48271549D01*
X92492193Y-48678638D01*
X92492101Y-48784100D01*
X87600000Y-48784100D01*
X87339571Y-48835903D01*
X87287768Y-48846207D01*
X87023071Y-49023072D01*
X86954183Y-49091960D01*
X86780572Y-49091808D01*
X86402062Y-49248205D01*
X85476928Y-48323072D01*
X85212231Y-48146207D01*
X85187094Y-48141207D01*
X84900000Y-48084100D01*
X77349885Y-48084100D01*
X77353974Y-48080018D01*
X77561763Y-47579607D01*
X77561765Y-47577230D01*
X88807764Y-47577230D01*
X89014679Y-48078003D01*
X89397482Y-48461474D01*
X89897893Y-48669263D01*
X90439730Y-48669736D01*
X90940503Y-48462821D01*
X91323974Y-48080018D01*
X91531763Y-47579607D01*
X91532236Y-47037770D01*
X91325321Y-46536997D01*
X90942518Y-46153526D01*
X90442107Y-45945737D01*
X89900270Y-45945264D01*
X89399497Y-46152179D01*
X89016026Y-46534982D01*
X88808237Y-47035393D01*
X88807764Y-47577230D01*
X77561765Y-47577230D01*
X77562236Y-47037770D01*
X77355321Y-46536997D01*
X76972518Y-46153526D01*
X76472107Y-45945737D01*
X75930270Y-45945264D01*
X75429497Y-46152179D01*
X75046026Y-46534982D01*
X74838237Y-47035393D01*
X74837764Y-47577230D01*
X74969700Y-47896541D01*
X74706362Y-47787193D01*
X74265572Y-47786808D01*
X73858188Y-47955136D01*
X73546231Y-48266549D01*
X73377193Y-48673638D01*
X73376808Y-49114428D01*
X73545136Y-49521812D01*
X73553051Y-49529741D01*
X73546231Y-49536549D01*
X73377193Y-49943638D01*
X73376808Y-50384428D01*
X73545136Y-50791812D01*
X73553051Y-50799741D01*
X73546231Y-50806549D01*
X73377193Y-51213638D01*
X73376808Y-51654428D01*
X73545136Y-52061812D01*
X73553051Y-52069741D01*
X73546231Y-52076549D01*
X73377193Y-52483638D01*
X73376808Y-52924428D01*
X73545136Y-53331812D01*
X73553051Y-53339741D01*
X73546231Y-53346549D01*
X73377193Y-53753638D01*
X73376808Y-54194428D01*
X73545136Y-54601812D01*
X73553051Y-54609741D01*
X73546231Y-54616549D01*
X73377193Y-55023638D01*
X73376808Y-55464428D01*
X73545136Y-55871812D01*
X73553051Y-55879741D01*
X73546231Y-55886549D01*
X73377193Y-56293638D01*
X73376808Y-56734428D01*
X73545136Y-57141812D01*
X73553051Y-57149741D01*
X73546231Y-57156549D01*
X73377193Y-57563638D01*
X73376808Y-58004428D01*
X73545136Y-58411812D01*
X73553051Y-58419741D01*
X73546231Y-58426549D01*
X73377193Y-58833638D01*
X73376808Y-59274428D01*
X73545136Y-59681812D01*
X73553051Y-59689741D01*
X73546231Y-59696549D01*
X73377193Y-60103638D01*
X73376808Y-60544428D01*
X73545136Y-60951812D01*
X73856549Y-61263769D01*
X74263638Y-61432807D01*
X74704428Y-61433192D01*
X75111812Y-61264864D01*
X75261036Y-61115900D01*
X80461626Y-61115900D01*
X82183682Y-62837957D01*
X82183682Y-74625664D01*
X82243584Y-74926812D01*
X82245789Y-74937895D01*
X82422654Y-75202592D01*
X86752592Y-79532530D01*
X87017288Y-79709395D01*
X87031546Y-79712231D01*
X87329520Y-79771502D01*
X99491937Y-79771502D01*
X99491808Y-79919428D01*
X99660136Y-80326812D01*
X99971549Y-80638769D01*
X100378638Y-80807807D01*
X100619261Y-80808017D01*
X100687769Y-80853793D01*
X101000000Y-80915900D01*
X103100000Y-80915900D01*
X103412231Y-80853793D01*
X103676928Y-80676928D01*
X104482355Y-79871502D01*
X111391206Y-79871502D01*
X111478638Y-79907807D01*
X111919428Y-79908192D01*
X112326812Y-79739864D01*
X112638769Y-79428451D01*
X112785600Y-79074842D01*
X112785600Y-85036100D01*
X81888371Y-85036100D01*
X81976928Y-84976928D01*
X83476928Y-83476929D01*
X83653793Y-83212232D01*
X83678396Y-83088545D01*
X83838769Y-82928451D01*
X84007807Y-82521362D01*
X84008192Y-82080572D01*
X83839864Y-81673188D01*
X83528451Y-81361231D01*
X83121362Y-81192193D01*
X82758869Y-81191876D01*
X82628451Y-81061231D01*
X82221362Y-80892193D01*
X82195358Y-80892170D01*
X82307807Y-80621362D01*
X82308192Y-80180572D01*
X82139864Y-79773188D01*
X81914101Y-79547031D01*
X82007807Y-79321362D01*
X82008192Y-78880572D01*
X81839864Y-78473188D01*
X81672752Y-78305784D01*
X81707807Y-78221362D01*
X81708192Y-77780572D01*
X81539864Y-77373188D01*
X81228451Y-77061231D01*
X80821362Y-76892193D01*
X80380572Y-76891808D01*
X79973188Y-77060136D01*
X79950233Y-77083051D01*
X79928451Y-77061231D01*
X79911182Y-77054060D01*
X80007807Y-76821362D01*
X80008192Y-76380572D01*
X79839864Y-75973188D01*
X79528451Y-75661231D01*
X79121362Y-75492193D01*
X78945896Y-75492040D01*
X78576928Y-75123072D01*
X78312231Y-74946207D01*
X78000000Y-74884100D01*
X77561763Y-74884100D01*
X77562236Y-74342770D01*
X77430300Y-74023459D01*
X77693638Y-74132807D01*
X78134428Y-74133192D01*
X78541812Y-73964864D01*
X78853769Y-73653451D01*
X79022807Y-73246362D01*
X79023192Y-72805572D01*
X78854864Y-72398188D01*
X78543451Y-72086231D01*
X78136362Y-71917193D01*
X77960896Y-71917040D01*
X77666928Y-71623072D01*
X77402231Y-71446207D01*
X77384947Y-71442769D01*
X77090000Y-71384100D01*
X69300000Y-71384100D01*
X69005053Y-71442769D01*
X68987769Y-71446207D01*
X68723072Y-71623072D01*
X65806860Y-74539284D01*
X65519092Y-74539284D01*
X65206861Y-74601391D01*
X64942164Y-74778255D01*
X64614748Y-75105672D01*
X63499969Y-75105672D01*
X63591763Y-74884607D01*
X63592236Y-74342770D01*
X63385321Y-73841997D01*
X63159618Y-73615900D01*
X64226082Y-73615900D01*
X64538313Y-73553793D01*
X64803010Y-73376928D01*
X71554938Y-66625001D01*
X71731803Y-66360304D01*
X71746231Y-66287769D01*
X71793910Y-66048072D01*
X71793910Y-47678010D01*
X71731803Y-47365779D01*
X71705766Y-47326812D01*
X71554939Y-47101082D01*
X64476510Y-40022654D01*
X64211813Y-39845789D01*
X63899582Y-39783682D01*
X55485928Y-39783682D01*
X55225499Y-39835485D01*
X55173696Y-39845789D01*
X54909000Y-40022654D01*
X52647554Y-42284100D01*
X46551106Y-42284100D01*
X46428451Y-42161231D01*
X46021362Y-41992193D01*
X45580572Y-41991808D01*
X45173188Y-42160136D01*
X44861231Y-42471549D01*
X44692193Y-42878638D01*
X44692014Y-43084100D01*
X44051106Y-43084100D01*
X43928451Y-42961231D01*
X43521362Y-42792193D01*
X43080572Y-42791808D01*
X42673188Y-42960136D01*
X42361231Y-43271549D01*
X42192193Y-43678638D01*
X42192101Y-43784100D01*
X41808189Y-43784100D01*
X41808192Y-43780572D01*
X41639864Y-43373188D01*
X41328451Y-43061231D01*
X40921362Y-42892193D01*
X40480572Y-42891808D01*
X40073188Y-43060136D01*
X39761231Y-43371549D01*
X39614400Y-43725158D01*
X39614400Y-36883900D01*
X112785600Y-36883900D01*
X112785600Y-42925895D01*
X112785600Y-42925895D01*
G37*
X112785600Y-42925895D02*
X112639864Y-42573188D01*
X112328451Y-42261231D01*
X111921362Y-42092193D01*
X111480572Y-42091808D01*
X111073188Y-42260136D01*
X110761231Y-42571549D01*
X110631449Y-42884100D01*
X110308102Y-42884100D01*
X110308192Y-42780572D01*
X110139864Y-42373188D01*
X109828451Y-42061231D01*
X109421362Y-41892193D01*
X108980572Y-41891808D01*
X108573188Y-42060136D01*
X108449007Y-42184100D01*
X107808102Y-42184100D01*
X107808192Y-42080572D01*
X107639864Y-41673188D01*
X107328451Y-41361231D01*
X106921362Y-41192193D01*
X106480572Y-41191808D01*
X106073188Y-41360136D01*
X105949007Y-41484100D01*
X100200000Y-41484100D01*
X99887769Y-41546207D01*
X99623072Y-41723071D01*
X93554184Y-47791960D01*
X93380572Y-47791808D01*
X92973188Y-47960136D01*
X92661231Y-48271549D01*
X92492193Y-48678638D01*
X92492101Y-48784100D01*
X87600000Y-48784100D01*
X87339571Y-48835903D01*
X87287768Y-48846207D01*
X87023071Y-49023072D01*
X86954183Y-49091960D01*
X86780572Y-49091808D01*
X86402062Y-49248205D01*
X85476928Y-48323072D01*
X85212231Y-48146207D01*
X85187094Y-48141207D01*
X84900000Y-48084100D01*
X77349885Y-48084100D01*
X77353974Y-48080018D01*
X77561763Y-47579607D01*
X77561765Y-47577230D01*
X88807764Y-47577230D01*
X89014679Y-48078003D01*
X89397482Y-48461474D01*
X89897893Y-48669263D01*
X90439730Y-48669736D01*
X90940503Y-48462821D01*
X91323974Y-48080018D01*
X91531763Y-47579607D01*
X91532236Y-47037770D01*
X91325321Y-46536997D01*
X90942518Y-46153526D01*
X90442107Y-45945737D01*
X89900270Y-45945264D01*
X89399497Y-46152179D01*
X89016026Y-46534982D01*
X88808237Y-47035393D01*
X88807764Y-47577230D01*
X77561765Y-47577230D01*
X77562236Y-47037770D01*
X77355321Y-46536997D01*
X76972518Y-46153526D01*
X76472107Y-45945737D01*
X75930270Y-45945264D01*
X75429497Y-46152179D01*
X75046026Y-46534982D01*
X74838237Y-47035393D01*
X74837764Y-47577230D01*
X74969700Y-47896541D01*
X74706362Y-47787193D01*
X74265572Y-47786808D01*
X73858188Y-47955136D01*
X73546231Y-48266549D01*
X73377193Y-48673638D01*
X73376808Y-49114428D01*
X73545136Y-49521812D01*
X73553051Y-49529741D01*
X73546231Y-49536549D01*
X73377193Y-49943638D01*
X73376808Y-50384428D01*
X73545136Y-50791812D01*
X73553051Y-50799741D01*
X73546231Y-50806549D01*
X73377193Y-51213638D01*
X73376808Y-51654428D01*
X73545136Y-52061812D01*
X73553051Y-52069741D01*
X73546231Y-52076549D01*
X73377193Y-52483638D01*
X73376808Y-52924428D01*
X73545136Y-53331812D01*
X73553051Y-53339741D01*
X73546231Y-53346549D01*
X73377193Y-53753638D01*
X73376808Y-54194428D01*
X73545136Y-54601812D01*
X73553051Y-54609741D01*
X73546231Y-54616549D01*
X73377193Y-55023638D01*
X73376808Y-55464428D01*
X73545136Y-55871812D01*
X73553051Y-55879741D01*
X73546231Y-55886549D01*
X73377193Y-56293638D01*
X73376808Y-56734428D01*
X73545136Y-57141812D01*
X73553051Y-57149741D01*
X73546231Y-57156549D01*
X73377193Y-57563638D01*
X73376808Y-58004428D01*
X73545136Y-58411812D01*
X73553051Y-58419741D01*
X73546231Y-58426549D01*
X73377193Y-58833638D01*
X73376808Y-59274428D01*
X73545136Y-59681812D01*
X73553051Y-59689741D01*
X73546231Y-59696549D01*
X73377193Y-60103638D01*
X73376808Y-60544428D01*
X73545136Y-60951812D01*
X73856549Y-61263769D01*
X74263638Y-61432807D01*
X74704428Y-61433192D01*
X75111812Y-61264864D01*
X75261036Y-61115900D01*
X80461626Y-61115900D01*
X82183682Y-62837957D01*
X82183682Y-74625664D01*
X82243584Y-74926812D01*
X82245789Y-74937895D01*
X82422654Y-75202592D01*
X86752592Y-79532530D01*
X87017288Y-79709395D01*
X87031546Y-79712231D01*
X87329520Y-79771502D01*
X99491937Y-79771502D01*
X99491808Y-79919428D01*
X99660136Y-80326812D01*
X99971549Y-80638769D01*
X100378638Y-80807807D01*
X100619261Y-80808017D01*
X100687769Y-80853793D01*
X101000000Y-80915900D01*
X103100000Y-80915900D01*
X103412231Y-80853793D01*
X103676928Y-80676928D01*
X104482355Y-79871502D01*
X111391206Y-79871502D01*
X111478638Y-79907807D01*
X111919428Y-79908192D01*
X112326812Y-79739864D01*
X112638769Y-79428451D01*
X112785600Y-79074842D01*
X112785600Y-85036100D01*
X81888371Y-85036100D01*
X81976928Y-84976928D01*
X83476928Y-83476929D01*
X83653793Y-83212232D01*
X83678396Y-83088545D01*
X83838769Y-82928451D01*
X84007807Y-82521362D01*
X84008192Y-82080572D01*
X83839864Y-81673188D01*
X83528451Y-81361231D01*
X83121362Y-81192193D01*
X82758869Y-81191876D01*
X82628451Y-81061231D01*
X82221362Y-80892193D01*
X82195358Y-80892170D01*
X82307807Y-80621362D01*
X82308192Y-80180572D01*
X82139864Y-79773188D01*
X81914101Y-79547031D01*
X82007807Y-79321362D01*
X82008192Y-78880572D01*
X81839864Y-78473188D01*
X81672752Y-78305784D01*
X81707807Y-78221362D01*
X81708192Y-77780572D01*
X81539864Y-77373188D01*
X81228451Y-77061231D01*
X80821362Y-76892193D01*
X80380572Y-76891808D01*
X79973188Y-77060136D01*
X79950233Y-77083051D01*
X79928451Y-77061231D01*
X79911182Y-77054060D01*
X80007807Y-76821362D01*
X80008192Y-76380572D01*
X79839864Y-75973188D01*
X79528451Y-75661231D01*
X79121362Y-75492193D01*
X78945896Y-75492040D01*
X78576928Y-75123072D01*
X78312231Y-74946207D01*
X78000000Y-74884100D01*
X77561763Y-74884100D01*
X77562236Y-74342770D01*
X77430300Y-74023459D01*
X77693638Y-74132807D01*
X78134428Y-74133192D01*
X78541812Y-73964864D01*
X78853769Y-73653451D01*
X79022807Y-73246362D01*
X79023192Y-72805572D01*
X78854864Y-72398188D01*
X78543451Y-72086231D01*
X78136362Y-71917193D01*
X77960896Y-71917040D01*
X77666928Y-71623072D01*
X77402231Y-71446207D01*
X77384947Y-71442769D01*
X77090000Y-71384100D01*
X69300000Y-71384100D01*
X69005053Y-71442769D01*
X68987769Y-71446207D01*
X68723072Y-71623072D01*
X65806860Y-74539284D01*
X65519092Y-74539284D01*
X65206861Y-74601391D01*
X64942164Y-74778255D01*
X64614748Y-75105672D01*
X63499969Y-75105672D01*
X63591763Y-74884607D01*
X63592236Y-74342770D01*
X63385321Y-73841997D01*
X63159618Y-73615900D01*
X64226082Y-73615900D01*
X64538313Y-73553793D01*
X64803010Y-73376928D01*
X71554938Y-66625001D01*
X71731803Y-66360304D01*
X71746231Y-66287769D01*
X71793910Y-66048072D01*
X71793910Y-47678010D01*
X71731803Y-47365779D01*
X71705766Y-47326812D01*
X71554939Y-47101082D01*
X64476510Y-40022654D01*
X64211813Y-39845789D01*
X63899582Y-39783682D01*
X55485928Y-39783682D01*
X55225499Y-39835485D01*
X55173696Y-39845789D01*
X54909000Y-40022654D01*
X52647554Y-42284100D01*
X46551106Y-42284100D01*
X46428451Y-42161231D01*
X46021362Y-41992193D01*
X45580572Y-41991808D01*
X45173188Y-42160136D01*
X44861231Y-42471549D01*
X44692193Y-42878638D01*
X44692014Y-43084100D01*
X44051106Y-43084100D01*
X43928451Y-42961231D01*
X43521362Y-42792193D01*
X43080572Y-42791808D01*
X42673188Y-42960136D01*
X42361231Y-43271549D01*
X42192193Y-43678638D01*
X42192101Y-43784100D01*
X41808189Y-43784100D01*
X41808192Y-43780572D01*
X41639864Y-43373188D01*
X41328451Y-43061231D01*
X40921362Y-42892193D01*
X40480572Y-42891808D01*
X40073188Y-43060136D01*
X39761231Y-43371549D01*
X39614400Y-43725158D01*
X39614400Y-36883900D01*
X112785600Y-36883900D01*
X112785600Y-42925895D01*
G36*
X39660136Y-80326812D02*
X39971549Y-80638769D01*
X40378638Y-80807807D01*
X40554104Y-80807960D01*
X43723071Y-83976928D01*
X43987768Y-84153793D01*
X44039571Y-84164097D01*
X44300000Y-84215900D01*
X68648720Y-84215900D01*
X68671549Y-84238769D01*
X69078638Y-84407807D01*
X69519428Y-84408192D01*
X69926812Y-84239864D01*
X70106566Y-84060423D01*
X71023071Y-84976928D01*
X71111628Y-85036100D01*
X39614400Y-85036100D01*
X39614400Y-80216123D01*
X39660136Y-80326812D01*
X39660136Y-80326812D01*
G37*
X39660136Y-80326812D02*
X39971549Y-80638769D01*
X40378638Y-80807807D01*
X40554104Y-80807960D01*
X43723071Y-83976928D01*
X43987768Y-84153793D01*
X44039571Y-84164097D01*
X44300000Y-84215900D01*
X68648720Y-84215900D01*
X68671549Y-84238769D01*
X69078638Y-84407807D01*
X69519428Y-84408192D01*
X69926812Y-84239864D01*
X70106566Y-84060423D01*
X71023071Y-84976928D01*
X71111628Y-85036100D01*
X39614400Y-85036100D01*
X39614400Y-80216123D01*
X39660136Y-80326812D01*
G36*
X58687768Y-59953793D02*
X58719657Y-59960136D01*
X59000000Y-60015900D01*
X59443625Y-60015900D01*
X59407193Y-60103638D01*
X59406808Y-60544428D01*
X59575136Y-60951812D01*
X59583051Y-60959741D01*
X59576231Y-60966549D01*
X59407193Y-61373638D01*
X59406808Y-61814428D01*
X59575136Y-62221812D01*
X59583051Y-62229741D01*
X59576231Y-62236549D01*
X59407193Y-62643638D01*
X59406808Y-63084428D01*
X59575136Y-63491812D01*
X59583051Y-63499741D01*
X59576231Y-63506549D01*
X59407193Y-63913638D01*
X59406808Y-64354428D01*
X59575136Y-64761812D01*
X59780041Y-64967075D01*
X59692193Y-65178638D01*
X59691808Y-65619428D01*
X59783003Y-65840137D01*
X59576231Y-66046549D01*
X59407193Y-66453638D01*
X59406808Y-66894428D01*
X59575136Y-67301812D01*
X59583051Y-67309741D01*
X59576231Y-67316549D01*
X59407193Y-67723638D01*
X59406808Y-68164428D01*
X59575136Y-68571812D01*
X59583051Y-68579741D01*
X59576231Y-68586549D01*
X59407193Y-68993638D01*
X59406808Y-69434428D01*
X59575136Y-69841812D01*
X59583051Y-69849741D01*
X59576231Y-69856549D01*
X59407193Y-70263638D01*
X59406808Y-70704428D01*
X59575136Y-71111812D01*
X59583051Y-71119741D01*
X59576231Y-71126549D01*
X59407193Y-71533638D01*
X59406808Y-71974428D01*
X59575136Y-72381812D01*
X59583051Y-72389741D01*
X59576231Y-72396549D01*
X59407193Y-72803638D01*
X59406808Y-73244428D01*
X59575136Y-73651812D01*
X59886549Y-73963769D01*
X60293638Y-74132807D01*
X60734428Y-74133192D01*
X60999806Y-74023540D01*
X60868237Y-74340393D01*
X60867764Y-74882230D01*
X60960088Y-75105672D01*
X55868223Y-75105672D01*
X49970612Y-69208062D01*
X50119428Y-69208192D01*
X50526812Y-69039864D01*
X50838769Y-68728451D01*
X50888716Y-68608165D01*
X50919428Y-68608192D01*
X51326812Y-68439864D01*
X51638769Y-68128451D01*
X51807807Y-67721362D01*
X51807994Y-67507833D01*
X52219428Y-67508192D01*
X52626812Y-67339864D01*
X52938769Y-67028451D01*
X53107807Y-66621362D01*
X53108192Y-66180572D01*
X53055119Y-66052126D01*
X53326812Y-65939864D01*
X53638769Y-65628451D01*
X53807807Y-65221362D01*
X53807906Y-65108095D01*
X53919428Y-65108192D01*
X54326812Y-64939864D01*
X54638769Y-64628451D01*
X54807807Y-64221362D01*
X54808192Y-63780572D01*
X54778234Y-63708069D01*
X54919428Y-63708192D01*
X55326812Y-63539864D01*
X55638769Y-63228451D01*
X55807807Y-62821362D01*
X55808081Y-62508095D01*
X55919428Y-62508192D01*
X56326812Y-62339864D01*
X56638769Y-62028451D01*
X56807807Y-61621362D01*
X56808081Y-61308095D01*
X56919428Y-61308192D01*
X57326812Y-61139864D01*
X57638769Y-60828451D01*
X57807807Y-60421362D01*
X57807850Y-60371657D01*
X58126812Y-60239864D01*
X58438769Y-59928451D01*
X58484612Y-59818048D01*
X58687768Y-59953793D01*
X58687768Y-59953793D01*
G37*
X58687768Y-59953793D02*
X58719657Y-59960136D01*
X59000000Y-60015900D01*
X59443625Y-60015900D01*
X59407193Y-60103638D01*
X59406808Y-60544428D01*
X59575136Y-60951812D01*
X59583051Y-60959741D01*
X59576231Y-60966549D01*
X59407193Y-61373638D01*
X59406808Y-61814428D01*
X59575136Y-62221812D01*
X59583051Y-62229741D01*
X59576231Y-62236549D01*
X59407193Y-62643638D01*
X59406808Y-63084428D01*
X59575136Y-63491812D01*
X59583051Y-63499741D01*
X59576231Y-63506549D01*
X59407193Y-63913638D01*
X59406808Y-64354428D01*
X59575136Y-64761812D01*
X59780041Y-64967075D01*
X59692193Y-65178638D01*
X59691808Y-65619428D01*
X59783003Y-65840137D01*
X59576231Y-66046549D01*
X59407193Y-66453638D01*
X59406808Y-66894428D01*
X59575136Y-67301812D01*
X59583051Y-67309741D01*
X59576231Y-67316549D01*
X59407193Y-67723638D01*
X59406808Y-68164428D01*
X59575136Y-68571812D01*
X59583051Y-68579741D01*
X59576231Y-68586549D01*
X59407193Y-68993638D01*
X59406808Y-69434428D01*
X59575136Y-69841812D01*
X59583051Y-69849741D01*
X59576231Y-69856549D01*
X59407193Y-70263638D01*
X59406808Y-70704428D01*
X59575136Y-71111812D01*
X59583051Y-71119741D01*
X59576231Y-71126549D01*
X59407193Y-71533638D01*
X59406808Y-71974428D01*
X59575136Y-72381812D01*
X59583051Y-72389741D01*
X59576231Y-72396549D01*
X59407193Y-72803638D01*
X59406808Y-73244428D01*
X59575136Y-73651812D01*
X59886549Y-73963769D01*
X60293638Y-74132807D01*
X60734428Y-74133192D01*
X60999806Y-74023540D01*
X60868237Y-74340393D01*
X60867764Y-74882230D01*
X60960088Y-75105672D01*
X55868223Y-75105672D01*
X49970612Y-69208062D01*
X50119428Y-69208192D01*
X50526812Y-69039864D01*
X50838769Y-68728451D01*
X50888716Y-68608165D01*
X50919428Y-68608192D01*
X51326812Y-68439864D01*
X51638769Y-68128451D01*
X51807807Y-67721362D01*
X51807994Y-67507833D01*
X52219428Y-67508192D01*
X52626812Y-67339864D01*
X52938769Y-67028451D01*
X53107807Y-66621362D01*
X53108192Y-66180572D01*
X53055119Y-66052126D01*
X53326812Y-65939864D01*
X53638769Y-65628451D01*
X53807807Y-65221362D01*
X53807906Y-65108095D01*
X53919428Y-65108192D01*
X54326812Y-64939864D01*
X54638769Y-64628451D01*
X54807807Y-64221362D01*
X54808192Y-63780572D01*
X54778234Y-63708069D01*
X54919428Y-63708192D01*
X55326812Y-63539864D01*
X55638769Y-63228451D01*
X55807807Y-62821362D01*
X55808081Y-62508095D01*
X55919428Y-62508192D01*
X56326812Y-62339864D01*
X56638769Y-62028451D01*
X56807807Y-61621362D01*
X56808081Y-61308095D01*
X56919428Y-61308192D01*
X57326812Y-61139864D01*
X57638769Y-60828451D01*
X57807807Y-60421362D01*
X57807850Y-60371657D01*
X58126812Y-60239864D01*
X58438769Y-59928451D01*
X58484612Y-59818048D01*
X58687768Y-59953793D01*
M02*
