G04 #@! TF.FileFunction,Copper,L2,Bot,Signal*
%FSLAX46Y46*%
G04 Gerber Fmt 4.6, Leading zero omitted, Abs format (unit mm)*
G04 Created by KiCad (PCBNEW 4.0.4-stable) date 04/23/19 17:12:55*
%MOMM*%
%LPD*%
G01*
G04 APERTURE LIST*
%ADD10C,0.150000*%
%ADD11C,0.762000*%
%ADD12C,0.177800*%
%ADD13C,0.254000*%
G04 APERTURE END LIST*
D10*
D11*
X106700000Y-42300000D03*
X93600000Y-48900000D03*
X87000000Y-50200000D03*
X109200000Y-43000000D03*
X111700000Y-43200000D03*
X100800000Y-43900000D03*
X87000000Y-51400000D03*
X102600000Y-44500000D03*
X101900000Y-45200000D03*
X106700000Y-44900000D03*
X87000000Y-52700000D03*
X109200000Y-45000000D03*
X111700000Y-45700000D03*
X101000000Y-46600000D03*
X86900000Y-54000000D03*
X104100000Y-47300000D03*
X106600000Y-47400000D03*
X100200000Y-48000000D03*
X86900000Y-55200000D03*
X109200000Y-47700000D03*
X99300000Y-49400000D03*
X111700000Y-48300000D03*
X86900000Y-56500000D03*
X104100000Y-49900000D03*
X100100000Y-50600000D03*
X106700000Y-49900000D03*
X87000000Y-57800000D03*
X109200000Y-50000000D03*
X97700000Y-52800000D03*
X111800000Y-50700000D03*
X87000000Y-59000000D03*
X104200000Y-52400000D03*
X98900000Y-53600000D03*
X106600000Y-52600000D03*
X87000000Y-60300000D03*
X109200000Y-52500000D03*
X100700000Y-54300000D03*
X111700000Y-53200000D03*
X87000000Y-61600000D03*
X104000000Y-54900000D03*
X98600000Y-55700000D03*
X106600000Y-55100000D03*
X109200000Y-55000000D03*
X87000000Y-62800000D03*
X98500000Y-57100000D03*
X111700000Y-55800000D03*
X104100000Y-57500000D03*
X87000000Y-64100000D03*
X98500000Y-58500000D03*
X106600000Y-57700000D03*
X87000000Y-65400000D03*
X109200000Y-57600000D03*
X98300000Y-59900000D03*
X111800000Y-58400000D03*
X87000000Y-66600000D03*
X104100000Y-60100000D03*
X98000000Y-61300000D03*
X106700000Y-60100000D03*
X109200000Y-60200000D03*
X87000000Y-67900000D03*
X98000000Y-62700000D03*
X111700000Y-60900000D03*
X87000000Y-69200000D03*
X104100000Y-62500000D03*
X97800000Y-64100000D03*
X106600000Y-62800000D03*
X109200000Y-62900000D03*
X87000000Y-70500000D03*
X97800000Y-65500000D03*
X111700000Y-63500000D03*
X87000000Y-71800000D03*
X104100000Y-65200000D03*
X97600000Y-66900000D03*
X106700000Y-65300000D03*
X87000000Y-73000000D03*
X109200000Y-65300000D03*
X97600000Y-68300000D03*
X111700000Y-66000000D03*
X72400000Y-48900000D03*
X100300000Y-67300000D03*
X106600000Y-67700000D03*
X100300000Y-68300000D03*
X109200000Y-67800000D03*
X72400000Y-50200000D03*
X111800000Y-68500000D03*
X101400000Y-69100000D03*
X101400000Y-70100000D03*
X72400000Y-51400000D03*
X106600000Y-70300000D03*
X100700000Y-70800000D03*
X109200000Y-70400000D03*
X72400000Y-52700000D03*
X111800000Y-71000000D03*
X99900000Y-72200000D03*
X100800000Y-72600000D03*
X72400000Y-53900000D03*
X106600000Y-72800000D03*
X99500000Y-73600000D03*
X109200000Y-72900000D03*
X72400000Y-55200000D03*
X111700000Y-73600000D03*
X100700000Y-74400000D03*
X100700000Y-75400000D03*
X72400000Y-56500000D03*
X106600000Y-75400000D03*
X100700000Y-76400000D03*
X109200000Y-75400000D03*
X72400000Y-57800000D03*
X111700000Y-76100000D03*
X102200000Y-76900000D03*
X102100000Y-78000000D03*
X72400000Y-59000000D03*
X106600000Y-78000000D03*
X102200000Y-79000000D03*
X109200000Y-78000000D03*
X72400000Y-60300000D03*
X111700000Y-78800000D03*
X100600000Y-79700000D03*
X40600000Y-79700000D03*
X69300000Y-83300000D03*
X43200000Y-79500000D03*
X82900000Y-82300000D03*
X45800000Y-79400000D03*
X70000000Y-81900000D03*
X48300000Y-79200000D03*
X82000000Y-82000000D03*
X40700000Y-77000000D03*
X72000000Y-81500000D03*
X43200000Y-77100000D03*
X81100000Y-81500000D03*
X45700000Y-76400000D03*
X74300000Y-81800000D03*
X48300000Y-76500000D03*
X81200000Y-80400000D03*
X40700000Y-74500000D03*
X71400000Y-79000000D03*
X43200000Y-74300000D03*
X80900000Y-79100000D03*
X40700000Y-67000000D03*
X49900000Y-68100000D03*
X63800000Y-47900000D03*
X50700000Y-67500000D03*
X43200000Y-66800000D03*
X57800000Y-49600000D03*
X45700000Y-66500000D03*
X51000000Y-66500000D03*
X66000000Y-50200000D03*
X48300000Y-66100000D03*
X52000000Y-66400000D03*
X56600000Y-50500000D03*
X40700000Y-64400000D03*
X51700000Y-65100000D03*
X57900000Y-51400000D03*
X52700000Y-65000000D03*
X43300000Y-64300000D03*
X66000000Y-51400000D03*
X52700000Y-64000000D03*
X45800000Y-64200000D03*
X66000000Y-52700000D03*
X48300000Y-63500000D03*
X53700000Y-64000000D03*
X55300000Y-52200000D03*
X53700000Y-63000000D03*
X40800000Y-61800000D03*
X58100000Y-53600000D03*
X54700000Y-62600000D03*
X43300000Y-61800000D03*
X66000000Y-54000000D03*
X45800000Y-61500000D03*
X54700000Y-61600000D03*
X57100000Y-54600000D03*
X55700000Y-61400000D03*
X48300000Y-61000000D03*
X66000000Y-55200000D03*
X40700000Y-59300000D03*
X55700000Y-60400000D03*
X66000000Y-56500000D03*
X43200000Y-59200000D03*
X56700000Y-60200000D03*
X57400000Y-56000000D03*
X45800000Y-59100000D03*
X56500000Y-59000000D03*
X66000000Y-57800000D03*
X48300000Y-58500000D03*
X55800000Y-58300000D03*
X58100000Y-56700000D03*
X40700000Y-56800000D03*
X57500000Y-59300000D03*
X43300000Y-56700000D03*
X66000000Y-58800000D03*
X58400000Y-60300000D03*
X45700000Y-56100000D03*
X48500000Y-56500000D03*
X57500000Y-48200000D03*
X58400000Y-61600000D03*
X40700000Y-53400000D03*
X66000000Y-61000000D03*
X43300000Y-54300000D03*
X58400000Y-62800000D03*
X66900000Y-62300000D03*
X49900000Y-51200000D03*
X45700000Y-53500000D03*
X58400000Y-64100000D03*
X58200000Y-44100000D03*
X40700000Y-51000000D03*
X66100000Y-65400000D03*
X43180000Y-50800000D03*
X57200000Y-44500000D03*
X45720000Y-50800000D03*
X58500000Y-65400000D03*
X66100000Y-64400000D03*
X66100000Y-63000000D03*
X40700000Y-49100000D03*
X58500000Y-66700000D03*
X43200000Y-48600000D03*
X66100000Y-67200000D03*
X58500000Y-68000000D03*
X45700000Y-48300000D03*
X40800000Y-46700000D03*
X58500000Y-69200000D03*
X43100000Y-46000000D03*
X65900000Y-69200000D03*
X45700000Y-45300000D03*
X58500000Y-70500000D03*
X40700000Y-44000000D03*
X58400000Y-71700000D03*
X43300000Y-43900000D03*
X65900000Y-71800000D03*
X45800000Y-43100000D03*
X58400000Y-73100000D03*
X45700000Y-39100000D03*
X72200000Y-44900000D03*
X45800000Y-72000000D03*
X77300000Y-77600000D03*
X48400000Y-71300000D03*
X78300000Y-77600000D03*
X40800000Y-72000000D03*
X75700000Y-78000000D03*
X43200000Y-71900000D03*
X79300000Y-78000000D03*
X80600000Y-78000000D03*
X48300000Y-74200000D03*
X72600000Y-78200000D03*
X45700000Y-74500000D03*
X43200000Y-69500000D03*
X78900000Y-76600000D03*
X40700000Y-69500000D03*
X73300000Y-75400000D03*
X77915000Y-73025000D03*
X48300000Y-68900000D03*
X74485000Y-73025000D03*
X45800000Y-69300000D03*
D12*
X100200000Y-42300000D02*
X106700000Y-42300000D01*
X93600000Y-48900000D02*
X100200000Y-42300000D01*
X87000000Y-50200000D02*
X87600000Y-49600000D01*
X100700000Y-43000000D02*
X109200000Y-43000000D01*
X94100000Y-49600000D02*
X100700000Y-43000000D01*
X87600000Y-49600000D02*
X94100000Y-49600000D01*
X111200000Y-43700000D02*
X111700000Y-43200000D01*
X101000000Y-43700000D02*
X111200000Y-43700000D01*
X100800000Y-43900000D02*
X101000000Y-43700000D01*
X87000000Y-51400000D02*
X88100000Y-50300000D01*
X101600000Y-44500000D02*
X102600000Y-44500000D01*
X95800000Y-50300000D02*
X101600000Y-44500000D01*
X88100000Y-50300000D02*
X95800000Y-50300000D01*
X101900000Y-45200000D02*
X102000000Y-45300000D01*
X102000000Y-45300000D02*
X106300000Y-45300000D01*
X106300000Y-45300000D02*
X106700000Y-44900000D01*
X87000000Y-52700000D02*
X89000000Y-50700000D01*
X89000000Y-50700000D02*
X95902898Y-50700000D01*
X108544398Y-45655602D02*
X109200000Y-45000000D01*
X102800000Y-45655602D02*
X108544398Y-45655602D01*
X102555602Y-45900000D02*
X102800000Y-45655602D01*
X100702898Y-45900000D02*
X102555602Y-45900000D01*
X95902898Y-50700000D02*
X100702898Y-45900000D01*
X101344398Y-46255602D02*
X103144398Y-46255602D01*
X111388796Y-46011204D02*
X111700000Y-45700000D01*
X103388796Y-46011204D02*
X111388796Y-46011204D01*
X101000000Y-46600000D02*
X101344398Y-46255602D01*
X103144398Y-46255602D02*
X103388796Y-46011204D01*
X89844398Y-51055602D02*
X89900000Y-51055602D01*
X86900000Y-54000000D02*
X89844398Y-51055602D01*
X89900000Y-51055602D02*
X96050194Y-51055602D01*
X99805796Y-47300000D02*
X104100000Y-47300000D01*
X96050194Y-51055602D02*
X99805796Y-47300000D01*
X105500000Y-47400000D02*
X106600000Y-47400000D01*
X104900000Y-48000000D02*
X105500000Y-47400000D01*
X100200000Y-48000000D02*
X104900000Y-48000000D01*
X90688796Y-51411204D02*
X90700000Y-51411204D01*
X86900000Y-55200000D02*
X90688796Y-51411204D01*
X90700000Y-51411204D02*
X96288796Y-51411204D01*
X107500000Y-47700000D02*
X109200000Y-47700000D01*
X106500000Y-48700000D02*
X107500000Y-47700000D01*
X99000000Y-48700000D02*
X106500000Y-48700000D01*
X96288796Y-51411204D02*
X99000000Y-48700000D01*
X99300000Y-49400000D02*
X99600000Y-49100000D01*
X99600000Y-49100000D02*
X106700000Y-49100000D01*
X106700000Y-49100000D02*
X107400000Y-48400000D01*
X107400000Y-48400000D02*
X111600000Y-48400000D01*
X111600000Y-48400000D02*
X111700000Y-48300000D01*
X91633194Y-51766806D02*
X91700000Y-51766806D01*
X86900000Y-56500000D02*
X91633194Y-51766806D01*
X99800000Y-49900000D02*
X104100000Y-49900000D01*
X97933194Y-51766806D02*
X99800000Y-49900000D01*
X91700000Y-51766806D02*
X97933194Y-51766806D01*
X100100000Y-50600000D02*
X105100000Y-50600000D01*
X105100000Y-50600000D02*
X105800000Y-49900000D01*
X105800000Y-49900000D02*
X106700000Y-49900000D01*
X87000000Y-57800000D02*
X92677592Y-52122408D01*
X92677592Y-52122408D02*
X92700000Y-52122408D01*
X107800000Y-50000000D02*
X109200000Y-50000000D01*
X106844398Y-50955602D02*
X107800000Y-50000000D01*
X100700000Y-50955602D02*
X106844398Y-50955602D01*
X99533194Y-52122408D02*
X100700000Y-50955602D01*
X92700000Y-52122408D02*
X99533194Y-52122408D01*
X97700000Y-52800000D02*
X98000000Y-52500000D01*
X98000000Y-52500000D02*
X99700000Y-52500000D01*
X99700000Y-52500000D02*
X100888796Y-51311204D01*
X100888796Y-51311204D02*
X107588796Y-51311204D01*
X107588796Y-51311204D02*
X108200000Y-50700000D01*
X108200000Y-50700000D02*
X111800000Y-50700000D01*
X87000000Y-59000000D02*
X92500000Y-53500000D01*
X100302898Y-52400000D02*
X104200000Y-52400000D01*
X99802898Y-52900000D02*
X100302898Y-52400000D01*
X98600000Y-52900000D02*
X99802898Y-52900000D01*
X98000000Y-53500000D02*
X98600000Y-52900000D01*
X92500000Y-53500000D02*
X98000000Y-53500000D01*
X98900000Y-53600000D02*
X99200000Y-53300000D01*
X99200000Y-53300000D02*
X100000000Y-53300000D01*
X100000000Y-53300000D02*
X100200000Y-53100000D01*
X100200000Y-53100000D02*
X106100000Y-53100000D01*
X106100000Y-53100000D02*
X106600000Y-52600000D01*
X87000000Y-60300000D02*
X93000000Y-54300000D01*
X108244398Y-53455602D02*
X109200000Y-52500000D01*
X100500000Y-53455602D02*
X108244398Y-53455602D01*
X99655602Y-54300000D02*
X100500000Y-53455602D01*
X93000000Y-54300000D02*
X99655602Y-54300000D01*
X100700000Y-54300000D02*
X101188796Y-53811204D01*
X101188796Y-53811204D02*
X111088796Y-53811204D01*
X111088796Y-53811204D02*
X111700000Y-53200000D01*
X87000000Y-61600000D02*
X93600000Y-55000000D01*
X103900000Y-55000000D02*
X104000000Y-54900000D01*
X93600000Y-55000000D02*
X103900000Y-55000000D01*
X98600000Y-55700000D02*
X98700000Y-55600000D01*
X98700000Y-55600000D02*
X106100000Y-55600000D01*
X106100000Y-55600000D02*
X106600000Y-55100000D01*
X93400000Y-56400000D02*
X99555602Y-56400000D01*
X99555602Y-56400000D02*
X100000000Y-55955602D01*
X100000000Y-55955602D02*
X108244398Y-55955602D01*
X108244398Y-55955602D02*
X109200000Y-55000000D01*
X87000000Y-62800000D02*
X93400000Y-56400000D01*
X98500000Y-57100000D02*
X98800000Y-56800000D01*
X98800000Y-56800000D02*
X99800000Y-56800000D01*
X99800000Y-56800000D02*
X100288796Y-56311204D01*
X100288796Y-56311204D02*
X111188796Y-56311204D01*
X111188796Y-56311204D02*
X111700000Y-55800000D01*
X93300000Y-57800000D02*
X98802898Y-57800000D01*
X98802898Y-57800000D02*
X99102898Y-57500000D01*
X99102898Y-57500000D02*
X104100000Y-57500000D01*
X87000000Y-64100000D02*
X93300000Y-57800000D01*
X98500000Y-58500000D02*
X98800000Y-58200000D01*
X98800000Y-58200000D02*
X106100000Y-58200000D01*
X106100000Y-58200000D02*
X106600000Y-57700000D01*
X87000000Y-65400000D02*
X93200000Y-59200000D01*
X108244398Y-58555602D02*
X109200000Y-57600000D01*
X99500000Y-58555602D02*
X108244398Y-58555602D01*
X98855602Y-59200000D02*
X99500000Y-58555602D01*
X93200000Y-59200000D02*
X98855602Y-59200000D01*
X98300000Y-59900000D02*
X98600000Y-59600000D01*
X98600000Y-59600000D02*
X98958500Y-59600000D01*
X98958500Y-59600000D02*
X99647296Y-58911204D01*
X99647296Y-58911204D02*
X111288796Y-58911204D01*
X111288796Y-58911204D02*
X111800000Y-58400000D01*
X87000000Y-66600000D02*
X93000000Y-60600000D01*
X99100000Y-60100000D02*
X104100000Y-60100000D01*
X98600000Y-60600000D02*
X99100000Y-60100000D01*
X93000000Y-60600000D02*
X98600000Y-60600000D01*
X98000000Y-61300000D02*
X98300000Y-61000000D01*
X98300000Y-61000000D02*
X98855602Y-61000000D01*
X98855602Y-61000000D02*
X99055602Y-60800000D01*
X99055602Y-60800000D02*
X106000000Y-60800000D01*
X106000000Y-60800000D02*
X106700000Y-60100000D01*
X92900000Y-62000000D02*
X98855602Y-62000000D01*
X98855602Y-62000000D02*
X99700000Y-61155602D01*
X99700000Y-61155602D02*
X108244398Y-61155602D01*
X108244398Y-61155602D02*
X109200000Y-60200000D01*
X87000000Y-67900000D02*
X92900000Y-62000000D01*
X98000000Y-62700000D02*
X98300000Y-62400000D01*
X98300000Y-62400000D02*
X99100000Y-62400000D01*
X99100000Y-62400000D02*
X99988796Y-61511204D01*
X99988796Y-61511204D02*
X111088796Y-61511204D01*
X111088796Y-61511204D02*
X111700000Y-60900000D01*
X87000000Y-69200000D02*
X92800000Y-63400000D01*
X99800000Y-62500000D02*
X104100000Y-62500000D01*
X98900000Y-63400000D02*
X99800000Y-62500000D01*
X92800000Y-63400000D02*
X98900000Y-63400000D01*
X97800000Y-64100000D02*
X98100000Y-63800000D01*
X98100000Y-63800000D02*
X99400000Y-63800000D01*
X99400000Y-63800000D02*
X100000000Y-63200000D01*
X100000000Y-63200000D02*
X106200000Y-63200000D01*
X106200000Y-63200000D02*
X106600000Y-62800000D01*
X98902898Y-64800000D02*
X92700000Y-64800000D01*
X98902898Y-64800000D02*
X100102898Y-63600000D01*
X100102898Y-63600000D02*
X108500000Y-63600000D01*
X108500000Y-63600000D02*
X109200000Y-62900000D01*
X87000000Y-70500000D02*
X92700000Y-64800000D01*
X97800000Y-65500000D02*
X98100000Y-65200000D01*
X98100000Y-65200000D02*
X99100000Y-65200000D01*
X99100000Y-65200000D02*
X100344398Y-63955602D01*
X100344398Y-63955602D02*
X111244398Y-63955602D01*
X111244398Y-63955602D02*
X111700000Y-63500000D01*
X87000000Y-71800000D02*
X92600000Y-66200000D01*
X99700000Y-65200000D02*
X104100000Y-65200000D01*
X98700000Y-66200000D02*
X99700000Y-65200000D01*
X92600000Y-66200000D02*
X98700000Y-66200000D01*
X97600000Y-66900000D02*
X97900000Y-66600000D01*
X97900000Y-66600000D02*
X99000000Y-66600000D01*
X99000000Y-66600000D02*
X99700000Y-65900000D01*
X99700000Y-65900000D02*
X106100000Y-65900000D01*
X106100000Y-65900000D02*
X106700000Y-65300000D01*
X87000000Y-73000000D02*
X92400000Y-67600000D01*
X108244398Y-66255602D02*
X109200000Y-65300000D01*
X99847296Y-66255602D02*
X108244398Y-66255602D01*
X98502898Y-67600000D02*
X99847296Y-66255602D01*
X92400000Y-67600000D02*
X98502898Y-67600000D01*
X97600000Y-68300000D02*
X97800000Y-68100000D01*
X97800000Y-68100000D02*
X98505796Y-68100000D01*
X98505796Y-68100000D02*
X99994592Y-66611204D01*
X99994592Y-66611204D02*
X111088796Y-66611204D01*
X111088796Y-66611204D02*
X111700000Y-66000000D01*
X72400000Y-48900000D02*
X83400000Y-48900000D01*
X83400000Y-48900000D02*
X85400000Y-50900000D01*
X91900000Y-75700000D02*
X100300000Y-67300000D01*
X85400000Y-72500000D02*
X88600000Y-75700000D01*
X88600000Y-75700000D02*
X91900000Y-75700000D01*
X85400000Y-50900000D02*
X85400000Y-72500000D01*
X100300000Y-68300000D02*
X100900000Y-67700000D01*
X100900000Y-67700000D02*
X106600000Y-67700000D01*
X83100000Y-50100000D02*
X72500000Y-50100000D01*
X83100000Y-50100000D02*
X84900000Y-51900000D01*
X84900000Y-72502898D02*
X88452704Y-76055602D01*
X84900000Y-51900000D02*
X84900000Y-72502898D01*
X93500000Y-76055602D02*
X101155602Y-68400000D01*
X88452704Y-76055602D02*
X93500000Y-76055602D01*
X108600000Y-68400000D02*
X109200000Y-67800000D01*
X101155602Y-68400000D02*
X108600000Y-68400000D01*
X72500000Y-50100000D02*
X72400000Y-50200000D01*
X72400000Y-50200000D02*
X72472199Y-50127801D01*
X111544398Y-68755602D02*
X111800000Y-68500000D01*
X101400000Y-69100000D02*
X101744398Y-68755602D01*
X101744398Y-68755602D02*
X111544398Y-68755602D01*
X72400000Y-51400000D02*
X83400000Y-51400000D01*
X84500000Y-72605796D02*
X88305408Y-76411204D01*
X84500000Y-52500000D02*
X84500000Y-72605796D01*
X93647296Y-76411204D02*
X99958500Y-70100000D01*
X88305408Y-76411204D02*
X93647296Y-76411204D01*
X99958500Y-70100000D02*
X101400000Y-70100000D01*
X83400000Y-51400000D02*
X84500000Y-52500000D01*
X72405602Y-51405602D02*
X72400000Y-51400000D01*
X102100000Y-70800000D02*
X102600000Y-70300000D01*
X102600000Y-70300000D02*
X106600000Y-70300000D01*
X100700000Y-70800000D02*
X102100000Y-70800000D01*
X72400000Y-52700000D02*
X82600000Y-52700000D01*
X108600000Y-71000000D02*
X109200000Y-70400000D01*
X102600000Y-71000000D02*
X108600000Y-71000000D01*
X102100000Y-71500000D02*
X102600000Y-71000000D01*
X99061398Y-71500000D02*
X102100000Y-71500000D01*
X93794592Y-76766806D02*
X99061398Y-71500000D01*
X88158112Y-76766806D02*
X93794592Y-76766806D01*
X84100000Y-72708694D02*
X88158112Y-76766806D01*
X84100000Y-54200000D02*
X84100000Y-72708694D01*
X82600000Y-52700000D02*
X84100000Y-54200000D01*
X72433403Y-52733403D02*
X72400000Y-52700000D01*
X99900000Y-72200000D02*
X100244398Y-71855602D01*
X100244398Y-71855602D02*
X102344398Y-71855602D01*
X102344398Y-71855602D02*
X102844398Y-71355602D01*
X102844398Y-71355602D02*
X111444398Y-71355602D01*
X111444398Y-71355602D02*
X111800000Y-71000000D01*
X72400000Y-53900000D02*
X82000000Y-53900000D01*
X100500000Y-72900000D02*
X100800000Y-72600000D01*
X98164296Y-72900000D02*
X100500000Y-72900000D01*
X93941888Y-77122408D02*
X98164296Y-72900000D01*
X88010816Y-77122408D02*
X93941888Y-77122408D01*
X83700000Y-72811592D02*
X88010816Y-77122408D01*
X83700000Y-55600000D02*
X83700000Y-72811592D01*
X82000000Y-53900000D02*
X83700000Y-55600000D01*
X72511204Y-54011204D02*
X72400000Y-53900000D01*
X99500000Y-73600000D02*
X99800000Y-73300000D01*
X99800000Y-73300000D02*
X101200000Y-73300000D01*
X101200000Y-73300000D02*
X101700000Y-72800000D01*
X101700000Y-72800000D02*
X106600000Y-72800000D01*
X81600000Y-55200000D02*
X72400000Y-55200000D01*
X108444398Y-73655602D02*
X109200000Y-72900000D01*
X100400000Y-73655602D02*
X108444398Y-73655602D01*
X96577592Y-77478010D02*
X100400000Y-73655602D01*
X87863520Y-77478010D02*
X96577592Y-77478010D01*
X83300000Y-72914490D02*
X87863520Y-77478010D01*
X83300000Y-56900000D02*
X83300000Y-72914490D01*
X81600000Y-55200000D02*
X83300000Y-56900000D01*
X100700000Y-74400000D02*
X101088796Y-74011204D01*
X101088796Y-74011204D02*
X111288796Y-74011204D01*
X111288796Y-74011204D02*
X111700000Y-73600000D01*
X81700000Y-56500000D02*
X72400000Y-56500000D01*
X98266388Y-77833612D02*
X100700000Y-75400000D01*
X87716224Y-77833612D02*
X98266388Y-77833612D01*
X82900000Y-73017388D02*
X87716224Y-77833612D01*
X82900000Y-57700000D02*
X82900000Y-73017388D01*
X81700000Y-56500000D02*
X82900000Y-57700000D01*
X100700000Y-76400000D02*
X101700000Y-75400000D01*
X101700000Y-75400000D02*
X106600000Y-75400000D01*
X81210786Y-57800000D02*
X72400000Y-57800000D01*
X108500000Y-76100000D02*
X109200000Y-75400000D01*
X102000000Y-76100000D02*
X108500000Y-76100000D01*
X99900000Y-78200000D02*
X102000000Y-76100000D01*
X87579714Y-78200000D02*
X99900000Y-78200000D01*
X82500000Y-73120286D02*
X87579714Y-78200000D01*
X82500000Y-59089214D02*
X82500000Y-73120286D01*
X81210786Y-57800000D02*
X82500000Y-59089214D01*
X102200000Y-76900000D02*
X102644398Y-76455602D01*
X102644398Y-76455602D02*
X111344398Y-76455602D01*
X111344398Y-76455602D02*
X111700000Y-76100000D01*
X80555184Y-59000000D02*
X72400000Y-59000000D01*
X101500000Y-78600000D02*
X102100000Y-78000000D01*
X87476816Y-78600000D02*
X101500000Y-78600000D01*
X82100000Y-73223184D02*
X87476816Y-78600000D01*
X82100000Y-60544816D02*
X82100000Y-73223184D01*
X80555184Y-59000000D02*
X82100000Y-60544816D01*
X102200000Y-79000000D02*
X103200000Y-78000000D01*
X103200000Y-78000000D02*
X106600000Y-78000000D01*
X72400000Y-60300000D02*
X79700000Y-60300000D01*
X108500000Y-78700000D02*
X109200000Y-78000000D01*
X103600000Y-78700000D02*
X108500000Y-78700000D01*
X102600000Y-79700000D02*
X103600000Y-78700000D01*
X101600000Y-79700000D02*
X102600000Y-79700000D01*
X100855602Y-78955602D02*
X101600000Y-79700000D01*
X87329520Y-78955602D02*
X100855602Y-78955602D01*
X81699582Y-73325664D02*
X87329520Y-78955602D01*
X81699582Y-62299582D02*
X81699582Y-73325664D01*
X79700000Y-60300000D02*
X81699582Y-62299582D01*
X72400209Y-60300209D02*
X72400000Y-60300000D01*
X111444398Y-79055602D02*
X111700000Y-78800000D01*
X100600000Y-79700000D02*
X101000000Y-80100000D01*
X101000000Y-80100000D02*
X103100000Y-80100000D01*
X103100000Y-80100000D02*
X104144398Y-79055602D01*
X104144398Y-79055602D02*
X111444398Y-79055602D01*
X44300000Y-83400000D02*
X40600000Y-79700000D01*
X69300000Y-83300000D02*
X69200000Y-83400000D01*
X69200000Y-83400000D02*
X44300000Y-83400000D01*
X82900000Y-82300000D02*
X82900000Y-82900000D01*
X82900000Y-82900000D02*
X81400000Y-84400000D01*
X69700000Y-82600000D02*
X69800000Y-82600000D01*
X71600000Y-84400000D02*
X81400000Y-84400000D01*
X69800000Y-82600000D02*
X71600000Y-84400000D01*
X69700000Y-82600000D02*
X68944398Y-82600000D01*
X68944398Y-82600000D02*
X68500000Y-83044398D01*
X68500000Y-83044398D02*
X46744398Y-83044398D01*
X46744398Y-83044398D02*
X46300000Y-82600000D01*
X46300000Y-82600000D02*
X43200000Y-79500000D01*
X70000000Y-81900000D02*
X69700000Y-82200000D01*
X69700000Y-82200000D02*
X48600000Y-82200000D01*
X48600000Y-82200000D02*
X45800000Y-79400000D01*
X82000000Y-82000000D02*
X80800000Y-83200000D01*
X80800000Y-83200000D02*
X72700000Y-83200000D01*
X72700000Y-83200000D02*
X70700000Y-81200000D01*
X70700000Y-81200000D02*
X69700000Y-81200000D01*
X69700000Y-81200000D02*
X69100000Y-81800000D01*
X69100000Y-81800000D02*
X50900000Y-81800000D01*
X50900000Y-81800000D02*
X48300000Y-79200000D01*
X49060000Y-78260000D02*
X41960000Y-78260000D01*
X41960000Y-78260000D02*
X40700000Y-77000000D01*
X68997102Y-81400000D02*
X52200000Y-81400000D01*
X52200000Y-81400000D02*
X49060000Y-78260000D01*
X72000000Y-81500000D02*
X71300000Y-80800000D01*
X71300000Y-80800000D02*
X69597102Y-80800000D01*
X69597102Y-80800000D02*
X68997102Y-81400000D01*
X43700000Y-77600000D02*
X43200000Y-77100000D01*
X49200000Y-77600000D02*
X43700000Y-77600000D01*
X81100000Y-81500000D02*
X80100000Y-82500000D01*
X80100000Y-82500000D02*
X74000000Y-82500000D01*
X74000000Y-82500000D02*
X71944398Y-80444398D01*
X71944398Y-80444398D02*
X69355602Y-80444398D01*
X69355602Y-80444398D02*
X68900000Y-80900000D01*
X68900000Y-80900000D02*
X52500000Y-80900000D01*
X52500000Y-80900000D02*
X49200000Y-77600000D01*
X53044398Y-80544398D02*
X52588796Y-80088796D01*
X68752704Y-80544398D02*
X53044398Y-80544398D01*
X69208306Y-80088796D02*
X68752704Y-80544398D01*
X45700000Y-76400000D02*
X46500000Y-77200000D01*
X49700000Y-77300000D02*
X49700000Y-77200000D01*
X49600000Y-77200000D02*
X49700000Y-77300000D01*
X46500000Y-77200000D02*
X49600000Y-77200000D01*
X72588796Y-80088796D02*
X69300000Y-80088796D01*
X52588796Y-80088796D02*
X49700000Y-77200000D01*
X69300000Y-80088796D02*
X69208306Y-80088796D01*
X74300000Y-81800000D02*
X72588796Y-80088796D01*
X81200000Y-80400000D02*
X80533194Y-79733194D01*
X69100000Y-79733194D02*
X69055602Y-79733194D01*
X69055602Y-79733194D02*
X68600000Y-80188796D01*
X80533194Y-79733194D02*
X69100000Y-79733194D01*
X53191694Y-80188796D02*
X52736092Y-79733194D01*
X68600000Y-80188796D02*
X53191694Y-80188796D01*
X52736092Y-79733194D02*
X49502898Y-76500000D01*
X49502898Y-76500000D02*
X48300000Y-76500000D01*
X69000000Y-79377592D02*
X68855602Y-79377592D01*
X71300000Y-79377592D02*
X69000000Y-79377592D01*
X41900000Y-75700000D02*
X40700000Y-74500000D01*
X49205796Y-75700000D02*
X41900000Y-75700000D01*
X52883388Y-79377592D02*
X49205796Y-75700000D01*
X68855602Y-79377592D02*
X68400000Y-79833194D01*
X68400000Y-79833194D02*
X53338990Y-79833194D01*
X53338990Y-79833194D02*
X52883388Y-79377592D01*
X71300000Y-79100000D02*
X71300000Y-79377592D01*
X71400000Y-79000000D02*
X71300000Y-79100000D01*
X69800000Y-78300000D02*
X69430296Y-78300000D01*
X44200000Y-75300000D02*
X43200000Y-74300000D01*
X49308694Y-75300000D02*
X44200000Y-75300000D01*
X53030684Y-79021990D02*
X49308694Y-75300000D01*
X68252704Y-79477592D02*
X53486286Y-79477592D01*
X53486286Y-79477592D02*
X53030684Y-79021990D01*
X69430296Y-78300000D02*
X68252704Y-79477592D01*
X73800000Y-79100000D02*
X72500000Y-79100000D01*
X80900000Y-79100000D02*
X73800000Y-79100000D01*
X72500000Y-79100000D02*
X71700000Y-78300000D01*
X71700000Y-78300000D02*
X69800000Y-78300000D01*
X40700000Y-67000000D02*
X40700000Y-67000000D01*
X41800000Y-68100000D02*
X40700000Y-67000000D01*
X49900000Y-68100000D02*
X41800000Y-68100000D01*
X58500000Y-48900000D02*
X62800000Y-48900000D01*
X62800000Y-48900000D02*
X63800000Y-47900000D01*
X50700000Y-67500000D02*
X50600000Y-67400000D01*
X50600000Y-67400000D02*
X43800000Y-67400000D01*
X43800000Y-67400000D02*
X43200000Y-66800000D01*
X58505000Y-48895000D02*
X58500000Y-48900000D01*
X58500000Y-48900000D02*
X57800000Y-49600000D01*
X46000000Y-66800000D02*
X45700000Y-66500000D01*
X50700000Y-66800000D02*
X46000000Y-66800000D01*
X51000000Y-66500000D02*
X50700000Y-66800000D01*
X56600000Y-50500000D02*
X58300000Y-50500000D01*
X58600000Y-50200000D02*
X66000000Y-50200000D01*
X58300000Y-50500000D02*
X58600000Y-50200000D01*
X49700000Y-66100000D02*
X48300000Y-66100000D01*
X50000000Y-65800000D02*
X49700000Y-66100000D01*
X51400000Y-65800000D02*
X50000000Y-65800000D01*
X52000000Y-66400000D02*
X51400000Y-65800000D01*
X56800000Y-50300000D02*
X56600000Y-50500000D01*
X41700000Y-65400000D02*
X40700000Y-64400000D01*
X51400000Y-65400000D02*
X41700000Y-65400000D01*
X51700000Y-65100000D02*
X51400000Y-65400000D01*
X57900000Y-51400000D02*
X66000000Y-51400000D01*
X52700000Y-65000000D02*
X52100000Y-64400000D01*
X52100000Y-64400000D02*
X51200000Y-64400000D01*
X51200000Y-64400000D02*
X50555602Y-65044398D01*
X50555602Y-65044398D02*
X44044398Y-65044398D01*
X44044398Y-65044398D02*
X43300000Y-64300000D01*
X52700000Y-64000000D02*
X49400000Y-64000000D01*
X49400000Y-64000000D02*
X49200000Y-64200000D01*
X49200000Y-64200000D02*
X45800000Y-64200000D01*
X63300000Y-52100000D02*
X65400000Y-52100000D01*
X65400000Y-52100000D02*
X66000000Y-52700000D01*
X52100000Y-63500000D02*
X48300000Y-63500000D01*
X52300000Y-63300000D02*
X52100000Y-63500000D01*
X53000000Y-63300000D02*
X52300000Y-63300000D01*
X53700000Y-64000000D02*
X53000000Y-63300000D01*
X55400000Y-52100000D02*
X55300000Y-52200000D01*
X63340000Y-52100000D02*
X63300000Y-52100000D01*
X63300000Y-52100000D02*
X55400000Y-52100000D01*
X53700000Y-63000000D02*
X53500000Y-62800000D01*
X53500000Y-62800000D02*
X41800000Y-62800000D01*
X41800000Y-62800000D02*
X40800000Y-61800000D01*
X63570000Y-53600000D02*
X65600000Y-53600000D01*
X63570000Y-53600000D02*
X58100000Y-53600000D01*
X54700000Y-62600000D02*
X54300000Y-62200000D01*
X54300000Y-62200000D02*
X43700000Y-62200000D01*
X43700000Y-62200000D02*
X43300000Y-61800000D01*
X65600000Y-53600000D02*
X66000000Y-54000000D01*
X46100000Y-61800000D02*
X45800000Y-61500000D01*
X54500000Y-61800000D02*
X46100000Y-61800000D01*
X54700000Y-61600000D02*
X54500000Y-61800000D01*
X63000000Y-54300000D02*
X65100000Y-54300000D01*
X63000000Y-54300000D02*
X57400000Y-54300000D01*
X57400000Y-54300000D02*
X57100000Y-54600000D01*
X55700000Y-61400000D02*
X55200000Y-60900000D01*
X55200000Y-60900000D02*
X54400000Y-60900000D01*
X54400000Y-60900000D02*
X53900000Y-61400000D01*
X53900000Y-61400000D02*
X48700000Y-61400000D01*
X48700000Y-61400000D02*
X48300000Y-61000000D01*
X65100000Y-54300000D02*
X66000000Y-55200000D01*
X41700000Y-60300000D02*
X40700000Y-59300000D01*
X55600000Y-60300000D02*
X41700000Y-60300000D01*
X55700000Y-60400000D02*
X55600000Y-60300000D01*
X63400000Y-56000000D02*
X65500000Y-56000000D01*
X65500000Y-56000000D02*
X66000000Y-56500000D01*
X43944398Y-59944398D02*
X43200000Y-59200000D01*
X54700000Y-59944398D02*
X43944398Y-59944398D01*
X54944398Y-59700000D02*
X54700000Y-59944398D01*
X56200000Y-59700000D02*
X54944398Y-59700000D01*
X56700000Y-60200000D02*
X56200000Y-59700000D01*
X63430000Y-56000000D02*
X63400000Y-56000000D01*
X63400000Y-56000000D02*
X57400000Y-56000000D01*
X46000000Y-59300000D02*
X45800000Y-59100000D01*
X56200000Y-59300000D02*
X46000000Y-59300000D01*
X56500000Y-59000000D02*
X56200000Y-59300000D01*
X58100000Y-56700000D02*
X64900000Y-56700000D01*
X64900000Y-56700000D02*
X66000000Y-57800000D01*
X48744398Y-58944398D02*
X48300000Y-58500000D01*
X55155602Y-58944398D02*
X48744398Y-58944398D01*
X55800000Y-58300000D02*
X55155602Y-58944398D01*
X58200000Y-56600000D02*
X58100000Y-56700000D01*
X41700000Y-57800000D02*
X40700000Y-56800000D01*
X55000000Y-57800000D02*
X41700000Y-57800000D01*
X55200000Y-57600000D02*
X55000000Y-57800000D01*
X56200000Y-57600000D02*
X55200000Y-57600000D01*
X57400000Y-58800000D02*
X56200000Y-57600000D01*
X57400000Y-59200000D02*
X57400000Y-58800000D01*
X57500000Y-59300000D02*
X57400000Y-59200000D01*
X59000000Y-59200000D02*
X65600000Y-59200000D01*
X59000000Y-59200000D02*
X57000000Y-57200000D01*
X57000000Y-57200000D02*
X54144398Y-57200000D01*
X54144398Y-57200000D02*
X54044398Y-57300000D01*
X54044398Y-57300000D02*
X43900000Y-57300000D01*
X43900000Y-57300000D02*
X43300000Y-56700000D01*
X65600000Y-59200000D02*
X66000000Y-58800000D01*
X58400000Y-60300000D02*
X58425000Y-60325000D01*
X58425000Y-60325000D02*
X65775000Y-60325000D01*
X66700000Y-49700000D02*
X66700000Y-59400000D01*
X46000000Y-55800000D02*
X45700000Y-56100000D01*
X49397102Y-55800000D02*
X46000000Y-55800000D01*
X56698551Y-48498551D02*
X49397102Y-55800000D01*
X56698551Y-47801449D02*
X56698551Y-48498551D01*
X58200000Y-46300000D02*
X56698551Y-47801449D01*
X63300000Y-46300000D02*
X58200000Y-46300000D01*
X66700000Y-49700000D02*
X63300000Y-46300000D01*
X66700000Y-59400000D02*
X65775000Y-60325000D01*
X49200000Y-56500000D02*
X48500000Y-56500000D01*
X57500000Y-48200000D02*
X49200000Y-56500000D01*
X58550000Y-61750000D02*
X66350000Y-61750000D01*
X58400000Y-61600000D02*
X58550000Y-61750000D01*
X46800000Y-54844398D02*
X45144398Y-54844398D01*
X66350000Y-61750000D02*
X67500000Y-60600000D01*
X67500000Y-60600000D02*
X67500000Y-49494204D01*
X67500000Y-49494204D02*
X63594592Y-45588796D01*
X63594592Y-45588796D02*
X57905408Y-45588796D01*
X57905408Y-45588796D02*
X55987347Y-47506857D01*
X55987347Y-47506857D02*
X55987347Y-48203959D01*
X55987347Y-48203959D02*
X49346908Y-54844398D01*
X46800000Y-54844398D02*
X49346908Y-54844398D01*
X40900000Y-53600000D02*
X40700000Y-53400000D01*
X43900000Y-53600000D02*
X40900000Y-53600000D01*
X45144398Y-54844398D02*
X43900000Y-53600000D01*
X67100000Y-49597102D02*
X67100000Y-59900000D01*
X44200000Y-55200000D02*
X43300000Y-54300000D01*
X49494204Y-55200000D02*
X44200000Y-55200000D01*
X56342949Y-48351255D02*
X49494204Y-55200000D01*
X56342949Y-47654153D02*
X56342949Y-48351255D01*
X58052704Y-45944398D02*
X56342949Y-47654153D01*
X63447296Y-45944398D02*
X58052704Y-45944398D01*
X67100000Y-49597102D02*
X63447296Y-45944398D01*
X67100000Y-59900000D02*
X66000000Y-61000000D01*
X58900000Y-62300000D02*
X58400000Y-62800000D01*
X66900000Y-62300000D02*
X58900000Y-62300000D01*
X45700000Y-53800000D02*
X46100000Y-54200000D01*
X49900000Y-51200000D02*
X46900000Y-54200000D01*
X46900000Y-54200000D02*
X46100000Y-54200000D01*
X45700000Y-53800000D02*
X45700000Y-53500000D01*
X58200000Y-44100000D02*
X57800000Y-44100000D01*
X42000000Y-51000000D02*
X40700000Y-51000000D01*
X43255602Y-49744398D02*
X42000000Y-51000000D01*
X52241112Y-49744398D02*
X43255602Y-49744398D01*
X56500000Y-45485510D02*
X52241112Y-49744398D01*
X56500000Y-44200000D02*
X56500000Y-45485510D01*
X56900000Y-43800000D02*
X56500000Y-44200000D01*
X57500000Y-43800000D02*
X56900000Y-43800000D01*
X57800000Y-44100000D02*
X57500000Y-43800000D01*
X58900000Y-64100000D02*
X58400000Y-64100000D01*
X60200000Y-65400000D02*
X58900000Y-64100000D01*
X66100000Y-65400000D02*
X60200000Y-65400000D01*
X57200000Y-45288408D02*
X57200000Y-44500000D01*
X52388408Y-50100000D02*
X57200000Y-45288408D01*
X43880000Y-50100000D02*
X52388408Y-50100000D01*
X43180000Y-50800000D02*
X43880000Y-50100000D01*
X63741888Y-45233194D02*
X67900000Y-49391306D01*
X57758112Y-45233194D02*
X63741888Y-45233194D01*
X52491306Y-50500000D02*
X57758112Y-45233194D01*
X46020000Y-50500000D02*
X52491306Y-50500000D01*
X46020000Y-50500000D02*
X45720000Y-50800000D01*
X67900000Y-64600000D02*
X66400000Y-66100000D01*
X67900000Y-64600000D02*
X67900000Y-49391306D01*
X59200000Y-66100000D02*
X66400000Y-66100000D01*
X58500000Y-65400000D02*
X59200000Y-66100000D01*
X66100000Y-63000000D02*
X66100000Y-64400000D01*
X68300000Y-64702898D02*
X66502898Y-66500000D01*
X40988796Y-49388796D02*
X40700000Y-49100000D01*
X52093816Y-49388796D02*
X40988796Y-49388796D01*
X56144398Y-45338214D02*
X52093816Y-49388796D01*
X56144398Y-44052704D02*
X56144398Y-45338214D01*
X56752704Y-43444398D02*
X56144398Y-44052704D01*
X62455990Y-43444398D02*
X56752704Y-43444398D01*
X68300000Y-49288408D02*
X62455990Y-43444398D01*
X68300000Y-64702898D02*
X68300000Y-49288408D01*
X58700000Y-66500000D02*
X66502898Y-66500000D01*
X58500000Y-66700000D02*
X58700000Y-66500000D01*
X68700000Y-65000000D02*
X68700000Y-49185510D01*
X62600000Y-43088796D02*
X62603286Y-43088796D01*
X62603286Y-43088796D02*
X68700000Y-49185510D01*
X43633194Y-49033194D02*
X43200000Y-48600000D01*
X51946520Y-49033194D02*
X43633194Y-49033194D01*
X55788796Y-45190918D02*
X51946520Y-49033194D01*
X55788796Y-43905408D02*
X55788796Y-45190918D01*
X56605408Y-43088796D02*
X55788796Y-43905408D01*
X62600000Y-43088796D02*
X56605408Y-43088796D01*
X68700000Y-65000000D02*
X66500000Y-67200000D01*
X66500000Y-67200000D02*
X66100000Y-67200000D01*
X58500000Y-68000000D02*
X58555000Y-67945000D01*
X58555000Y-67945000D02*
X66908510Y-67945000D01*
X69100000Y-65753510D02*
X69100000Y-49082612D01*
X69100000Y-65753510D02*
X66908510Y-67945000D01*
X52176816Y-48300000D02*
X45700000Y-48300000D01*
X55400000Y-45076816D02*
X52176816Y-48300000D01*
X55400000Y-43791306D02*
X55400000Y-45076816D01*
X56458112Y-42733194D02*
X55400000Y-43791306D01*
X62750582Y-42733194D02*
X56458112Y-42733194D01*
X69100000Y-49082612D02*
X62750582Y-42733194D01*
X69500000Y-67111592D02*
X69500000Y-48979714D01*
X68310990Y-68300602D02*
X59399398Y-68300602D01*
X68310990Y-68300602D02*
X69500000Y-67111592D01*
X69500000Y-48979714D02*
X62897878Y-42377592D01*
X62897878Y-42377592D02*
X56222408Y-42377592D01*
X56222408Y-42377592D02*
X51900000Y-46700000D01*
X51900000Y-46700000D02*
X40800000Y-46700000D01*
X58500000Y-69200000D02*
X59399398Y-68300602D01*
X69900000Y-67300000D02*
X69900000Y-48876816D01*
X69900000Y-67300000D02*
X68000000Y-69200000D01*
X69900000Y-48876816D02*
X63045174Y-42021990D01*
X63045174Y-42021990D02*
X56075112Y-42021990D01*
X56075112Y-42021990D02*
X52097102Y-46000000D01*
X52097102Y-46000000D02*
X43100000Y-46000000D01*
X68000000Y-69200000D02*
X65900000Y-69200000D01*
X67917388Y-69900000D02*
X70300000Y-67517388D01*
X70300000Y-67517388D02*
X70300000Y-48600000D01*
X70300000Y-48600000D02*
X63366388Y-41666388D01*
X63366388Y-41666388D02*
X55927816Y-41666388D01*
X55927816Y-41666388D02*
X52294204Y-45300000D01*
X52294204Y-45300000D02*
X45700000Y-45300000D01*
X59100000Y-69900000D02*
X67917388Y-69900000D01*
X58500000Y-70500000D02*
X59100000Y-69900000D01*
X68164684Y-70255602D02*
X70700000Y-67720286D01*
X70700000Y-67720286D02*
X70700000Y-48497102D01*
X70700000Y-48497102D02*
X63513684Y-41310786D01*
X63513684Y-41310786D02*
X55780520Y-41310786D01*
X55780520Y-41310786D02*
X52491306Y-44600000D01*
X52491306Y-44600000D02*
X41300000Y-44600000D01*
X41300000Y-44600000D02*
X40700000Y-44000000D01*
X59844398Y-70255602D02*
X68164684Y-70255602D01*
X58400000Y-71700000D02*
X59844398Y-70255602D01*
X71055602Y-48349806D02*
X63660980Y-40955184D01*
X63660980Y-40955184D02*
X55633224Y-40955184D01*
X55633224Y-40955184D02*
X52688408Y-43900000D01*
X52688408Y-43900000D02*
X43300000Y-43900000D01*
X67323184Y-71800000D02*
X71055602Y-68067582D01*
X71055602Y-68067582D02*
X71055602Y-48349806D01*
X67200000Y-71800000D02*
X65900000Y-71800000D01*
X67200000Y-71800000D02*
X67323184Y-71800000D01*
X66826082Y-72800000D02*
X71500000Y-68126082D01*
X71500000Y-68126082D02*
X71500000Y-48200000D01*
X71500000Y-48200000D02*
X63899582Y-40599582D01*
X63899582Y-40599582D02*
X55485928Y-40599582D01*
X55485928Y-40599582D02*
X52985510Y-43100000D01*
X52985510Y-43100000D02*
X45800000Y-43100000D01*
X58700000Y-72800000D02*
X66826082Y-72800000D01*
X58400000Y-73100000D02*
X58700000Y-72800000D01*
X68100000Y-76433194D02*
X67400000Y-77133194D01*
X67300000Y-77133194D02*
X67166388Y-77133194D01*
X54222766Y-77699582D02*
X53656378Y-77133194D01*
X66600000Y-77699582D02*
X54222766Y-77699582D01*
X67166388Y-77133194D02*
X66600000Y-77699582D01*
X53656378Y-77133194D02*
X48523184Y-72000000D01*
X48523184Y-72000000D02*
X45800000Y-72000000D01*
X67400000Y-77133194D02*
X67300000Y-77133194D01*
X76133194Y-76433194D02*
X68100000Y-76433194D01*
X77300000Y-77600000D02*
X76133194Y-76433194D01*
X54443980Y-77343980D02*
X53877592Y-76777592D01*
X66300000Y-77343980D02*
X54443980Y-77343980D01*
X53877592Y-76777592D02*
X48400000Y-71300000D01*
X78300000Y-77600000D02*
X76777592Y-76077592D01*
X67722408Y-76077592D02*
X67022408Y-76777592D01*
X76777592Y-76077592D02*
X67722408Y-76077592D01*
X66900000Y-76777592D02*
X66866388Y-76777592D01*
X66866388Y-76777592D02*
X66300000Y-77343980D01*
X67022408Y-76777592D02*
X66900000Y-76777592D01*
X49017388Y-73500000D02*
X42300000Y-73500000D01*
X42300000Y-73500000D02*
X40800000Y-72000000D01*
X67292112Y-78410786D02*
X53928174Y-78410786D01*
X53361786Y-77844398D02*
X49017388Y-73500000D01*
X53928174Y-78410786D02*
X53361786Y-77844398D01*
X75700000Y-78000000D02*
X74844398Y-77144398D01*
X74844398Y-77144398D02*
X68900000Y-77144398D01*
X68900000Y-77144398D02*
X68558500Y-77144398D01*
X68558500Y-77144398D02*
X67292112Y-78410786D01*
X67100000Y-78055184D02*
X67144816Y-78055184D01*
X44400000Y-73100000D02*
X43200000Y-71900000D01*
X49120286Y-73100000D02*
X44400000Y-73100000D01*
X53509082Y-77488796D02*
X49120286Y-73100000D01*
X67100000Y-78055184D02*
X54075470Y-78055184D01*
X54075470Y-78055184D02*
X53509082Y-77488796D01*
X67144816Y-78055184D02*
X68411204Y-76788796D01*
X75300000Y-76788796D02*
X68411204Y-76788796D01*
X75488796Y-76788796D02*
X77044398Y-78344398D01*
X75300000Y-76788796D02*
X75488796Y-76788796D01*
X78955602Y-78344398D02*
X79300000Y-78000000D01*
X77044398Y-78344398D02*
X78955602Y-78344398D01*
X79900000Y-78700000D02*
X80600000Y-78000000D01*
X79900000Y-78700000D02*
X75400000Y-78700000D01*
X75400000Y-78700000D02*
X74200000Y-77500000D01*
X74200000Y-77500000D02*
X69200000Y-77500000D01*
X69200000Y-77500000D02*
X69000000Y-77500000D01*
X53780878Y-78766388D02*
X53214490Y-78200000D01*
X67733612Y-78766388D02*
X53928174Y-78766388D01*
X49214490Y-74200000D02*
X48300000Y-74200000D01*
X53214490Y-78200000D02*
X49214490Y-74200000D01*
X53928174Y-78766388D02*
X53780878Y-78766388D01*
X69000000Y-77500000D02*
X67733612Y-78766388D01*
X72500000Y-78100000D02*
X72500000Y-78000000D01*
X72310995Y-77910995D02*
X72600000Y-78200000D01*
X72600000Y-78200000D02*
X72500000Y-78100000D01*
X69210995Y-77910995D02*
X72310995Y-77910995D01*
X69221990Y-77900000D02*
X69210995Y-77910995D01*
X69210995Y-77910995D02*
X68000000Y-79121990D01*
X46144398Y-74944398D02*
X45700000Y-74500000D01*
X49455990Y-74944398D02*
X46144398Y-74944398D01*
X53111592Y-78600000D02*
X49455990Y-74944398D01*
X68000000Y-79121990D02*
X53633582Y-79121990D01*
X53633582Y-79121990D02*
X53111592Y-78600000D01*
X66100000Y-76066388D02*
X66066388Y-76066388D01*
X55235674Y-76632776D02*
X54669286Y-76066388D01*
X65500000Y-76632776D02*
X55235674Y-76632776D01*
X66066388Y-76066388D02*
X65500000Y-76632776D01*
X54669286Y-76066388D02*
X48847296Y-70244398D01*
X48847296Y-70244398D02*
X43944398Y-70244398D01*
X43944398Y-70244398D02*
X43200000Y-69500000D01*
X66633612Y-76066388D02*
X66100000Y-76066388D01*
X68000000Y-74700000D02*
X66633612Y-76066388D01*
X73600000Y-74700000D02*
X68000000Y-74700000D01*
X74600000Y-75700000D02*
X73600000Y-74700000D01*
X78000000Y-75700000D02*
X74600000Y-75700000D01*
X78900000Y-76600000D02*
X78000000Y-75700000D01*
X72500000Y-75400000D02*
X72200000Y-75700000D01*
X72200000Y-75700000D02*
X67521990Y-75700000D01*
X67521990Y-75700000D02*
X66800000Y-76421990D01*
X66800000Y-76421990D02*
X66500000Y-76421990D01*
X41800000Y-70600000D02*
X40700000Y-69500000D01*
X48700000Y-70600000D02*
X41800000Y-70600000D01*
X54521990Y-76421990D02*
X48700000Y-70600000D01*
X66366388Y-76421990D02*
X65800000Y-76988378D01*
X65800000Y-76988378D02*
X55088378Y-76988378D01*
X55088378Y-76988378D02*
X54521990Y-76421990D01*
X66500000Y-76421990D02*
X66366388Y-76421990D01*
X73300000Y-75400000D02*
X72500000Y-75400000D01*
X77090000Y-72200000D02*
X77915000Y-73025000D01*
X77090000Y-72200000D02*
X69300000Y-72200000D01*
X69300000Y-72200000D02*
X66144816Y-75355184D01*
X66144816Y-75355184D02*
X65519092Y-75355184D01*
X65519092Y-75355184D02*
X64952704Y-75921572D01*
X64952704Y-75921572D02*
X55530266Y-75921572D01*
X55530266Y-75921572D02*
X48508694Y-68900000D01*
X48508694Y-68900000D02*
X48300000Y-68900000D01*
X65800000Y-75710786D02*
X65666388Y-75710786D01*
X65666388Y-75710786D02*
X65100000Y-76277174D01*
X66389214Y-75710786D02*
X65800000Y-75710786D01*
X67800000Y-74300000D02*
X66389214Y-75710786D01*
X73210000Y-74300000D02*
X67800000Y-74300000D01*
X73210000Y-74300000D02*
X74485000Y-73025000D01*
X65100000Y-76277174D02*
X55382970Y-76277174D01*
X55382970Y-76277174D02*
X54816582Y-75710786D01*
X54816582Y-75710786D02*
X48805796Y-69700000D01*
X48805796Y-69700000D02*
X46200000Y-69700000D01*
X46200000Y-69700000D02*
X45800000Y-69300000D01*
D13*
G36*
X113285600Y-85436100D02*
X39114400Y-85436100D01*
X39114400Y-79919428D01*
X39491808Y-79919428D01*
X39660136Y-80326812D01*
X39971549Y-80638769D01*
X40378638Y-80807807D01*
X40554104Y-80807960D01*
X43723071Y-83976928D01*
X43987768Y-84153793D01*
X44039571Y-84164097D01*
X44300000Y-84215900D01*
X68648720Y-84215900D01*
X68671549Y-84238769D01*
X69078638Y-84407807D01*
X69519428Y-84408192D01*
X69926812Y-84239864D01*
X70106566Y-84060423D01*
X71023071Y-84976928D01*
X71287768Y-85153793D01*
X71339571Y-85164097D01*
X71600000Y-85215900D01*
X81400000Y-85215900D01*
X81712231Y-85153793D01*
X81976928Y-84976928D01*
X83476928Y-83476929D01*
X83653793Y-83212232D01*
X83678396Y-83088545D01*
X83838769Y-82928451D01*
X84007807Y-82521362D01*
X84008192Y-82080572D01*
X83839864Y-81673188D01*
X83528451Y-81361231D01*
X83121362Y-81192193D01*
X82758869Y-81191876D01*
X82628451Y-81061231D01*
X82221362Y-80892193D01*
X82195358Y-80892170D01*
X82307807Y-80621362D01*
X82308192Y-80180572D01*
X82139864Y-79773188D01*
X81914101Y-79547031D01*
X82007807Y-79321362D01*
X82008192Y-78880572D01*
X81839864Y-78473188D01*
X81672752Y-78305784D01*
X81707807Y-78221362D01*
X81708192Y-77780572D01*
X81539864Y-77373188D01*
X81228451Y-77061231D01*
X80821362Y-76892193D01*
X80380572Y-76891808D01*
X79973188Y-77060136D01*
X79950233Y-77083051D01*
X79928451Y-77061231D01*
X79911182Y-77054060D01*
X80007807Y-76821362D01*
X80008192Y-76380572D01*
X79839864Y-75973188D01*
X79528451Y-75661231D01*
X79121362Y-75492193D01*
X78945896Y-75492040D01*
X78576928Y-75123072D01*
X78312231Y-74946207D01*
X78000000Y-74884100D01*
X77561763Y-74884100D01*
X77562236Y-74342770D01*
X77430300Y-74023459D01*
X77693638Y-74132807D01*
X78134428Y-74133192D01*
X78541812Y-73964864D01*
X78853769Y-73653451D01*
X79022807Y-73246362D01*
X79023192Y-72805572D01*
X78854864Y-72398188D01*
X78543451Y-72086231D01*
X78136362Y-71917193D01*
X77960896Y-71917040D01*
X77666928Y-71623072D01*
X77402231Y-71446207D01*
X77090000Y-71384100D01*
X69395838Y-71384100D01*
X72076928Y-68703011D01*
X72253793Y-68438314D01*
X72279752Y-68307807D01*
X72315900Y-68126082D01*
X72315900Y-61407927D01*
X72619428Y-61408192D01*
X73026812Y-61239864D01*
X73150993Y-61115900D01*
X79362044Y-61115900D01*
X80883682Y-62637538D01*
X80883682Y-73325664D01*
X80931366Y-73565385D01*
X80945789Y-73637895D01*
X81122654Y-73902592D01*
X86752592Y-79532531D01*
X87017289Y-79709395D01*
X87329520Y-79771502D01*
X99491937Y-79771502D01*
X99491808Y-79919428D01*
X99660136Y-80326812D01*
X99971549Y-80638769D01*
X100378638Y-80807807D01*
X100619261Y-80808017D01*
X100687769Y-80853793D01*
X101000000Y-80915900D01*
X103100000Y-80915900D01*
X103412231Y-80853793D01*
X103676928Y-80676928D01*
X104482355Y-79871502D01*
X111391206Y-79871502D01*
X111478638Y-79907807D01*
X111919428Y-79908192D01*
X112326812Y-79739864D01*
X112638769Y-79428451D01*
X112807807Y-79021362D01*
X112808192Y-78580572D01*
X112639864Y-78173188D01*
X112328451Y-77861231D01*
X111921362Y-77692193D01*
X111480572Y-77691808D01*
X111073188Y-77860136D01*
X110761231Y-78171549D01*
X110732931Y-78239702D01*
X110300192Y-78239702D01*
X110307807Y-78221362D01*
X110308192Y-77780572D01*
X110139864Y-77373188D01*
X110038355Y-77271502D01*
X111344398Y-77271502D01*
X111656629Y-77209395D01*
X111658770Y-77207964D01*
X111919428Y-77208192D01*
X112326812Y-77039864D01*
X112638769Y-76728451D01*
X112807807Y-76321362D01*
X112808192Y-75880572D01*
X112639864Y-75473188D01*
X112328451Y-75161231D01*
X111921362Y-74992193D01*
X111480572Y-74991808D01*
X111073188Y-75160136D01*
X110761231Y-75471549D01*
X110691408Y-75639702D01*
X110300192Y-75639702D01*
X110307807Y-75621362D01*
X110308192Y-75180572D01*
X110162142Y-74827104D01*
X111288796Y-74827104D01*
X111601027Y-74764997D01*
X111686346Y-74707988D01*
X111919428Y-74708192D01*
X112326812Y-74539864D01*
X112638769Y-74228451D01*
X112807807Y-73821362D01*
X112808192Y-73380572D01*
X112639864Y-72973188D01*
X112328451Y-72661231D01*
X111921362Y-72492193D01*
X111480572Y-72491808D01*
X111073188Y-72660136D01*
X110761231Y-72971549D01*
X110668320Y-73195304D01*
X110277104Y-73195304D01*
X110307807Y-73121362D01*
X110308192Y-72680572D01*
X110139864Y-72273188D01*
X110038355Y-72171502D01*
X111444398Y-72171502D01*
X111756629Y-72109395D01*
X111758770Y-72107964D01*
X112019428Y-72108192D01*
X112426812Y-71939864D01*
X112738769Y-71628451D01*
X112907807Y-71221362D01*
X112908192Y-70780572D01*
X112739864Y-70373188D01*
X112428451Y-70061231D01*
X112021362Y-69892193D01*
X111580572Y-69891808D01*
X111173188Y-70060136D01*
X110861231Y-70371549D01*
X110791408Y-70539702D01*
X110307878Y-70539702D01*
X110308192Y-70180572D01*
X110139864Y-69773188D01*
X109938530Y-69571502D01*
X111491206Y-69571502D01*
X111578638Y-69607807D01*
X112019428Y-69608192D01*
X112426812Y-69439864D01*
X112738769Y-69128451D01*
X112907807Y-68721362D01*
X112908192Y-68280572D01*
X112739864Y-67873188D01*
X112428451Y-67561231D01*
X112021362Y-67392193D01*
X111580572Y-67391808D01*
X111173188Y-67560136D01*
X110861231Y-67871549D01*
X110832931Y-67939702D01*
X110307878Y-67939702D01*
X110308192Y-67580572D01*
X110244780Y-67427104D01*
X111088796Y-67427104D01*
X111401027Y-67364997D01*
X111665724Y-67188132D01*
X111745816Y-67108040D01*
X111919428Y-67108192D01*
X112326812Y-66939864D01*
X112638769Y-66628451D01*
X112807807Y-66221362D01*
X112808192Y-65780572D01*
X112639864Y-65373188D01*
X112328451Y-65061231D01*
X111921362Y-64892193D01*
X111480572Y-64891808D01*
X111073188Y-65060136D01*
X110761231Y-65371549D01*
X110592193Y-65778638D01*
X110592178Y-65795304D01*
X110194056Y-65795304D01*
X110307807Y-65521362D01*
X110308192Y-65080572D01*
X110180487Y-64771502D01*
X111244398Y-64771502D01*
X111556629Y-64709395D01*
X111708366Y-64608008D01*
X111919428Y-64608192D01*
X112326812Y-64439864D01*
X112638769Y-64128451D01*
X112807807Y-63721362D01*
X112808192Y-63280572D01*
X112639864Y-62873188D01*
X112328451Y-62561231D01*
X111921362Y-62392193D01*
X111480572Y-62391808D01*
X111073188Y-62560136D01*
X110761231Y-62871549D01*
X110649884Y-63139702D01*
X110300192Y-63139702D01*
X110307807Y-63121362D01*
X110308192Y-62680572D01*
X110162142Y-62327104D01*
X111088796Y-62327104D01*
X111401027Y-62264997D01*
X111665724Y-62088132D01*
X111745816Y-62008040D01*
X111919428Y-62008192D01*
X112326812Y-61839864D01*
X112638769Y-61528451D01*
X112807807Y-61121362D01*
X112808192Y-60680572D01*
X112639864Y-60273188D01*
X112328451Y-59961231D01*
X111921362Y-59792193D01*
X111480572Y-59791808D01*
X111073188Y-59960136D01*
X110761231Y-60271549D01*
X110592193Y-60678638D01*
X110592178Y-60695304D01*
X110194056Y-60695304D01*
X110307807Y-60421362D01*
X110308192Y-59980572D01*
X110203461Y-59727104D01*
X111288796Y-59727104D01*
X111601027Y-59664997D01*
X111835942Y-59508032D01*
X112019428Y-59508192D01*
X112426812Y-59339864D01*
X112738769Y-59028451D01*
X112907807Y-58621362D01*
X112908192Y-58180572D01*
X112739864Y-57773188D01*
X112428451Y-57461231D01*
X112021362Y-57292193D01*
X111580572Y-57291808D01*
X111173188Y-57460136D01*
X110861231Y-57771549D01*
X110726796Y-58095304D01*
X110194056Y-58095304D01*
X110307807Y-57821362D01*
X110308192Y-57380572D01*
X110203461Y-57127104D01*
X111188796Y-57127104D01*
X111501027Y-57064997D01*
X111735942Y-56908032D01*
X111919428Y-56908192D01*
X112326812Y-56739864D01*
X112638769Y-56428451D01*
X112807807Y-56021362D01*
X112808192Y-55580572D01*
X112639864Y-55173188D01*
X112328451Y-54861231D01*
X111921362Y-54692193D01*
X111480572Y-54691808D01*
X111073188Y-54860136D01*
X110761231Y-55171549D01*
X110626796Y-55495304D01*
X110194056Y-55495304D01*
X110307807Y-55221362D01*
X110308192Y-54780572D01*
X110244780Y-54627104D01*
X111088796Y-54627104D01*
X111401027Y-54564997D01*
X111665724Y-54388132D01*
X111745816Y-54308040D01*
X111919428Y-54308192D01*
X112326812Y-54139864D01*
X112638769Y-53828451D01*
X112807807Y-53421362D01*
X112808192Y-52980572D01*
X112639864Y-52573188D01*
X112328451Y-52261231D01*
X111921362Y-52092193D01*
X111480572Y-52091808D01*
X111073188Y-52260136D01*
X110761231Y-52571549D01*
X110592193Y-52978638D01*
X110592178Y-52995304D01*
X110194056Y-52995304D01*
X110307807Y-52721362D01*
X110308192Y-52280572D01*
X110139864Y-51873188D01*
X109828451Y-51561231D01*
X109719282Y-51515900D01*
X111048894Y-51515900D01*
X111171549Y-51638769D01*
X111578638Y-51807807D01*
X112019428Y-51808192D01*
X112426812Y-51639864D01*
X112738769Y-51328451D01*
X112907807Y-50921362D01*
X112908192Y-50480572D01*
X112739864Y-50073188D01*
X112428451Y-49761231D01*
X112021362Y-49592193D01*
X111580572Y-49591808D01*
X111173188Y-49760136D01*
X111049007Y-49884100D01*
X110308102Y-49884100D01*
X110308192Y-49780572D01*
X110139864Y-49373188D01*
X109982850Y-49215900D01*
X111048720Y-49215900D01*
X111071549Y-49238769D01*
X111478638Y-49407807D01*
X111919428Y-49408192D01*
X112326812Y-49239864D01*
X112638769Y-48928451D01*
X112807807Y-48521362D01*
X112808192Y-48080572D01*
X112639864Y-47673188D01*
X112328451Y-47361231D01*
X111921362Y-47192193D01*
X111480572Y-47191808D01*
X111073188Y-47360136D01*
X110848833Y-47584100D01*
X110308102Y-47584100D01*
X110308192Y-47480572D01*
X110139864Y-47073188D01*
X109894209Y-46827104D01*
X111388796Y-46827104D01*
X111485777Y-46807813D01*
X111919428Y-46808192D01*
X112326812Y-46639864D01*
X112638769Y-46328451D01*
X112807807Y-45921362D01*
X112808192Y-45480572D01*
X112639864Y-45073188D01*
X112328451Y-44761231D01*
X111921362Y-44592193D01*
X111480572Y-44591808D01*
X111073188Y-44760136D01*
X110761231Y-45071549D01*
X110709843Y-45195304D01*
X110307830Y-45195304D01*
X110308192Y-44780572D01*
X110198832Y-44515900D01*
X111200000Y-44515900D01*
X111512231Y-44453793D01*
X111730385Y-44308027D01*
X111919428Y-44308192D01*
X112326812Y-44139864D01*
X112638769Y-43828451D01*
X112807807Y-43421362D01*
X112808192Y-42980572D01*
X112639864Y-42573188D01*
X112328451Y-42261231D01*
X111921362Y-42092193D01*
X111480572Y-42091808D01*
X111073188Y-42260136D01*
X110761231Y-42571549D01*
X110631449Y-42884100D01*
X110308102Y-42884100D01*
X110308192Y-42780572D01*
X110139864Y-42373188D01*
X109828451Y-42061231D01*
X109421362Y-41892193D01*
X108980572Y-41891808D01*
X108573188Y-42060136D01*
X108449007Y-42184100D01*
X107808102Y-42184100D01*
X107808192Y-42080572D01*
X107639864Y-41673188D01*
X107328451Y-41361231D01*
X106921362Y-41192193D01*
X106480572Y-41191808D01*
X106073188Y-41360136D01*
X105949007Y-41484100D01*
X100200000Y-41484100D01*
X99887769Y-41546207D01*
X99623072Y-41723071D01*
X93554184Y-47791960D01*
X93380572Y-47791808D01*
X92973188Y-47960136D01*
X92661231Y-48271549D01*
X92492193Y-48678638D01*
X92492101Y-48784100D01*
X87600000Y-48784100D01*
X87339571Y-48835903D01*
X87287768Y-48846207D01*
X87023071Y-49023072D01*
X86954183Y-49091960D01*
X86780572Y-49091808D01*
X86373188Y-49260136D01*
X86061231Y-49571549D01*
X85892193Y-49978638D01*
X85891966Y-50238109D01*
X83976928Y-48323072D01*
X83712231Y-48146207D01*
X83687094Y-48141207D01*
X83400000Y-48084100D01*
X73151106Y-48084100D01*
X73028451Y-47961231D01*
X72621362Y-47792193D01*
X72189680Y-47791816D01*
X72076928Y-47623071D01*
X72031087Y-47577230D01*
X88807764Y-47577230D01*
X89014679Y-48078003D01*
X89397482Y-48461474D01*
X89897893Y-48669263D01*
X90439730Y-48669736D01*
X90940503Y-48462821D01*
X91323974Y-48080018D01*
X91531763Y-47579607D01*
X91532236Y-47037770D01*
X91325321Y-46536997D01*
X90942518Y-46153526D01*
X90442107Y-45945737D01*
X89900270Y-45945264D01*
X89399497Y-46152179D01*
X89016026Y-46534982D01*
X88808237Y-47035393D01*
X88807764Y-47577230D01*
X72031087Y-47577230D01*
X65681087Y-41227230D01*
X74837764Y-41227230D01*
X75044679Y-41728003D01*
X75427482Y-42111474D01*
X75927893Y-42319263D01*
X76469730Y-42319736D01*
X76970503Y-42112821D01*
X77353974Y-41730018D01*
X77561763Y-41229607D01*
X77562236Y-40687770D01*
X77355321Y-40186997D01*
X76972518Y-39803526D01*
X76472107Y-39595737D01*
X75930270Y-39595264D01*
X75429497Y-39802179D01*
X75046026Y-40184982D01*
X74838237Y-40685393D01*
X74837764Y-41227230D01*
X65681087Y-41227230D01*
X64476510Y-40022654D01*
X64211813Y-39845789D01*
X63899582Y-39783682D01*
X55485928Y-39783682D01*
X55225499Y-39835485D01*
X55173696Y-39845789D01*
X54909000Y-40022654D01*
X52647554Y-42284100D01*
X46551106Y-42284100D01*
X46428451Y-42161231D01*
X46021362Y-41992193D01*
X45580572Y-41991808D01*
X45173188Y-42160136D01*
X44861231Y-42471549D01*
X44692193Y-42878638D01*
X44692014Y-43084100D01*
X44051106Y-43084100D01*
X43928451Y-42961231D01*
X43521362Y-42792193D01*
X43080572Y-42791808D01*
X42673188Y-42960136D01*
X42361231Y-43271549D01*
X42192193Y-43678638D01*
X42192101Y-43784100D01*
X41808189Y-43784100D01*
X41808192Y-43780572D01*
X41639864Y-43373188D01*
X41328451Y-43061231D01*
X40921362Y-42892193D01*
X40480572Y-42891808D01*
X40073188Y-43060136D01*
X39761231Y-43371549D01*
X39592193Y-43778638D01*
X39591808Y-44219428D01*
X39760136Y-44626812D01*
X40071549Y-44938769D01*
X40478638Y-45107807D01*
X40654103Y-45107960D01*
X40723071Y-45176928D01*
X40987768Y-45353793D01*
X41039571Y-45364097D01*
X41300000Y-45415900D01*
X42142815Y-45415900D01*
X41992193Y-45778638D01*
X41992101Y-45884100D01*
X41551106Y-45884100D01*
X41428451Y-45761231D01*
X41021362Y-45592193D01*
X40580572Y-45591808D01*
X40173188Y-45760136D01*
X39861231Y-46071549D01*
X39692193Y-46478638D01*
X39691808Y-46919428D01*
X39860136Y-47326812D01*
X40171549Y-47638769D01*
X40578638Y-47807807D01*
X41019428Y-47808192D01*
X41426812Y-47639864D01*
X41550993Y-47515900D01*
X42922265Y-47515900D01*
X42573188Y-47660136D01*
X42261231Y-47971549D01*
X42092193Y-48378638D01*
X42092023Y-48572896D01*
X41681063Y-48572896D01*
X41639864Y-48473188D01*
X41328451Y-48161231D01*
X40921362Y-47992193D01*
X40480572Y-47991808D01*
X40073188Y-48160136D01*
X39761231Y-48471549D01*
X39592193Y-48878638D01*
X39591808Y-49319428D01*
X39760136Y-49726812D01*
X40071549Y-50038769D01*
X40098159Y-50049818D01*
X40073188Y-50060136D01*
X39761231Y-50371549D01*
X39592193Y-50778638D01*
X39591808Y-51219428D01*
X39760136Y-51626812D01*
X40071549Y-51938769D01*
X40478638Y-52107807D01*
X40919428Y-52108192D01*
X41326812Y-51939864D01*
X41450993Y-51815900D01*
X42000000Y-51815900D01*
X42312231Y-51753793D01*
X42464789Y-51651857D01*
X42551549Y-51738769D01*
X42958638Y-51907807D01*
X43399428Y-51908192D01*
X43806812Y-51739864D01*
X44118769Y-51428451D01*
X44287807Y-51021362D01*
X44287899Y-50915900D01*
X44611898Y-50915900D01*
X44611808Y-51019428D01*
X44780136Y-51426812D01*
X45091549Y-51738769D01*
X45498638Y-51907807D01*
X45939428Y-51908192D01*
X46346812Y-51739864D01*
X46658769Y-51428451D01*
X46705504Y-51315900D01*
X48630243Y-51315900D01*
X46766492Y-53179651D01*
X46639864Y-52873188D01*
X46328451Y-52561231D01*
X45921362Y-52392193D01*
X45480572Y-52391808D01*
X45073188Y-52560136D01*
X44761231Y-52871549D01*
X44633358Y-53179502D01*
X44476928Y-53023072D01*
X44212231Y-52846207D01*
X43900000Y-52784100D01*
X41644373Y-52784100D01*
X41639864Y-52773188D01*
X41328451Y-52461231D01*
X40921362Y-52292193D01*
X40480572Y-52291808D01*
X40073188Y-52460136D01*
X39761231Y-52771549D01*
X39592193Y-53178638D01*
X39591808Y-53619428D01*
X39760136Y-54026812D01*
X40071549Y-54338769D01*
X40478638Y-54507807D01*
X40919428Y-54508192D01*
X41142791Y-54415900D01*
X42191898Y-54415900D01*
X42191808Y-54519428D01*
X42360136Y-54926812D01*
X42671549Y-55238769D01*
X43078638Y-55407807D01*
X43254104Y-55407960D01*
X43438264Y-55592120D01*
X43080572Y-55591808D01*
X42673188Y-55760136D01*
X42361231Y-56071549D01*
X42192193Y-56478638D01*
X42191808Y-56919428D01*
X42218530Y-56984100D01*
X42037957Y-56984100D01*
X41808040Y-56754184D01*
X41808192Y-56580572D01*
X41639864Y-56173188D01*
X41328451Y-55861231D01*
X40921362Y-55692193D01*
X40480572Y-55691808D01*
X40073188Y-55860136D01*
X39761231Y-56171549D01*
X39592193Y-56578638D01*
X39591808Y-57019428D01*
X39760136Y-57426812D01*
X40071549Y-57738769D01*
X40478638Y-57907807D01*
X40654104Y-57907960D01*
X40950389Y-58204246D01*
X40921362Y-58192193D01*
X40480572Y-58191808D01*
X40073188Y-58360136D01*
X39761231Y-58671549D01*
X39592193Y-59078638D01*
X39591808Y-59519428D01*
X39760136Y-59926812D01*
X40071549Y-60238769D01*
X40478638Y-60407807D01*
X40654104Y-60407960D01*
X40938264Y-60692120D01*
X40580572Y-60691808D01*
X40173188Y-60860136D01*
X39861231Y-61171549D01*
X39692193Y-61578638D01*
X39691808Y-62019428D01*
X39860136Y-62426812D01*
X40171549Y-62738769D01*
X40578638Y-62907807D01*
X40754104Y-62907960D01*
X41223072Y-63376929D01*
X41441792Y-63523072D01*
X41487769Y-63553793D01*
X41800000Y-63615900D01*
X42416977Y-63615900D01*
X42361231Y-63671549D01*
X42192193Y-64078638D01*
X42191808Y-64519428D01*
X42218530Y-64584100D01*
X42037957Y-64584100D01*
X41808040Y-64354184D01*
X41808192Y-64180572D01*
X41639864Y-63773188D01*
X41328451Y-63461231D01*
X40921362Y-63292193D01*
X40480572Y-63291808D01*
X40073188Y-63460136D01*
X39761231Y-63771549D01*
X39592193Y-64178638D01*
X39591808Y-64619428D01*
X39760136Y-65026812D01*
X40071549Y-65338769D01*
X40478638Y-65507807D01*
X40654104Y-65507960D01*
X41121398Y-65975255D01*
X40921362Y-65892193D01*
X40480572Y-65891808D01*
X40073188Y-66060136D01*
X39761231Y-66371549D01*
X39592193Y-66778638D01*
X39591808Y-67219428D01*
X39760136Y-67626812D01*
X40071549Y-67938769D01*
X40478638Y-68107807D01*
X40654104Y-68107960D01*
X40950391Y-68404247D01*
X40921362Y-68392193D01*
X40480572Y-68391808D01*
X40073188Y-68560136D01*
X39761231Y-68871549D01*
X39592193Y-69278638D01*
X39591808Y-69719428D01*
X39760136Y-70126812D01*
X40071549Y-70438769D01*
X40478638Y-70607807D01*
X40654104Y-70607960D01*
X40938264Y-70892120D01*
X40580572Y-70891808D01*
X40173188Y-71060136D01*
X39861231Y-71371549D01*
X39692193Y-71778638D01*
X39691808Y-72219428D01*
X39860136Y-72626812D01*
X40171549Y-72938769D01*
X40578638Y-73107807D01*
X40754104Y-73107960D01*
X41121399Y-73475256D01*
X40921362Y-73392193D01*
X40480572Y-73391808D01*
X40073188Y-73560136D01*
X39761231Y-73871549D01*
X39592193Y-74278638D01*
X39591808Y-74719428D01*
X39760136Y-75126812D01*
X40071549Y-75438769D01*
X40478638Y-75607807D01*
X40654104Y-75607960D01*
X40950390Y-75904246D01*
X40921362Y-75892193D01*
X40480572Y-75891808D01*
X40073188Y-76060136D01*
X39761231Y-76371549D01*
X39592193Y-76778638D01*
X39591808Y-77219428D01*
X39760136Y-77626812D01*
X40071549Y-77938769D01*
X40478638Y-78107807D01*
X40654104Y-78107960D01*
X41383072Y-78836928D01*
X41647768Y-79013793D01*
X41688978Y-79021990D01*
X41960000Y-79075900D01*
X42176377Y-79075900D01*
X42092193Y-79278638D01*
X42091808Y-79719428D01*
X42260136Y-80126812D01*
X42571549Y-80438769D01*
X42978638Y-80607807D01*
X43154104Y-80607960D01*
X45130244Y-82584100D01*
X44637957Y-82584100D01*
X41708040Y-79654184D01*
X41708192Y-79480572D01*
X41539864Y-79073188D01*
X41228451Y-78761231D01*
X40821362Y-78592193D01*
X40380572Y-78591808D01*
X39973188Y-78760136D01*
X39661231Y-79071549D01*
X39492193Y-79478638D01*
X39491808Y-79919428D01*
X39114400Y-79919428D01*
X39114400Y-36483900D01*
X113285600Y-36483900D01*
X113285600Y-85436100D01*
X113285600Y-85436100D01*
G37*
X113285600Y-85436100D02*
X39114400Y-85436100D01*
X39114400Y-79919428D01*
X39491808Y-79919428D01*
X39660136Y-80326812D01*
X39971549Y-80638769D01*
X40378638Y-80807807D01*
X40554104Y-80807960D01*
X43723071Y-83976928D01*
X43987768Y-84153793D01*
X44039571Y-84164097D01*
X44300000Y-84215900D01*
X68648720Y-84215900D01*
X68671549Y-84238769D01*
X69078638Y-84407807D01*
X69519428Y-84408192D01*
X69926812Y-84239864D01*
X70106566Y-84060423D01*
X71023071Y-84976928D01*
X71287768Y-85153793D01*
X71339571Y-85164097D01*
X71600000Y-85215900D01*
X81400000Y-85215900D01*
X81712231Y-85153793D01*
X81976928Y-84976928D01*
X83476928Y-83476929D01*
X83653793Y-83212232D01*
X83678396Y-83088545D01*
X83838769Y-82928451D01*
X84007807Y-82521362D01*
X84008192Y-82080572D01*
X83839864Y-81673188D01*
X83528451Y-81361231D01*
X83121362Y-81192193D01*
X82758869Y-81191876D01*
X82628451Y-81061231D01*
X82221362Y-80892193D01*
X82195358Y-80892170D01*
X82307807Y-80621362D01*
X82308192Y-80180572D01*
X82139864Y-79773188D01*
X81914101Y-79547031D01*
X82007807Y-79321362D01*
X82008192Y-78880572D01*
X81839864Y-78473188D01*
X81672752Y-78305784D01*
X81707807Y-78221362D01*
X81708192Y-77780572D01*
X81539864Y-77373188D01*
X81228451Y-77061231D01*
X80821362Y-76892193D01*
X80380572Y-76891808D01*
X79973188Y-77060136D01*
X79950233Y-77083051D01*
X79928451Y-77061231D01*
X79911182Y-77054060D01*
X80007807Y-76821362D01*
X80008192Y-76380572D01*
X79839864Y-75973188D01*
X79528451Y-75661231D01*
X79121362Y-75492193D01*
X78945896Y-75492040D01*
X78576928Y-75123072D01*
X78312231Y-74946207D01*
X78000000Y-74884100D01*
X77561763Y-74884100D01*
X77562236Y-74342770D01*
X77430300Y-74023459D01*
X77693638Y-74132807D01*
X78134428Y-74133192D01*
X78541812Y-73964864D01*
X78853769Y-73653451D01*
X79022807Y-73246362D01*
X79023192Y-72805572D01*
X78854864Y-72398188D01*
X78543451Y-72086231D01*
X78136362Y-71917193D01*
X77960896Y-71917040D01*
X77666928Y-71623072D01*
X77402231Y-71446207D01*
X77090000Y-71384100D01*
X69395838Y-71384100D01*
X72076928Y-68703011D01*
X72253793Y-68438314D01*
X72279752Y-68307807D01*
X72315900Y-68126082D01*
X72315900Y-61407927D01*
X72619428Y-61408192D01*
X73026812Y-61239864D01*
X73150993Y-61115900D01*
X79362044Y-61115900D01*
X80883682Y-62637538D01*
X80883682Y-73325664D01*
X80931366Y-73565385D01*
X80945789Y-73637895D01*
X81122654Y-73902592D01*
X86752592Y-79532531D01*
X87017289Y-79709395D01*
X87329520Y-79771502D01*
X99491937Y-79771502D01*
X99491808Y-79919428D01*
X99660136Y-80326812D01*
X99971549Y-80638769D01*
X100378638Y-80807807D01*
X100619261Y-80808017D01*
X100687769Y-80853793D01*
X101000000Y-80915900D01*
X103100000Y-80915900D01*
X103412231Y-80853793D01*
X103676928Y-80676928D01*
X104482355Y-79871502D01*
X111391206Y-79871502D01*
X111478638Y-79907807D01*
X111919428Y-79908192D01*
X112326812Y-79739864D01*
X112638769Y-79428451D01*
X112807807Y-79021362D01*
X112808192Y-78580572D01*
X112639864Y-78173188D01*
X112328451Y-77861231D01*
X111921362Y-77692193D01*
X111480572Y-77691808D01*
X111073188Y-77860136D01*
X110761231Y-78171549D01*
X110732931Y-78239702D01*
X110300192Y-78239702D01*
X110307807Y-78221362D01*
X110308192Y-77780572D01*
X110139864Y-77373188D01*
X110038355Y-77271502D01*
X111344398Y-77271502D01*
X111656629Y-77209395D01*
X111658770Y-77207964D01*
X111919428Y-77208192D01*
X112326812Y-77039864D01*
X112638769Y-76728451D01*
X112807807Y-76321362D01*
X112808192Y-75880572D01*
X112639864Y-75473188D01*
X112328451Y-75161231D01*
X111921362Y-74992193D01*
X111480572Y-74991808D01*
X111073188Y-75160136D01*
X110761231Y-75471549D01*
X110691408Y-75639702D01*
X110300192Y-75639702D01*
X110307807Y-75621362D01*
X110308192Y-75180572D01*
X110162142Y-74827104D01*
X111288796Y-74827104D01*
X111601027Y-74764997D01*
X111686346Y-74707988D01*
X111919428Y-74708192D01*
X112326812Y-74539864D01*
X112638769Y-74228451D01*
X112807807Y-73821362D01*
X112808192Y-73380572D01*
X112639864Y-72973188D01*
X112328451Y-72661231D01*
X111921362Y-72492193D01*
X111480572Y-72491808D01*
X111073188Y-72660136D01*
X110761231Y-72971549D01*
X110668320Y-73195304D01*
X110277104Y-73195304D01*
X110307807Y-73121362D01*
X110308192Y-72680572D01*
X110139864Y-72273188D01*
X110038355Y-72171502D01*
X111444398Y-72171502D01*
X111756629Y-72109395D01*
X111758770Y-72107964D01*
X112019428Y-72108192D01*
X112426812Y-71939864D01*
X112738769Y-71628451D01*
X112907807Y-71221362D01*
X112908192Y-70780572D01*
X112739864Y-70373188D01*
X112428451Y-70061231D01*
X112021362Y-69892193D01*
X111580572Y-69891808D01*
X111173188Y-70060136D01*
X110861231Y-70371549D01*
X110791408Y-70539702D01*
X110307878Y-70539702D01*
X110308192Y-70180572D01*
X110139864Y-69773188D01*
X109938530Y-69571502D01*
X111491206Y-69571502D01*
X111578638Y-69607807D01*
X112019428Y-69608192D01*
X112426812Y-69439864D01*
X112738769Y-69128451D01*
X112907807Y-68721362D01*
X112908192Y-68280572D01*
X112739864Y-67873188D01*
X112428451Y-67561231D01*
X112021362Y-67392193D01*
X111580572Y-67391808D01*
X111173188Y-67560136D01*
X110861231Y-67871549D01*
X110832931Y-67939702D01*
X110307878Y-67939702D01*
X110308192Y-67580572D01*
X110244780Y-67427104D01*
X111088796Y-67427104D01*
X111401027Y-67364997D01*
X111665724Y-67188132D01*
X111745816Y-67108040D01*
X111919428Y-67108192D01*
X112326812Y-66939864D01*
X112638769Y-66628451D01*
X112807807Y-66221362D01*
X112808192Y-65780572D01*
X112639864Y-65373188D01*
X112328451Y-65061231D01*
X111921362Y-64892193D01*
X111480572Y-64891808D01*
X111073188Y-65060136D01*
X110761231Y-65371549D01*
X110592193Y-65778638D01*
X110592178Y-65795304D01*
X110194056Y-65795304D01*
X110307807Y-65521362D01*
X110308192Y-65080572D01*
X110180487Y-64771502D01*
X111244398Y-64771502D01*
X111556629Y-64709395D01*
X111708366Y-64608008D01*
X111919428Y-64608192D01*
X112326812Y-64439864D01*
X112638769Y-64128451D01*
X112807807Y-63721362D01*
X112808192Y-63280572D01*
X112639864Y-62873188D01*
X112328451Y-62561231D01*
X111921362Y-62392193D01*
X111480572Y-62391808D01*
X111073188Y-62560136D01*
X110761231Y-62871549D01*
X110649884Y-63139702D01*
X110300192Y-63139702D01*
X110307807Y-63121362D01*
X110308192Y-62680572D01*
X110162142Y-62327104D01*
X111088796Y-62327104D01*
X111401027Y-62264997D01*
X111665724Y-62088132D01*
X111745816Y-62008040D01*
X111919428Y-62008192D01*
X112326812Y-61839864D01*
X112638769Y-61528451D01*
X112807807Y-61121362D01*
X112808192Y-60680572D01*
X112639864Y-60273188D01*
X112328451Y-59961231D01*
X111921362Y-59792193D01*
X111480572Y-59791808D01*
X111073188Y-59960136D01*
X110761231Y-60271549D01*
X110592193Y-60678638D01*
X110592178Y-60695304D01*
X110194056Y-60695304D01*
X110307807Y-60421362D01*
X110308192Y-59980572D01*
X110203461Y-59727104D01*
X111288796Y-59727104D01*
X111601027Y-59664997D01*
X111835942Y-59508032D01*
X112019428Y-59508192D01*
X112426812Y-59339864D01*
X112738769Y-59028451D01*
X112907807Y-58621362D01*
X112908192Y-58180572D01*
X112739864Y-57773188D01*
X112428451Y-57461231D01*
X112021362Y-57292193D01*
X111580572Y-57291808D01*
X111173188Y-57460136D01*
X110861231Y-57771549D01*
X110726796Y-58095304D01*
X110194056Y-58095304D01*
X110307807Y-57821362D01*
X110308192Y-57380572D01*
X110203461Y-57127104D01*
X111188796Y-57127104D01*
X111501027Y-57064997D01*
X111735942Y-56908032D01*
X111919428Y-56908192D01*
X112326812Y-56739864D01*
X112638769Y-56428451D01*
X112807807Y-56021362D01*
X112808192Y-55580572D01*
X112639864Y-55173188D01*
X112328451Y-54861231D01*
X111921362Y-54692193D01*
X111480572Y-54691808D01*
X111073188Y-54860136D01*
X110761231Y-55171549D01*
X110626796Y-55495304D01*
X110194056Y-55495304D01*
X110307807Y-55221362D01*
X110308192Y-54780572D01*
X110244780Y-54627104D01*
X111088796Y-54627104D01*
X111401027Y-54564997D01*
X111665724Y-54388132D01*
X111745816Y-54308040D01*
X111919428Y-54308192D01*
X112326812Y-54139864D01*
X112638769Y-53828451D01*
X112807807Y-53421362D01*
X112808192Y-52980572D01*
X112639864Y-52573188D01*
X112328451Y-52261231D01*
X111921362Y-52092193D01*
X111480572Y-52091808D01*
X111073188Y-52260136D01*
X110761231Y-52571549D01*
X110592193Y-52978638D01*
X110592178Y-52995304D01*
X110194056Y-52995304D01*
X110307807Y-52721362D01*
X110308192Y-52280572D01*
X110139864Y-51873188D01*
X109828451Y-51561231D01*
X109719282Y-51515900D01*
X111048894Y-51515900D01*
X111171549Y-51638769D01*
X111578638Y-51807807D01*
X112019428Y-51808192D01*
X112426812Y-51639864D01*
X112738769Y-51328451D01*
X112907807Y-50921362D01*
X112908192Y-50480572D01*
X112739864Y-50073188D01*
X112428451Y-49761231D01*
X112021362Y-49592193D01*
X111580572Y-49591808D01*
X111173188Y-49760136D01*
X111049007Y-49884100D01*
X110308102Y-49884100D01*
X110308192Y-49780572D01*
X110139864Y-49373188D01*
X109982850Y-49215900D01*
X111048720Y-49215900D01*
X111071549Y-49238769D01*
X111478638Y-49407807D01*
X111919428Y-49408192D01*
X112326812Y-49239864D01*
X112638769Y-48928451D01*
X112807807Y-48521362D01*
X112808192Y-48080572D01*
X112639864Y-47673188D01*
X112328451Y-47361231D01*
X111921362Y-47192193D01*
X111480572Y-47191808D01*
X111073188Y-47360136D01*
X110848833Y-47584100D01*
X110308102Y-47584100D01*
X110308192Y-47480572D01*
X110139864Y-47073188D01*
X109894209Y-46827104D01*
X111388796Y-46827104D01*
X111485777Y-46807813D01*
X111919428Y-46808192D01*
X112326812Y-46639864D01*
X112638769Y-46328451D01*
X112807807Y-45921362D01*
X112808192Y-45480572D01*
X112639864Y-45073188D01*
X112328451Y-44761231D01*
X111921362Y-44592193D01*
X111480572Y-44591808D01*
X111073188Y-44760136D01*
X110761231Y-45071549D01*
X110709843Y-45195304D01*
X110307830Y-45195304D01*
X110308192Y-44780572D01*
X110198832Y-44515900D01*
X111200000Y-44515900D01*
X111512231Y-44453793D01*
X111730385Y-44308027D01*
X111919428Y-44308192D01*
X112326812Y-44139864D01*
X112638769Y-43828451D01*
X112807807Y-43421362D01*
X112808192Y-42980572D01*
X112639864Y-42573188D01*
X112328451Y-42261231D01*
X111921362Y-42092193D01*
X111480572Y-42091808D01*
X111073188Y-42260136D01*
X110761231Y-42571549D01*
X110631449Y-42884100D01*
X110308102Y-42884100D01*
X110308192Y-42780572D01*
X110139864Y-42373188D01*
X109828451Y-42061231D01*
X109421362Y-41892193D01*
X108980572Y-41891808D01*
X108573188Y-42060136D01*
X108449007Y-42184100D01*
X107808102Y-42184100D01*
X107808192Y-42080572D01*
X107639864Y-41673188D01*
X107328451Y-41361231D01*
X106921362Y-41192193D01*
X106480572Y-41191808D01*
X106073188Y-41360136D01*
X105949007Y-41484100D01*
X100200000Y-41484100D01*
X99887769Y-41546207D01*
X99623072Y-41723071D01*
X93554184Y-47791960D01*
X93380572Y-47791808D01*
X92973188Y-47960136D01*
X92661231Y-48271549D01*
X92492193Y-48678638D01*
X92492101Y-48784100D01*
X87600000Y-48784100D01*
X87339571Y-48835903D01*
X87287768Y-48846207D01*
X87023071Y-49023072D01*
X86954183Y-49091960D01*
X86780572Y-49091808D01*
X86373188Y-49260136D01*
X86061231Y-49571549D01*
X85892193Y-49978638D01*
X85891966Y-50238109D01*
X83976928Y-48323072D01*
X83712231Y-48146207D01*
X83687094Y-48141207D01*
X83400000Y-48084100D01*
X73151106Y-48084100D01*
X73028451Y-47961231D01*
X72621362Y-47792193D01*
X72189680Y-47791816D01*
X72076928Y-47623071D01*
X72031087Y-47577230D01*
X88807764Y-47577230D01*
X89014679Y-48078003D01*
X89397482Y-48461474D01*
X89897893Y-48669263D01*
X90439730Y-48669736D01*
X90940503Y-48462821D01*
X91323974Y-48080018D01*
X91531763Y-47579607D01*
X91532236Y-47037770D01*
X91325321Y-46536997D01*
X90942518Y-46153526D01*
X90442107Y-45945737D01*
X89900270Y-45945264D01*
X89399497Y-46152179D01*
X89016026Y-46534982D01*
X88808237Y-47035393D01*
X88807764Y-47577230D01*
X72031087Y-47577230D01*
X65681087Y-41227230D01*
X74837764Y-41227230D01*
X75044679Y-41728003D01*
X75427482Y-42111474D01*
X75927893Y-42319263D01*
X76469730Y-42319736D01*
X76970503Y-42112821D01*
X77353974Y-41730018D01*
X77561763Y-41229607D01*
X77562236Y-40687770D01*
X77355321Y-40186997D01*
X76972518Y-39803526D01*
X76472107Y-39595737D01*
X75930270Y-39595264D01*
X75429497Y-39802179D01*
X75046026Y-40184982D01*
X74838237Y-40685393D01*
X74837764Y-41227230D01*
X65681087Y-41227230D01*
X64476510Y-40022654D01*
X64211813Y-39845789D01*
X63899582Y-39783682D01*
X55485928Y-39783682D01*
X55225499Y-39835485D01*
X55173696Y-39845789D01*
X54909000Y-40022654D01*
X52647554Y-42284100D01*
X46551106Y-42284100D01*
X46428451Y-42161231D01*
X46021362Y-41992193D01*
X45580572Y-41991808D01*
X45173188Y-42160136D01*
X44861231Y-42471549D01*
X44692193Y-42878638D01*
X44692014Y-43084100D01*
X44051106Y-43084100D01*
X43928451Y-42961231D01*
X43521362Y-42792193D01*
X43080572Y-42791808D01*
X42673188Y-42960136D01*
X42361231Y-43271549D01*
X42192193Y-43678638D01*
X42192101Y-43784100D01*
X41808189Y-43784100D01*
X41808192Y-43780572D01*
X41639864Y-43373188D01*
X41328451Y-43061231D01*
X40921362Y-42892193D01*
X40480572Y-42891808D01*
X40073188Y-43060136D01*
X39761231Y-43371549D01*
X39592193Y-43778638D01*
X39591808Y-44219428D01*
X39760136Y-44626812D01*
X40071549Y-44938769D01*
X40478638Y-45107807D01*
X40654103Y-45107960D01*
X40723071Y-45176928D01*
X40987768Y-45353793D01*
X41039571Y-45364097D01*
X41300000Y-45415900D01*
X42142815Y-45415900D01*
X41992193Y-45778638D01*
X41992101Y-45884100D01*
X41551106Y-45884100D01*
X41428451Y-45761231D01*
X41021362Y-45592193D01*
X40580572Y-45591808D01*
X40173188Y-45760136D01*
X39861231Y-46071549D01*
X39692193Y-46478638D01*
X39691808Y-46919428D01*
X39860136Y-47326812D01*
X40171549Y-47638769D01*
X40578638Y-47807807D01*
X41019428Y-47808192D01*
X41426812Y-47639864D01*
X41550993Y-47515900D01*
X42922265Y-47515900D01*
X42573188Y-47660136D01*
X42261231Y-47971549D01*
X42092193Y-48378638D01*
X42092023Y-48572896D01*
X41681063Y-48572896D01*
X41639864Y-48473188D01*
X41328451Y-48161231D01*
X40921362Y-47992193D01*
X40480572Y-47991808D01*
X40073188Y-48160136D01*
X39761231Y-48471549D01*
X39592193Y-48878638D01*
X39591808Y-49319428D01*
X39760136Y-49726812D01*
X40071549Y-50038769D01*
X40098159Y-50049818D01*
X40073188Y-50060136D01*
X39761231Y-50371549D01*
X39592193Y-50778638D01*
X39591808Y-51219428D01*
X39760136Y-51626812D01*
X40071549Y-51938769D01*
X40478638Y-52107807D01*
X40919428Y-52108192D01*
X41326812Y-51939864D01*
X41450993Y-51815900D01*
X42000000Y-51815900D01*
X42312231Y-51753793D01*
X42464789Y-51651857D01*
X42551549Y-51738769D01*
X42958638Y-51907807D01*
X43399428Y-51908192D01*
X43806812Y-51739864D01*
X44118769Y-51428451D01*
X44287807Y-51021362D01*
X44287899Y-50915900D01*
X44611898Y-50915900D01*
X44611808Y-51019428D01*
X44780136Y-51426812D01*
X45091549Y-51738769D01*
X45498638Y-51907807D01*
X45939428Y-51908192D01*
X46346812Y-51739864D01*
X46658769Y-51428451D01*
X46705504Y-51315900D01*
X48630243Y-51315900D01*
X46766492Y-53179651D01*
X46639864Y-52873188D01*
X46328451Y-52561231D01*
X45921362Y-52392193D01*
X45480572Y-52391808D01*
X45073188Y-52560136D01*
X44761231Y-52871549D01*
X44633358Y-53179502D01*
X44476928Y-53023072D01*
X44212231Y-52846207D01*
X43900000Y-52784100D01*
X41644373Y-52784100D01*
X41639864Y-52773188D01*
X41328451Y-52461231D01*
X40921362Y-52292193D01*
X40480572Y-52291808D01*
X40073188Y-52460136D01*
X39761231Y-52771549D01*
X39592193Y-53178638D01*
X39591808Y-53619428D01*
X39760136Y-54026812D01*
X40071549Y-54338769D01*
X40478638Y-54507807D01*
X40919428Y-54508192D01*
X41142791Y-54415900D01*
X42191898Y-54415900D01*
X42191808Y-54519428D01*
X42360136Y-54926812D01*
X42671549Y-55238769D01*
X43078638Y-55407807D01*
X43254104Y-55407960D01*
X43438264Y-55592120D01*
X43080572Y-55591808D01*
X42673188Y-55760136D01*
X42361231Y-56071549D01*
X42192193Y-56478638D01*
X42191808Y-56919428D01*
X42218530Y-56984100D01*
X42037957Y-56984100D01*
X41808040Y-56754184D01*
X41808192Y-56580572D01*
X41639864Y-56173188D01*
X41328451Y-55861231D01*
X40921362Y-55692193D01*
X40480572Y-55691808D01*
X40073188Y-55860136D01*
X39761231Y-56171549D01*
X39592193Y-56578638D01*
X39591808Y-57019428D01*
X39760136Y-57426812D01*
X40071549Y-57738769D01*
X40478638Y-57907807D01*
X40654104Y-57907960D01*
X40950389Y-58204246D01*
X40921362Y-58192193D01*
X40480572Y-58191808D01*
X40073188Y-58360136D01*
X39761231Y-58671549D01*
X39592193Y-59078638D01*
X39591808Y-59519428D01*
X39760136Y-59926812D01*
X40071549Y-60238769D01*
X40478638Y-60407807D01*
X40654104Y-60407960D01*
X40938264Y-60692120D01*
X40580572Y-60691808D01*
X40173188Y-60860136D01*
X39861231Y-61171549D01*
X39692193Y-61578638D01*
X39691808Y-62019428D01*
X39860136Y-62426812D01*
X40171549Y-62738769D01*
X40578638Y-62907807D01*
X40754104Y-62907960D01*
X41223072Y-63376929D01*
X41441792Y-63523072D01*
X41487769Y-63553793D01*
X41800000Y-63615900D01*
X42416977Y-63615900D01*
X42361231Y-63671549D01*
X42192193Y-64078638D01*
X42191808Y-64519428D01*
X42218530Y-64584100D01*
X42037957Y-64584100D01*
X41808040Y-64354184D01*
X41808192Y-64180572D01*
X41639864Y-63773188D01*
X41328451Y-63461231D01*
X40921362Y-63292193D01*
X40480572Y-63291808D01*
X40073188Y-63460136D01*
X39761231Y-63771549D01*
X39592193Y-64178638D01*
X39591808Y-64619428D01*
X39760136Y-65026812D01*
X40071549Y-65338769D01*
X40478638Y-65507807D01*
X40654104Y-65507960D01*
X41121398Y-65975255D01*
X40921362Y-65892193D01*
X40480572Y-65891808D01*
X40073188Y-66060136D01*
X39761231Y-66371549D01*
X39592193Y-66778638D01*
X39591808Y-67219428D01*
X39760136Y-67626812D01*
X40071549Y-67938769D01*
X40478638Y-68107807D01*
X40654104Y-68107960D01*
X40950391Y-68404247D01*
X40921362Y-68392193D01*
X40480572Y-68391808D01*
X40073188Y-68560136D01*
X39761231Y-68871549D01*
X39592193Y-69278638D01*
X39591808Y-69719428D01*
X39760136Y-70126812D01*
X40071549Y-70438769D01*
X40478638Y-70607807D01*
X40654104Y-70607960D01*
X40938264Y-70892120D01*
X40580572Y-70891808D01*
X40173188Y-71060136D01*
X39861231Y-71371549D01*
X39692193Y-71778638D01*
X39691808Y-72219428D01*
X39860136Y-72626812D01*
X40171549Y-72938769D01*
X40578638Y-73107807D01*
X40754104Y-73107960D01*
X41121399Y-73475256D01*
X40921362Y-73392193D01*
X40480572Y-73391808D01*
X40073188Y-73560136D01*
X39761231Y-73871549D01*
X39592193Y-74278638D01*
X39591808Y-74719428D01*
X39760136Y-75126812D01*
X40071549Y-75438769D01*
X40478638Y-75607807D01*
X40654104Y-75607960D01*
X40950390Y-75904246D01*
X40921362Y-75892193D01*
X40480572Y-75891808D01*
X40073188Y-76060136D01*
X39761231Y-76371549D01*
X39592193Y-76778638D01*
X39591808Y-77219428D01*
X39760136Y-77626812D01*
X40071549Y-77938769D01*
X40478638Y-78107807D01*
X40654104Y-78107960D01*
X41383072Y-78836928D01*
X41647768Y-79013793D01*
X41688978Y-79021990D01*
X41960000Y-79075900D01*
X42176377Y-79075900D01*
X42092193Y-79278638D01*
X42091808Y-79719428D01*
X42260136Y-80126812D01*
X42571549Y-80438769D01*
X42978638Y-80607807D01*
X43154104Y-80607960D01*
X45130244Y-82584100D01*
X44637957Y-82584100D01*
X41708040Y-79654184D01*
X41708192Y-79480572D01*
X41539864Y-79073188D01*
X41228451Y-78761231D01*
X40821362Y-78592193D01*
X40380572Y-78591808D01*
X39973188Y-78760136D01*
X39661231Y-79071549D01*
X39492193Y-79478638D01*
X39491808Y-79919428D01*
X39114400Y-79919428D01*
X39114400Y-36483900D01*
X113285600Y-36483900D01*
X113285600Y-85436100D01*
M02*
