M48
;DRILL file {KiCad 4.0.1-stable} date 2017-04-12 2:11:20 PM
;FORMAT={2:4/ absolute / inch / suppress leading zeros}
FMAT,2
INCH,TZ
T1C0.015
%
G90
G05
M72
T1
X15984Y-31378
X16024Y-17323
X16024Y-19331
X16024Y-20079
X16024Y-21024
X16024Y-22362
X16024Y-23346
X16024Y-25354
X16024Y-26378
X16024Y-27362
X16024Y-29331
X16024Y-30315
X16063Y-18386
X16063Y-24331
X16063Y-28346
X16969Y-18110
X17000Y-20000
X17008Y-19134
X17008Y-23307
X17008Y-26299
X17008Y-27362
X17008Y-28307
X17008Y-29252
X17008Y-30354
X17008Y-31299
X17047Y-17283
X17047Y-21378
X17047Y-22323
X17047Y-24331
X17047Y-25315
X17992Y-17835
X17992Y-19016
X17992Y-21063
X17992Y-22087
X17992Y-26181
X17992Y-29331
X17992Y-30079
X18000Y-20000
X18031Y-16969
X18031Y-23268
X18031Y-24213
X18031Y-25276
X18031Y-27283
X18031Y-28346
X18031Y-31260
X19016Y-23031
X19016Y-24016
X19016Y-25000
X19016Y-26024
X19016Y-27126
X19016Y-29213
X19016Y-30118
X19016Y-31181
X19055Y-28071
X19094Y-22244
X19646Y-20157
X19646Y-26811
X19961Y-26575
X20079Y-26181
X20354Y-25630
X20472Y-26142
X20748Y-25197
X20748Y-25591
X21142Y-24803
X21142Y-25197
X21535Y-24252
X21535Y-24646
X21772Y-20551
X21929Y-23780
X21929Y-24173
X21969Y-22953
X22244Y-23228
X22283Y-19882
X22323Y-23701
X22480Y-21496
X22520Y-17520
X22598Y-22047
X22638Y-18976
X22638Y-23346
X22638Y-29291
X22756Y-19528
X22795Y-20236
X22874Y-21102
X22874Y-22323
X22913Y-17362
X23825Y-23750
X23825Y-24250
X23825Y-24750
X23825Y-25250
X23825Y-26250
X23825Y-26750
X23825Y-27250
X23825Y-27750
X23825Y-28250
X23825Y-28750
X23937Y-25748
X25175Y-19250
X25175Y-19750
X25175Y-20250
X25175Y-20750
X25175Y-21250
X25175Y-21750
X25175Y-22250
X25175Y-22750
X25175Y-23250
X25175Y-24250
X25175Y-25250
X25175Y-26250
X25175Y-27250
X25175Y-28250
X26024Y-24764
X26181Y-25512
X26378Y-25197
X27283Y-32795
X27559Y-32244
X27835Y-33346
X28110Y-31102
X28346Y-32087
X28386Y-18071
X28583Y-30787
X28858Y-29685
X29252Y-32205
X29325Y-19250
X29325Y-19750
X29325Y-20250
X29325Y-20750
X29325Y-21250
X29325Y-21750
X29325Y-22250
X29325Y-22750
X29325Y-23250
X29325Y-23750
X29325Y-28750
X29803Y-30709
X30433Y-30551
X30675Y-28750
X30827Y-30551
X31063Y-30157
X31220Y-30709
X31732Y-30709
X31850Y-31142
X31929Y-32087
X31969Y-31654
X32283Y-32283
X32638Y-32402
X33189Y-32323
X33228Y-33307
X34213Y-21260
X34213Y-21732
X34213Y-22244
X34252Y-19764
X34252Y-20236
X34252Y-20748
X34252Y-22756
X34252Y-23228
X34252Y-23740
X34252Y-24252
X34252Y-24724
X34252Y-25236
X34252Y-25748
X34252Y-26220
X34252Y-26732
X34252Y-27244
X34252Y-27756
X34252Y-28268
X34252Y-28740
X36850Y-19252
X38425Y-26339
X38425Y-26890
X38465Y-20787
X38504Y-25236
X38504Y-25787
X38583Y-24134
X38583Y-24685
X38701Y-23583
X38780Y-22480
X38780Y-23031
X38819Y-21929
X38937Y-21102
X39094Y-19449
X39173Y-28976
X39331Y-28425
X39409Y-19921
X39449Y-18898
X39488Y-26496
X39488Y-26890
X39606Y-31378
X39646Y-21378
X39646Y-27874
X39646Y-29291
X39646Y-29685
X39646Y-30079
X39685Y-17283
X39685Y-28583
X39764Y-18346
X39921Y-27205
X39921Y-27598
X40118Y-17795
X40197Y-30709
X40236Y-30276
X40236Y-31102
X40394Y-17520
X40945Y-21614
X40984Y-18622
X40984Y-19646
X40984Y-22638
X40984Y-23661
X40984Y-24606
X40984Y-25669
X41024Y-20630
X41969Y-18661
X41969Y-20709
X41969Y-21693
X41969Y-22717
X41969Y-24724
X41969Y-26654
X41969Y-27677
X41969Y-28661
X41969Y-29685
X41969Y-30709
X42008Y-16654
X42008Y-17677
X42008Y-19646
X42008Y-23661
X42008Y-25709
X42992Y-16929
X42992Y-17717
X42992Y-18780
X42992Y-19685
X42992Y-20669
X42992Y-21654
X42992Y-22677
X42992Y-23701
X42992Y-24764
X42992Y-25709
X42992Y-26693
X42992Y-27717
X42992Y-28701
X42992Y-29685
X42992Y-30709
X43976Y-17008
X43976Y-17992
X43976Y-19016
X43976Y-20945
X43976Y-21969
X43976Y-23976
X43976Y-25000
X43976Y-25984
X43976Y-28976
X43976Y-29961
X43976Y-31024
X44016Y-19961
X44016Y-22992
X44016Y-26969
X44016Y-27953
T0
M30
