G04 #@! TF.FileFunction,Copper,L1,Top,Signal*
%FSLAX46Y46*%
G04 Gerber Fmt 4.6, Leading zero omitted, Abs format (unit mm)*
G04 Created by KiCad (PCBNEW 4.0.1-stable) date 2017-04-12 2:11:18 PM*
%MOMM*%
G01*
G04 APERTURE LIST*
%ADD10C,0.150000*%
%ADD11R,1.899920X1.899920*%
%ADD12R,2.920000X0.740000*%
%ADD13R,1.910000X2.350000*%
%ADD14R,7.110000X1.510000*%
%ADD15C,1.730000*%
%ADD16C,0.762000*%
%ADD17C,0.177800*%
%ADD18C,0.254000*%
G04 APERTURE END LIST*
D10*
D11*
X104140000Y-43180000D03*
X106680000Y-43180000D03*
X109220000Y-43180000D03*
X111760000Y-43180000D03*
X104140000Y-45720000D03*
X106680000Y-45720000D03*
X109220000Y-45720000D03*
X111760000Y-45720000D03*
X104140000Y-48260000D03*
X106680000Y-48260000D03*
X109220000Y-48260000D03*
X111760000Y-48260000D03*
X104140000Y-50800000D03*
X106680000Y-50800000D03*
X109220000Y-50800000D03*
X111760000Y-50800000D03*
X104140000Y-53340000D03*
X106680000Y-53340000D03*
X109220000Y-53340000D03*
X111760000Y-53340000D03*
X104140000Y-55880000D03*
X106680000Y-55880000D03*
X109220000Y-55880000D03*
X111760000Y-55880000D03*
X104140000Y-58420000D03*
X106680000Y-58420000D03*
X109220000Y-58420000D03*
X111760000Y-58420000D03*
X104140000Y-60960000D03*
X106680000Y-60960000D03*
X109220000Y-60960000D03*
X111760000Y-60960000D03*
X104140000Y-63500000D03*
X106680000Y-63500000D03*
X109220000Y-63500000D03*
X111760000Y-63500000D03*
X104140000Y-66040000D03*
X106680000Y-66040000D03*
X109220000Y-66040000D03*
X111760000Y-66040000D03*
X104140000Y-68580000D03*
X106680000Y-68580000D03*
X109220000Y-68580000D03*
X111760000Y-68580000D03*
X104140000Y-71120000D03*
X106680000Y-71120000D03*
X109220000Y-71120000D03*
X111760000Y-71120000D03*
X104140000Y-73660000D03*
X106680000Y-73660000D03*
X109220000Y-73660000D03*
X111760000Y-73660000D03*
X104140000Y-76200000D03*
X106680000Y-76200000D03*
X109220000Y-76200000D03*
X111760000Y-76200000D03*
X104140000Y-78740000D03*
X106680000Y-78740000D03*
X109220000Y-78740000D03*
X111760000Y-78740000D03*
X40640000Y-78740000D03*
X43180000Y-78740000D03*
X45720000Y-78740000D03*
X48260000Y-78740000D03*
X40640000Y-76200000D03*
X43180000Y-76200000D03*
X45720000Y-76200000D03*
X48260000Y-76200000D03*
X40640000Y-73660000D03*
X43180000Y-73660000D03*
X45720000Y-73660000D03*
X48260000Y-73660000D03*
X40640000Y-71120000D03*
X43180000Y-71120000D03*
X45720000Y-71120000D03*
X48260000Y-71120000D03*
X40640000Y-68580000D03*
X43180000Y-68580000D03*
X45720000Y-68580000D03*
X48260000Y-68580000D03*
X40640000Y-66040000D03*
X43180000Y-66040000D03*
X45720000Y-66040000D03*
X48260000Y-66040000D03*
X40640000Y-63500000D03*
X43180000Y-63500000D03*
X45720000Y-63500000D03*
X48260000Y-63500000D03*
X40640000Y-60960000D03*
X43180000Y-60960000D03*
X45720000Y-60960000D03*
X48260000Y-60960000D03*
X40640000Y-58420000D03*
X43180000Y-58420000D03*
X45720000Y-58420000D03*
X48260000Y-58420000D03*
X40640000Y-55880000D03*
X43180000Y-55880000D03*
X45720000Y-55880000D03*
X48260000Y-55880000D03*
X40640000Y-53340000D03*
X43180000Y-53340000D03*
X45720000Y-53340000D03*
X48260000Y-53340000D03*
X40640000Y-50800000D03*
X43180000Y-50800000D03*
X45720000Y-50800000D03*
X48260000Y-50800000D03*
X40640000Y-48260000D03*
X43180000Y-48260000D03*
X45720000Y-48260000D03*
X48260000Y-48260000D03*
X40640000Y-45720000D03*
X43180000Y-45720000D03*
X45720000Y-45720000D03*
X48260000Y-45720000D03*
X40640000Y-43180000D03*
X43180000Y-43180000D03*
X45720000Y-43180000D03*
X48260000Y-43180000D03*
X48260000Y-40640000D03*
X48260000Y-81280000D03*
X104140000Y-81280000D03*
X104140000Y-40640000D03*
X45720000Y-40640000D03*
X43180000Y-40640000D03*
X45720000Y-81280000D03*
X43180000Y-81280000D03*
X106680000Y-81280000D03*
X109220000Y-81280000D03*
X106680000Y-40640000D03*
X109220000Y-40640000D03*
X40640000Y-40640000D03*
X40640000Y-81280000D03*
X111760000Y-81280000D03*
X111760000Y-40640000D03*
D12*
X91885000Y-61595000D03*
X91885000Y-60325000D03*
X91885000Y-48895000D03*
X88455000Y-50165000D03*
X88455000Y-48895000D03*
X91885000Y-50165000D03*
X91885000Y-53975000D03*
X91885000Y-55245000D03*
X91885000Y-52705000D03*
X91885000Y-51435000D03*
X88455000Y-51435000D03*
X88455000Y-52705000D03*
X88455000Y-55245000D03*
X88455000Y-53975000D03*
X91885000Y-67945000D03*
X91885000Y-69215000D03*
X91885000Y-71755000D03*
X91885000Y-70485000D03*
X88455000Y-70485000D03*
X88455000Y-71755000D03*
X88455000Y-69215000D03*
X88455000Y-67945000D03*
X88455000Y-73025000D03*
X91885000Y-73025000D03*
X91885000Y-66675000D03*
X88455000Y-66675000D03*
X88455000Y-59055000D03*
X88455000Y-60325000D03*
X88455000Y-57785000D03*
X88455000Y-56515000D03*
X88455000Y-61595000D03*
X88455000Y-62865000D03*
X88455000Y-65405000D03*
X88455000Y-64135000D03*
X91885000Y-64135000D03*
X91885000Y-65405000D03*
X91885000Y-62865000D03*
X91885000Y-56515000D03*
X91885000Y-57785000D03*
X91885000Y-59055000D03*
X77915000Y-61595000D03*
X77915000Y-60325000D03*
X77915000Y-48895000D03*
X74485000Y-50165000D03*
X74485000Y-48895000D03*
X77915000Y-50165000D03*
X77915000Y-53975000D03*
X77915000Y-55245000D03*
X77915000Y-52705000D03*
X77915000Y-51435000D03*
X74485000Y-51435000D03*
X74485000Y-52705000D03*
X74485000Y-55245000D03*
X74485000Y-53975000D03*
X77915000Y-67945000D03*
X77915000Y-69215000D03*
X77915000Y-71755000D03*
X77915000Y-70485000D03*
X74485000Y-70485000D03*
X74485000Y-71755000D03*
X74485000Y-69215000D03*
X74485000Y-67945000D03*
X74485000Y-73025000D03*
X77915000Y-73025000D03*
X77915000Y-66675000D03*
X74485000Y-66675000D03*
X74485000Y-59055000D03*
X74485000Y-60325000D03*
X74485000Y-57785000D03*
X74485000Y-56515000D03*
X74485000Y-61595000D03*
X74485000Y-62865000D03*
X74485000Y-65405000D03*
X74485000Y-64135000D03*
X77915000Y-64135000D03*
X77915000Y-65405000D03*
X77915000Y-62865000D03*
X77915000Y-56515000D03*
X77915000Y-57785000D03*
X77915000Y-59055000D03*
X63945000Y-61595000D03*
X63945000Y-60325000D03*
X63945000Y-48895000D03*
X60515000Y-50165000D03*
X60515000Y-48895000D03*
X63945000Y-50165000D03*
X63945000Y-53975000D03*
X63945000Y-55245000D03*
X63945000Y-52705000D03*
X63945000Y-51435000D03*
X60515000Y-51435000D03*
X60515000Y-52705000D03*
X60515000Y-55245000D03*
X60515000Y-53975000D03*
X63945000Y-67945000D03*
X63945000Y-69215000D03*
X63945000Y-71755000D03*
X63945000Y-70485000D03*
X60515000Y-70485000D03*
X60515000Y-71755000D03*
X60515000Y-69215000D03*
X60515000Y-67945000D03*
X60515000Y-73025000D03*
X63945000Y-73025000D03*
X63945000Y-66675000D03*
X60515000Y-66675000D03*
X60515000Y-59055000D03*
X60515000Y-60325000D03*
X60515000Y-57785000D03*
X60515000Y-56515000D03*
X60515000Y-61595000D03*
X60515000Y-62865000D03*
X60515000Y-65405000D03*
X60515000Y-64135000D03*
X63945000Y-64135000D03*
X63945000Y-65405000D03*
X63945000Y-62865000D03*
X63945000Y-56515000D03*
X63945000Y-57785000D03*
X63945000Y-59055000D03*
D10*
G36*
X76681317Y-85391866D02*
X76339297Y-84452174D01*
X78218683Y-83768134D01*
X78560703Y-84707826D01*
X76681317Y-85391866D01*
X76681317Y-85391866D01*
G37*
G36*
X74639297Y-84707826D02*
X74981317Y-83768134D01*
X76860703Y-84452174D01*
X76518683Y-85391866D01*
X74639297Y-84707826D01*
X74639297Y-84707826D01*
G37*
G36*
X76339297Y-79947826D02*
X76681317Y-79008134D01*
X78560703Y-79692174D01*
X78218683Y-80631866D01*
X76339297Y-79947826D01*
X76339297Y-79947826D01*
G37*
G36*
X74981317Y-80631866D02*
X74639297Y-79692174D01*
X76518683Y-79008134D01*
X76860703Y-79947826D01*
X74981317Y-80631866D01*
X74981317Y-80631866D01*
G37*
G36*
X77985117Y-84492719D02*
X77602095Y-84171325D01*
X78244883Y-83405281D01*
X78627905Y-83726675D01*
X77985117Y-84492719D01*
X77985117Y-84492719D01*
G37*
G36*
X74572095Y-83726675D02*
X74955117Y-83405281D01*
X75597905Y-84171325D01*
X75214883Y-84492719D01*
X74572095Y-83726675D01*
X74572095Y-83726675D01*
G37*
G36*
X77602095Y-80228675D02*
X77985117Y-79907281D01*
X78627905Y-80673325D01*
X78244883Y-80994719D01*
X77602095Y-80228675D01*
X77602095Y-80228675D01*
G37*
G36*
X74955117Y-80994719D02*
X74572095Y-80673325D01*
X75214883Y-79907281D01*
X75597905Y-80228675D01*
X74955117Y-80994719D01*
X74955117Y-80994719D01*
G37*
D13*
X79200000Y-84580000D03*
D14*
X76600000Y-85000000D03*
D13*
X74000000Y-84580000D03*
X79200000Y-79820000D03*
D15*
X76600000Y-82200000D03*
D14*
X76600000Y-79400000D03*
D13*
X74000000Y-79820000D03*
D16*
X106700000Y-42300000D03*
X93600000Y-48900000D03*
X87000000Y-50200000D03*
X109200000Y-43000000D03*
X111700000Y-43200000D03*
X100800000Y-43900000D03*
X87000000Y-51400000D03*
X102600000Y-44500000D03*
X101900000Y-45200000D03*
X106700000Y-44900000D03*
X87000000Y-52700000D03*
X109200000Y-45000000D03*
X111700000Y-45700000D03*
X101000000Y-46600000D03*
X86900000Y-54000000D03*
X104100000Y-47300000D03*
X106600000Y-47400000D03*
X100200000Y-48000000D03*
X86900000Y-55200000D03*
X109200000Y-47700000D03*
X99300000Y-49400000D03*
X111700000Y-48300000D03*
X86900000Y-56500000D03*
X104100000Y-49900000D03*
X100100000Y-50600000D03*
X106700000Y-49900000D03*
X87000000Y-57800000D03*
X109200000Y-50000000D03*
X97700000Y-52800000D03*
X111800000Y-50700000D03*
X87000000Y-59000000D03*
X104200000Y-52400000D03*
X98900000Y-53600000D03*
X106600000Y-52600000D03*
X87000000Y-60300000D03*
X109200000Y-52500000D03*
X100700000Y-54300000D03*
X111700000Y-53200000D03*
X87000000Y-61600000D03*
X104000000Y-54900000D03*
X98600000Y-55700000D03*
X106600000Y-55100000D03*
X109200000Y-55000000D03*
X87000000Y-62800000D03*
X98500000Y-57100000D03*
X111700000Y-55800000D03*
X104100000Y-57500000D03*
X87000000Y-64100000D03*
X98500000Y-58500000D03*
X106600000Y-57700000D03*
X87000000Y-65400000D03*
X109200000Y-57600000D03*
X98300000Y-59900000D03*
X111800000Y-58400000D03*
X87000000Y-66600000D03*
X104100000Y-60100000D03*
X98000000Y-61300000D03*
X106700000Y-60100000D03*
X109200000Y-60200000D03*
X87000000Y-67900000D03*
X98000000Y-62700000D03*
X111700000Y-60900000D03*
X87000000Y-69200000D03*
X104100000Y-62500000D03*
X97800000Y-64100000D03*
X106600000Y-62800000D03*
X109200000Y-62900000D03*
X87000000Y-70500000D03*
X97800000Y-65500000D03*
X111700000Y-63500000D03*
X87000000Y-71800000D03*
X104100000Y-65200000D03*
X97600000Y-66900000D03*
X106700000Y-65300000D03*
X87000000Y-73000000D03*
X109200000Y-65300000D03*
X97600000Y-68300000D03*
X111700000Y-66000000D03*
X74485000Y-48895000D03*
X100300000Y-67300000D03*
X100300000Y-68300000D03*
X106600000Y-67700000D03*
X74485000Y-50165000D03*
X109200000Y-67800000D03*
X101400000Y-69100000D03*
X111800000Y-68500000D03*
X74485000Y-51435000D03*
X101400000Y-70100000D03*
X106600000Y-70300000D03*
X100700000Y-70800000D03*
X74485000Y-52705000D03*
X109200000Y-70400000D03*
X111800000Y-71000000D03*
X99900000Y-72200000D03*
X74485000Y-53975000D03*
X100800000Y-72600000D03*
X106600000Y-72800000D03*
X99500000Y-73600000D03*
X74485000Y-55245000D03*
X109200000Y-72900000D03*
X111700000Y-73600000D03*
X100700000Y-74400000D03*
X74485000Y-56515000D03*
X100700000Y-75400000D03*
X106600000Y-75400000D03*
X100700000Y-76400000D03*
X74485000Y-57785000D03*
X109200000Y-75400000D03*
X111700000Y-76100000D03*
X102200000Y-76900000D03*
X74485000Y-59055000D03*
X102100000Y-78000000D03*
X106600000Y-78000000D03*
X102200000Y-79000000D03*
X74485000Y-60325000D03*
X109200000Y-78000000D03*
X111700000Y-78800000D03*
X100600000Y-79700000D03*
X69300000Y-83300000D03*
X40600000Y-79700000D03*
X82900000Y-82300000D03*
X43200000Y-79500000D03*
X45800000Y-79400000D03*
X70000000Y-81900000D03*
X48300000Y-79200000D03*
X82000000Y-82000000D03*
X72000000Y-81500000D03*
X40700000Y-77000000D03*
X81100000Y-81500000D03*
X43200000Y-77100000D03*
X45700000Y-76400000D03*
X74300000Y-81800000D03*
X48300000Y-76500000D03*
X81200000Y-80400000D03*
X71400000Y-79000000D03*
X40700000Y-74500000D03*
X80900000Y-79100000D03*
X43200000Y-74300000D03*
X72600000Y-78200000D03*
X45700000Y-74500000D03*
X48300000Y-74200000D03*
X80600000Y-78000000D03*
X40800000Y-72000000D03*
X75700000Y-78000000D03*
X79300000Y-78000000D03*
X43200000Y-71900000D03*
X45800000Y-72000000D03*
X77300000Y-77600000D03*
X48400000Y-71300000D03*
X78300000Y-77600000D03*
X40700000Y-69500000D03*
X73300000Y-75400000D03*
X43200000Y-69500000D03*
X78900000Y-76600000D03*
X74485000Y-73025000D03*
X45800000Y-69300000D03*
X77915000Y-73025000D03*
X48300000Y-68900000D03*
X40700000Y-67000000D03*
X49900000Y-68100000D03*
X50700000Y-67500000D03*
X43200000Y-66800000D03*
X63945000Y-48895000D03*
X57800000Y-49600000D03*
X45700000Y-66500000D03*
X51000000Y-66500000D03*
X63945000Y-50165000D03*
X48300000Y-66100000D03*
X52000000Y-66400000D03*
X56600000Y-50500000D03*
X40700000Y-64400000D03*
X51700000Y-65100000D03*
X63945000Y-51435000D03*
X43300000Y-64300000D03*
X52700000Y-65000000D03*
X57900000Y-51400000D03*
X52700000Y-64000000D03*
X45800000Y-64200000D03*
X63945000Y-52705000D03*
X48300000Y-63500000D03*
X53700000Y-64000000D03*
X55300000Y-52200000D03*
X53700000Y-63000000D03*
X40800000Y-61800000D03*
X63945000Y-53975000D03*
X43300000Y-61800000D03*
X54700000Y-62600000D03*
X58100000Y-53600000D03*
X45800000Y-61500000D03*
X54700000Y-61600000D03*
X63945000Y-55245000D03*
X48300000Y-61000000D03*
X55700000Y-61400000D03*
X57100000Y-54600000D03*
X40700000Y-59300000D03*
X55700000Y-60400000D03*
X63945000Y-56515000D03*
X43200000Y-59200000D03*
X56700000Y-60200000D03*
X57400000Y-56000000D03*
X45800000Y-59100000D03*
X56500000Y-59000000D03*
X63945000Y-57785000D03*
X48300000Y-58500000D03*
X55800000Y-58300000D03*
X58100000Y-56700000D03*
X40700000Y-56800000D03*
X57500000Y-59300000D03*
X63945000Y-59055000D03*
X43300000Y-56700000D03*
X60515000Y-60325000D03*
X45700000Y-56100000D03*
X48500000Y-56500000D03*
X57500000Y-48200000D03*
X60515000Y-61595000D03*
X40700000Y-53400000D03*
X63945000Y-61595000D03*
X43300000Y-54300000D03*
X49900000Y-51200000D03*
X66100000Y-62900000D03*
X60515000Y-62865000D03*
X45700000Y-53500000D03*
X58200000Y-44100000D03*
X60515000Y-64135000D03*
X66500000Y-64800000D03*
X40700000Y-51000000D03*
X43180000Y-50800000D03*
X67000000Y-64000000D03*
X57200000Y-44500000D03*
X63945000Y-64135000D03*
X60800000Y-65400000D03*
X45720000Y-50800000D03*
X60515000Y-66675000D03*
X40700000Y-49100000D03*
X63945000Y-66675000D03*
X43200000Y-48600000D03*
X60515000Y-67945000D03*
X45700000Y-48300000D03*
X60515000Y-69215000D03*
X40800000Y-46700000D03*
X63945000Y-69215000D03*
X43100000Y-46000000D03*
X60515000Y-70485000D03*
X45700000Y-45300000D03*
X60515000Y-71755000D03*
X40700000Y-44000000D03*
X63945000Y-71755000D03*
X43300000Y-43900000D03*
X60515000Y-73025000D03*
X45800000Y-43100000D03*
X57500000Y-74400000D03*
X84400000Y-84600000D03*
X84300000Y-82100000D03*
X72100000Y-45900000D03*
X70700000Y-84700000D03*
D17*
X76600000Y-82200000D02*
X77200000Y-82200000D01*
X77200000Y-82200000D02*
X77800000Y-82800000D01*
X101820000Y-83600000D02*
X104140000Y-81280000D01*
X81300000Y-83600000D02*
X101820000Y-83600000D01*
X80500000Y-82800000D02*
X81300000Y-83600000D01*
X77800000Y-82800000D02*
X80500000Y-82800000D01*
X48260000Y-81280000D02*
X64680000Y-81280000D01*
X71300000Y-82700000D02*
X76100000Y-82700000D01*
X69900000Y-84100000D02*
X71300000Y-82700000D01*
X67500000Y-84100000D02*
X69900000Y-84100000D01*
X64680000Y-81280000D02*
X67500000Y-84100000D01*
X76100000Y-82700000D02*
X76600000Y-82200000D01*
X88455000Y-48895000D02*
X88455000Y-47645000D01*
X92920000Y-43180000D02*
X104140000Y-43180000D01*
X88455000Y-47645000D02*
X92920000Y-43180000D01*
X91885000Y-48895000D02*
X93595000Y-48895000D01*
X106700000Y-42300000D02*
X106680000Y-42320000D01*
X93595000Y-48895000D02*
X93600000Y-48900000D01*
X106680000Y-42320000D02*
X106680000Y-43180000D01*
X88455000Y-50165000D02*
X87035000Y-50165000D01*
X87035000Y-50165000D02*
X87000000Y-50200000D01*
X109200000Y-43000000D02*
X109220000Y-43020000D01*
X109220000Y-43020000D02*
X109220000Y-43180000D01*
X91885000Y-50165000D02*
X94435000Y-50165000D01*
X111700000Y-43200000D02*
X111720000Y-43180000D01*
X100700000Y-43900000D02*
X100800000Y-43900000D01*
X94435000Y-50165000D02*
X100700000Y-43900000D01*
X111720000Y-43180000D02*
X111760000Y-43180000D01*
X88455000Y-51435000D02*
X87035000Y-51435000D01*
X87035000Y-51435000D02*
X87000000Y-51400000D01*
X102600000Y-44500000D02*
X103820000Y-45720000D01*
X103820000Y-45720000D02*
X104140000Y-45720000D01*
X91885000Y-51435000D02*
X93667898Y-51435000D01*
X106700000Y-44900000D02*
X106680000Y-44920000D01*
X99902898Y-45200000D02*
X101900000Y-45200000D01*
X93667898Y-51435000D02*
X99902898Y-45200000D01*
X106680000Y-44920000D02*
X106680000Y-45720000D01*
X88455000Y-52705000D02*
X87005000Y-52705000D01*
X87005000Y-52705000D02*
X87000000Y-52700000D01*
X109200000Y-45000000D02*
X109220000Y-45020000D01*
X109220000Y-45020000D02*
X109220000Y-45720000D01*
X109220000Y-45020000D02*
X109220000Y-45720000D01*
X111720000Y-45720000D02*
X111700000Y-45700000D01*
X99005796Y-46600000D02*
X101000000Y-46600000D01*
X99005796Y-46600000D02*
X92900796Y-52705000D01*
X91885000Y-52705000D02*
X92900796Y-52705000D01*
X91885000Y-52705000D02*
X93095000Y-52705000D01*
X111720000Y-45720000D02*
X111760000Y-45720000D01*
X88455000Y-53975000D02*
X86925000Y-53975000D01*
X86925000Y-53975000D02*
X86900000Y-54000000D01*
X104100000Y-47300000D02*
X104140000Y-47340000D01*
X104140000Y-47340000D02*
X104140000Y-48260000D01*
X104140000Y-47440000D02*
X104140000Y-48260000D01*
X91885000Y-53975000D02*
X92925000Y-53975000D01*
X92925000Y-53975000D02*
X98900000Y-48000000D01*
X106600000Y-47400000D02*
X106680000Y-47480000D01*
X98900000Y-48000000D02*
X100200000Y-48000000D01*
X106680000Y-47480000D02*
X106680000Y-48260000D01*
X91885000Y-53975000D02*
X93125000Y-53975000D01*
X106680000Y-47420000D02*
X106680000Y-48260000D01*
X88455000Y-55245000D02*
X86945000Y-55245000D01*
X86945000Y-55245000D02*
X86900000Y-55200000D01*
X109200000Y-47700000D02*
X109220000Y-47720000D01*
X109220000Y-47720000D02*
X109220000Y-48260000D01*
X109220000Y-47420000D02*
X109220000Y-48260000D01*
X91885000Y-55245000D02*
X93055000Y-55245000D01*
X93055000Y-55245000D02*
X98900000Y-49400000D01*
X98900000Y-49400000D02*
X99300000Y-49400000D01*
X111700000Y-48300000D02*
X111740000Y-48260000D01*
X111740000Y-48260000D02*
X111760000Y-48260000D01*
X88455000Y-56515000D02*
X86915000Y-56515000D01*
X86915000Y-56515000D02*
X86900000Y-56500000D01*
X104100000Y-49900000D02*
X104140000Y-49940000D01*
X104140000Y-49940000D02*
X104140000Y-50800000D01*
X91885000Y-56515000D02*
X92985000Y-56515000D01*
X92985000Y-56515000D02*
X98900000Y-50600000D01*
X98900000Y-50600000D02*
X100100000Y-50600000D01*
X106700000Y-49900000D02*
X106680000Y-49920000D01*
X106680000Y-49920000D02*
X106680000Y-50800000D01*
X88455000Y-57785000D02*
X87015000Y-57785000D01*
X87015000Y-57785000D02*
X87000000Y-57800000D01*
X109200000Y-50000000D02*
X109220000Y-50020000D01*
X109220000Y-50020000D02*
X109220000Y-50800000D01*
X91885000Y-57785000D02*
X92915000Y-57785000D01*
X92915000Y-57785000D02*
X97700000Y-53000000D01*
X97700000Y-53000000D02*
X97700000Y-52800000D01*
X111800000Y-50700000D02*
X111760000Y-50740000D01*
X111760000Y-50740000D02*
X111760000Y-50800000D01*
X88455000Y-59055000D02*
X87055000Y-59055000D01*
X87055000Y-59055000D02*
X87000000Y-59000000D01*
X104200000Y-52400000D02*
X104140000Y-52460000D01*
X104140000Y-52460000D02*
X104140000Y-53340000D01*
X91885000Y-59055000D02*
X93045000Y-59055000D01*
X93045000Y-59055000D02*
X98500000Y-53600000D01*
X98500000Y-53600000D02*
X98900000Y-53600000D01*
X106600000Y-52600000D02*
X106680000Y-52680000D01*
X106680000Y-52680000D02*
X106680000Y-53340000D01*
X88455000Y-60325000D02*
X87025000Y-60325000D01*
X87025000Y-60325000D02*
X87000000Y-60300000D01*
X109200000Y-52500000D02*
X109220000Y-52520000D01*
X109220000Y-52520000D02*
X109220000Y-53340000D01*
X91885000Y-60325000D02*
X92975000Y-60325000D01*
X92975000Y-60325000D02*
X99000000Y-54300000D01*
X99000000Y-54300000D02*
X100700000Y-54300000D01*
X111700000Y-53200000D02*
X111760000Y-53260000D01*
X111760000Y-53260000D02*
X111760000Y-53340000D01*
X88455000Y-61595000D02*
X87005000Y-61595000D01*
X87005000Y-61595000D02*
X87000000Y-61600000D01*
X104000000Y-54900000D02*
X104140000Y-55040000D01*
X104140000Y-55040000D02*
X104140000Y-55880000D01*
X91885000Y-61595000D02*
X93005000Y-61595000D01*
X93005000Y-61595000D02*
X98600000Y-56000000D01*
X98600000Y-56000000D02*
X98600000Y-55700000D01*
X106600000Y-55100000D02*
X106680000Y-55180000D01*
X106680000Y-55180000D02*
X106680000Y-55880000D01*
X109220000Y-55020000D02*
X109200000Y-55000000D01*
X87000000Y-62800000D02*
X87065000Y-62865000D01*
X88455000Y-62865000D02*
X87065000Y-62865000D01*
X109220000Y-55020000D02*
X109220000Y-55880000D01*
X91885000Y-62865000D02*
X93035000Y-62865000D01*
X93035000Y-62865000D02*
X98500000Y-57400000D01*
X98500000Y-57400000D02*
X98500000Y-57100000D01*
X111700000Y-55800000D02*
X111760000Y-55860000D01*
X111760000Y-55860000D02*
X111760000Y-55880000D01*
X104140000Y-57540000D02*
X104100000Y-57500000D01*
X87000000Y-64100000D02*
X87035000Y-64135000D01*
X88455000Y-64135000D02*
X87035000Y-64135000D01*
X104140000Y-57540000D02*
X104140000Y-58420000D01*
X91885000Y-64135000D02*
X93065000Y-64135000D01*
X93065000Y-64135000D02*
X98500000Y-58700000D01*
X98500000Y-58700000D02*
X98500000Y-58500000D01*
X106600000Y-57700000D02*
X106680000Y-57780000D01*
X106680000Y-57780000D02*
X106680000Y-58420000D01*
X88455000Y-65405000D02*
X87005000Y-65405000D01*
X87005000Y-65405000D02*
X87000000Y-65400000D01*
X109200000Y-57600000D02*
X109220000Y-57620000D01*
X109220000Y-57620000D02*
X109220000Y-58420000D01*
X91885000Y-65405000D02*
X92895000Y-65405000D01*
X92895000Y-65405000D02*
X98300000Y-60000000D01*
X98300000Y-60000000D02*
X98300000Y-59900000D01*
X111800000Y-58400000D02*
X111780000Y-58420000D01*
X111780000Y-58420000D02*
X111760000Y-58420000D01*
X88455000Y-66675000D02*
X87075000Y-66675000D01*
X87075000Y-66675000D02*
X87000000Y-66600000D01*
X104100000Y-60100000D02*
X104140000Y-60140000D01*
X104140000Y-60140000D02*
X104140000Y-60960000D01*
X91885000Y-66675000D02*
X93025000Y-66675000D01*
X93025000Y-66675000D02*
X98000000Y-61700000D01*
X98000000Y-61700000D02*
X98000000Y-61300000D01*
X106700000Y-60100000D02*
X106680000Y-60120000D01*
X106680000Y-60120000D02*
X106680000Y-60960000D01*
X109220000Y-60220000D02*
X109200000Y-60200000D01*
X87000000Y-67900000D02*
X87045000Y-67945000D01*
X88455000Y-67945000D02*
X87045000Y-67945000D01*
X109220000Y-60220000D02*
X109220000Y-60960000D01*
X91885000Y-67945000D02*
X92955000Y-67945000D01*
X92955000Y-67945000D02*
X98000000Y-62900000D01*
X98000000Y-62900000D02*
X98000000Y-62700000D01*
X111700000Y-60900000D02*
X111760000Y-60960000D01*
X88455000Y-69215000D02*
X87015000Y-69215000D01*
X87015000Y-69215000D02*
X87000000Y-69200000D01*
X104140000Y-62540000D02*
X104140000Y-63500000D01*
X104100000Y-62500000D02*
X104140000Y-62540000D01*
X91885000Y-69215000D02*
X93085000Y-69215000D01*
X93085000Y-69215000D02*
X97800000Y-64500000D01*
X97800000Y-64500000D02*
X97800000Y-64100000D01*
X106600000Y-62800000D02*
X106680000Y-62880000D01*
X106680000Y-62880000D02*
X106680000Y-63500000D01*
X109220000Y-62920000D02*
X109200000Y-62900000D01*
X87000000Y-70500000D02*
X87015000Y-70485000D01*
X88455000Y-70485000D02*
X87015000Y-70485000D01*
X109220000Y-62920000D02*
X109220000Y-63500000D01*
X91885000Y-70485000D02*
X93015000Y-70485000D01*
X93015000Y-70485000D02*
X97800000Y-65700000D01*
X97800000Y-65700000D02*
X97800000Y-65500000D01*
X111700000Y-63500000D02*
X111760000Y-63500000D01*
X88455000Y-71755000D02*
X87045000Y-71755000D01*
X87045000Y-71755000D02*
X87000000Y-71800000D01*
X104100000Y-65200000D02*
X104140000Y-65240000D01*
X104140000Y-65240000D02*
X104140000Y-66040000D01*
X91885000Y-71755000D02*
X93145000Y-71755000D01*
X93145000Y-71755000D02*
X97600000Y-67300000D01*
X97600000Y-67300000D02*
X97600000Y-66900000D01*
X106700000Y-65300000D02*
X106680000Y-65320000D01*
X106680000Y-65320000D02*
X106680000Y-66040000D01*
X88455000Y-73025000D02*
X87025000Y-73025000D01*
X87025000Y-73025000D02*
X87000000Y-73000000D01*
X109200000Y-65300000D02*
X109220000Y-65320000D01*
X109220000Y-65320000D02*
X109220000Y-66040000D01*
X91885000Y-73025000D02*
X92975000Y-73025000D01*
X92975000Y-73025000D02*
X97600000Y-68400000D01*
X97600000Y-68400000D02*
X97600000Y-68300000D01*
X111700000Y-66000000D02*
X111740000Y-66040000D01*
X111740000Y-66040000D02*
X111760000Y-66040000D01*
X102600000Y-67300000D02*
X103880000Y-68580000D01*
X100300000Y-67300000D02*
X102600000Y-67300000D01*
X103880000Y-68580000D02*
X104140000Y-68580000D01*
X92900000Y-75700000D02*
X88597102Y-75700000D01*
X77915000Y-48895000D02*
X84939398Y-48895000D01*
X86244398Y-50200000D02*
X86244398Y-73347296D01*
X84939398Y-48895000D02*
X86244398Y-50200000D01*
X92900000Y-75700000D02*
X100300000Y-68300000D01*
X106600000Y-67700000D02*
X106680000Y-67780000D01*
X88597102Y-75700000D02*
X86244398Y-73347296D01*
X106680000Y-67780000D02*
X106680000Y-68580000D01*
X106680000Y-67980000D02*
X106680000Y-68580000D01*
X109220000Y-67820000D02*
X109200000Y-67800000D01*
X109220000Y-67820000D02*
X109220000Y-68580000D01*
X109220000Y-67980000D02*
X109220000Y-68580000D01*
X84553796Y-50165000D02*
X85888796Y-51500000D01*
X85888796Y-51500000D02*
X85888796Y-73494592D01*
X85888796Y-73494592D02*
X88449806Y-76055602D01*
X88449806Y-76055602D02*
X94444398Y-76055602D01*
X94444398Y-76055602D02*
X101400000Y-69100000D01*
X77915000Y-50165000D02*
X84553796Y-50165000D01*
X111800000Y-68500000D02*
X111760000Y-68540000D01*
X111760000Y-68540000D02*
X111760000Y-68580000D01*
X111780000Y-68580000D02*
X111760000Y-68580000D01*
X103720000Y-71120000D02*
X102700000Y-70100000D01*
X101400000Y-70100000D02*
X102700000Y-70100000D01*
X103720000Y-71120000D02*
X104140000Y-71120000D01*
X103420000Y-70400000D02*
X104140000Y-71120000D01*
X77915000Y-51435000D02*
X84135000Y-51435000D01*
X106600000Y-70300000D02*
X106680000Y-70380000D01*
X100202898Y-70800000D02*
X100700000Y-70800000D01*
X94591694Y-76411204D02*
X100202898Y-70800000D01*
X88302510Y-76411204D02*
X94591694Y-76411204D01*
X85533194Y-73641888D02*
X88302510Y-76411204D01*
X85533194Y-52833194D02*
X85533194Y-73641888D01*
X84135000Y-51435000D02*
X85533194Y-52833194D01*
X106680000Y-70380000D02*
X106680000Y-71120000D01*
X106680000Y-70380000D02*
X106680000Y-71120000D01*
X109220000Y-70420000D02*
X109200000Y-70400000D01*
X109220000Y-70420000D02*
X109220000Y-71120000D01*
X77915000Y-52705000D02*
X83405000Y-52705000D01*
X111800000Y-71000000D02*
X111760000Y-71040000D01*
X95333194Y-76766806D02*
X99900000Y-72200000D01*
X88155214Y-76766806D02*
X95333194Y-76766806D01*
X85177592Y-73789184D02*
X88155214Y-76766806D01*
X85177592Y-54477592D02*
X85177592Y-73789184D01*
X83405000Y-52705000D02*
X85177592Y-54477592D01*
X111760000Y-71040000D02*
X111760000Y-71120000D01*
X104140000Y-73660000D02*
X103180000Y-72700000D01*
X100900000Y-72700000D02*
X103180000Y-72700000D01*
X100800000Y-72600000D02*
X100900000Y-72700000D01*
X77915000Y-53975000D02*
X82675000Y-53975000D01*
X106600000Y-72800000D02*
X106680000Y-72880000D01*
X95977592Y-77122408D02*
X99500000Y-73600000D01*
X88007918Y-77122408D02*
X95977592Y-77122408D01*
X84821990Y-73936480D02*
X88007918Y-77122408D01*
X84821990Y-56121990D02*
X84821990Y-73936480D01*
X82675000Y-53975000D02*
X84821990Y-56121990D01*
X106680000Y-72880000D02*
X106680000Y-73660000D01*
X109220000Y-72920000D02*
X109200000Y-72900000D01*
X109220000Y-72920000D02*
X109220000Y-73660000D01*
X77915000Y-55245000D02*
X82145000Y-55245000D01*
X111700000Y-73600000D02*
X111760000Y-73660000D01*
X97621990Y-77478010D02*
X100700000Y-74400000D01*
X87860622Y-77478010D02*
X97621990Y-77478010D01*
X84466388Y-74083776D02*
X87860622Y-77478010D01*
X84466388Y-57566388D02*
X84466388Y-74083776D01*
X82145000Y-55245000D02*
X84466388Y-57566388D01*
X104140000Y-76200000D02*
X103140000Y-75200000D01*
X100900000Y-75200000D02*
X103140000Y-75200000D01*
X100700000Y-75400000D02*
X100900000Y-75200000D01*
X77915000Y-56515000D02*
X81615000Y-56515000D01*
X106600000Y-75400000D02*
X106680000Y-75480000D01*
X99266388Y-77833612D02*
X100700000Y-76400000D01*
X87713326Y-77833612D02*
X99266388Y-77833612D01*
X84110786Y-74231072D02*
X87713326Y-77833612D01*
X84110786Y-59010786D02*
X84110786Y-74231072D01*
X81615000Y-56515000D02*
X84110786Y-59010786D01*
X106680000Y-75480000D02*
X106680000Y-76200000D01*
X109220000Y-75420000D02*
X109200000Y-75400000D01*
X109220000Y-75420000D02*
X109220000Y-76200000D01*
X77915000Y-57785000D02*
X81285000Y-57785000D01*
X111700000Y-76100000D02*
X111760000Y-76160000D01*
X100910786Y-78189214D02*
X102200000Y-76900000D01*
X87566030Y-78189214D02*
X100910786Y-78189214D01*
X83755184Y-74378368D02*
X87566030Y-78189214D01*
X83755184Y-60255184D02*
X83755184Y-74378368D01*
X81285000Y-57785000D02*
X83755184Y-60255184D01*
X111760000Y-76160000D02*
X111760000Y-76200000D01*
X103200000Y-77800000D02*
X102300000Y-77800000D01*
X102100000Y-78000000D02*
X102300000Y-77800000D01*
X103200000Y-77800000D02*
X104140000Y-78740000D01*
X77915000Y-59055000D02*
X80755000Y-59055000D01*
X106600000Y-78000000D02*
X106680000Y-78080000D01*
X101744816Y-78544816D02*
X102200000Y-79000000D01*
X87418734Y-78544816D02*
X101744816Y-78544816D01*
X83399582Y-74525664D02*
X87418734Y-78544816D01*
X83399582Y-61699582D02*
X83399582Y-74525664D01*
X80755000Y-59055000D02*
X83399582Y-61699582D01*
X106680000Y-78080000D02*
X106680000Y-78740000D01*
X109220000Y-78020000D02*
X109200000Y-78000000D01*
X109220000Y-78020000D02*
X109220000Y-78740000D01*
X77915000Y-60325000D02*
X80925000Y-60325000D01*
X111700000Y-78800000D02*
X111760000Y-78740000D01*
X99800418Y-78900418D02*
X100600000Y-79700000D01*
X87271438Y-78900418D02*
X99800418Y-78900418D01*
X83043980Y-74672960D02*
X87271438Y-78900418D01*
X83043980Y-62443980D02*
X83043980Y-74672960D01*
X80925000Y-60325000D02*
X83043980Y-62443980D01*
X74485000Y-61595000D02*
X73405000Y-61595000D01*
X73405000Y-61595000D02*
X69655184Y-65344816D01*
X40600000Y-79700000D02*
X40640000Y-79660000D01*
X69300000Y-81200000D02*
X69300000Y-83300000D01*
X69655184Y-80844816D02*
X69300000Y-81200000D01*
X69655184Y-65344816D02*
X69655184Y-80844816D01*
X40640000Y-79660000D02*
X40640000Y-78740000D01*
X40640000Y-79640000D02*
X40640000Y-78740000D01*
X82688378Y-62800000D02*
X82688378Y-82000000D01*
X77915000Y-61595000D02*
X81483378Y-61595000D01*
X81483378Y-61595000D02*
X82688378Y-62800000D01*
X82688378Y-82088378D02*
X82900000Y-82300000D01*
X82688378Y-82000000D02*
X82688378Y-82088378D01*
X43180000Y-79480000D02*
X43200000Y-79500000D01*
X43180000Y-79480000D02*
X43180000Y-78740000D01*
X43180000Y-79580000D02*
X43180000Y-78740000D01*
X74485000Y-62865000D02*
X73335000Y-62865000D01*
X73335000Y-62865000D02*
X70010786Y-66189214D01*
X70010786Y-81889214D02*
X70000000Y-81900000D01*
X70010786Y-66189214D02*
X70010786Y-81889214D01*
X74485000Y-62865000D02*
X73235000Y-62865000D01*
X45800000Y-79400000D02*
X45720000Y-79320000D01*
X45720000Y-79320000D02*
X45720000Y-78740000D01*
X45720000Y-79380000D02*
X45720000Y-78740000D01*
X45720000Y-79480000D02*
X45720000Y-78740000D01*
X77915000Y-62865000D02*
X81297776Y-62865000D01*
X48300000Y-79200000D02*
X48260000Y-79160000D01*
X82332776Y-81667224D02*
X82000000Y-82000000D01*
X82332776Y-63900000D02*
X82332776Y-81667224D01*
X81297776Y-62865000D02*
X82332776Y-63900000D01*
X48260000Y-79160000D02*
X48260000Y-78740000D01*
X48260000Y-79160000D02*
X48260000Y-78740000D01*
X48260000Y-79060000D02*
X48260000Y-78740000D01*
X70366388Y-79866388D02*
X72000000Y-81500000D01*
X40640000Y-76940000D02*
X40700000Y-77000000D01*
X70366388Y-67133612D02*
X70366388Y-79866388D01*
X70366388Y-67133612D02*
X73365000Y-64135000D01*
X74485000Y-64135000D02*
X73365000Y-64135000D01*
X40640000Y-76940000D02*
X40640000Y-76200000D01*
X40640000Y-76940000D02*
X40640000Y-76200000D01*
X40640000Y-76940000D02*
X40640000Y-76200000D01*
X81112174Y-64135000D02*
X81977174Y-65000000D01*
X81977174Y-65000000D02*
X81977174Y-80622826D01*
X81977174Y-80622826D02*
X81100000Y-81500000D01*
X43180000Y-77080000D02*
X43200000Y-77100000D01*
X81112174Y-64135000D02*
X77915000Y-64135000D01*
X43180000Y-77080000D02*
X43180000Y-76200000D01*
X43180000Y-77080000D02*
X43180000Y-76200000D01*
X70721990Y-79121990D02*
X70721990Y-79521990D01*
X71900000Y-80700000D02*
X72300000Y-80700000D01*
X70721990Y-79521990D02*
X71900000Y-80700000D01*
X70721990Y-78221990D02*
X70721990Y-79121990D01*
X45720000Y-76380000D02*
X45700000Y-76400000D01*
X70721990Y-78221990D02*
X70721990Y-78100000D01*
X73000000Y-81800000D02*
X74300000Y-81800000D01*
X72700000Y-81500000D02*
X73000000Y-81800000D01*
X72700000Y-81100000D02*
X72700000Y-81500000D01*
X72300000Y-80700000D02*
X72700000Y-81100000D01*
X74485000Y-65405000D02*
X73395000Y-65405000D01*
X73395000Y-65405000D02*
X70721990Y-68078010D01*
X70721990Y-68078010D02*
X70721990Y-78100000D01*
X70721990Y-78100000D02*
X70721990Y-78121990D01*
X74485000Y-65405000D02*
X73095000Y-65405000D01*
X45720000Y-76380000D02*
X45720000Y-76200000D01*
X77915000Y-65405000D02*
X80705000Y-65405000D01*
X48300000Y-76500000D02*
X48260000Y-76460000D01*
X81621572Y-79978428D02*
X81200000Y-80400000D01*
X81621572Y-66321572D02*
X81621572Y-79978428D01*
X80705000Y-65405000D02*
X81621572Y-66321572D01*
X48260000Y-76460000D02*
X48260000Y-76200000D01*
X71077592Y-77377592D02*
X71077592Y-78677592D01*
X71077592Y-78677592D02*
X71400000Y-79000000D01*
X74485000Y-66675000D02*
X73425000Y-66675000D01*
X73425000Y-66675000D02*
X71077592Y-69022408D01*
X71077592Y-69022408D02*
X71077592Y-77377592D01*
X71077592Y-77377592D02*
X71100000Y-77400000D01*
X40700000Y-74500000D02*
X40640000Y-74440000D01*
X40640000Y-74440000D02*
X40640000Y-73660000D01*
X80475000Y-66675000D02*
X81265970Y-67465970D01*
X81265970Y-67465970D02*
X81265970Y-78734030D01*
X81265970Y-78734030D02*
X80900000Y-79100000D01*
X43180000Y-74280000D02*
X43200000Y-74300000D01*
X80475000Y-66675000D02*
X77915000Y-66675000D01*
X43180000Y-74280000D02*
X43180000Y-73660000D01*
X71433194Y-76633194D02*
X71433194Y-77033194D01*
X71433194Y-77033194D02*
X72600000Y-78200000D01*
X73255000Y-67945000D02*
X71433194Y-69766806D01*
X71433194Y-69766806D02*
X71433194Y-76633194D01*
X45700000Y-74500000D02*
X45720000Y-74480000D01*
X74485000Y-67945000D02*
X73255000Y-67945000D01*
X45720000Y-74480000D02*
X45720000Y-73660000D01*
X80910368Y-77689632D02*
X80600000Y-78000000D01*
X80910368Y-68810368D02*
X80910368Y-77689632D01*
X80045000Y-67945000D02*
X80910368Y-68810368D01*
X77915000Y-67945000D02*
X80045000Y-67945000D01*
X48300000Y-74200000D02*
X48260000Y-74160000D01*
X48260000Y-74160000D02*
X48260000Y-73660000D01*
X40640000Y-71840000D02*
X40800000Y-72000000D01*
X74400000Y-77600000D02*
X73997102Y-77600000D01*
X71788796Y-75391694D02*
X71788796Y-75244398D01*
X73997102Y-77600000D02*
X71788796Y-75391694D01*
X71788796Y-70611204D02*
X73185000Y-69215000D01*
X71788796Y-70611204D02*
X71788796Y-75244398D01*
X74400000Y-77600000D02*
X75300000Y-77600000D01*
X75300000Y-77600000D02*
X75700000Y-78000000D01*
X74485000Y-69215000D02*
X73185000Y-69215000D01*
X40640000Y-71840000D02*
X40640000Y-71120000D01*
X80015000Y-69215000D02*
X80554766Y-69754766D01*
X80554766Y-69754766D02*
X80554766Y-71700000D01*
X80554766Y-71700000D02*
X80554766Y-76400000D01*
X80554766Y-76400000D02*
X79300000Y-77654766D01*
X79300000Y-77654766D02*
X79300000Y-78000000D01*
X43180000Y-71880000D02*
X43200000Y-71900000D01*
X80015000Y-69215000D02*
X77915000Y-69215000D01*
X43180000Y-71880000D02*
X43180000Y-71120000D01*
X74100000Y-76700000D02*
X73600000Y-76700000D01*
X73600000Y-76700000D02*
X72144398Y-75244398D01*
X74485000Y-70485000D02*
X73115000Y-70485000D01*
X73115000Y-70485000D02*
X72144398Y-71455602D01*
X72144398Y-71455602D02*
X72144398Y-75244398D01*
X45800000Y-72000000D02*
X45720000Y-71920000D01*
X76400000Y-76700000D02*
X77300000Y-77600000D01*
X74100000Y-76700000D02*
X76400000Y-76700000D01*
X45720000Y-71920000D02*
X45720000Y-71120000D01*
X77915000Y-70485000D02*
X79684164Y-70485000D01*
X48400000Y-71300000D02*
X48260000Y-71160000D01*
X78600000Y-77300000D02*
X78300000Y-77600000D01*
X79151868Y-77300000D02*
X78600000Y-77300000D01*
X80199164Y-76252704D02*
X79151868Y-77300000D01*
X80199164Y-71000000D02*
X80199164Y-76252704D01*
X79684164Y-70485000D02*
X80199164Y-71000000D01*
X48260000Y-71160000D02*
X48260000Y-71120000D01*
X72500000Y-72000000D02*
X72500000Y-74600000D01*
X72745000Y-71755000D02*
X72500000Y-72000000D01*
X40640000Y-69440000D02*
X40700000Y-69500000D01*
X72745000Y-71755000D02*
X74485000Y-71755000D01*
X72500000Y-74600000D02*
X73300000Y-75400000D01*
X40640000Y-69440000D02*
X40640000Y-68580000D01*
X77915000Y-71755000D02*
X79555000Y-71755000D01*
X43200000Y-69500000D02*
X43180000Y-69480000D01*
X79843562Y-75656438D02*
X78900000Y-76600000D01*
X79843562Y-72043562D02*
X79843562Y-75656438D01*
X79555000Y-71755000D02*
X79843562Y-72043562D01*
X43180000Y-69480000D02*
X43180000Y-68580000D01*
X45720000Y-69220000D02*
X45800000Y-69300000D01*
X45720000Y-69220000D02*
X45720000Y-68580000D01*
X48260000Y-68860000D02*
X48300000Y-68900000D01*
X48260000Y-68860000D02*
X48260000Y-68580000D01*
X60515000Y-48895000D02*
X53705000Y-48895000D01*
X40700000Y-67000000D02*
X40640000Y-66940000D01*
X49900000Y-52700000D02*
X49900000Y-68100000D01*
X53705000Y-48895000D02*
X49900000Y-52700000D01*
X40640000Y-66940000D02*
X40640000Y-66040000D01*
X50255602Y-52847296D02*
X50255602Y-67055602D01*
X50255602Y-67055602D02*
X50700000Y-67500000D01*
X43200000Y-66800000D02*
X43180000Y-66780000D01*
X53702898Y-49400000D02*
X50255602Y-52847296D01*
X57600000Y-49400000D02*
X53702898Y-49400000D01*
X57800000Y-49600000D02*
X57600000Y-49400000D01*
X43180000Y-66780000D02*
X43180000Y-66040000D01*
X43180000Y-66880000D02*
X43180000Y-66040000D01*
X60515000Y-50165000D02*
X58635000Y-50165000D01*
X45700000Y-66500000D02*
X45720000Y-66480000D01*
X50611204Y-66111204D02*
X51000000Y-66500000D01*
X50611204Y-52994592D02*
X50611204Y-66111204D01*
X53850194Y-49755602D02*
X50611204Y-52994592D01*
X56855602Y-49755602D02*
X53850194Y-49755602D01*
X57400000Y-50300000D02*
X56855602Y-49755602D01*
X58500000Y-50300000D02*
X57400000Y-50300000D01*
X58635000Y-50165000D02*
X58500000Y-50300000D01*
X45720000Y-66480000D02*
X45720000Y-66040000D01*
X45720000Y-66520000D02*
X45720000Y-66040000D01*
X48260000Y-66060000D02*
X48300000Y-66100000D01*
X50966806Y-65366806D02*
X52000000Y-66400000D01*
X50966806Y-53141888D02*
X50966806Y-65366806D01*
X53708694Y-50400000D02*
X50966806Y-53141888D01*
X56500000Y-50400000D02*
X53708694Y-50400000D01*
X56600000Y-50500000D02*
X56500000Y-50400000D01*
X48260000Y-66060000D02*
X48260000Y-66040000D01*
X48260000Y-66160000D02*
X48260000Y-66040000D01*
X60515000Y-51435000D02*
X59235000Y-51435000D01*
X59235000Y-51435000D02*
X58455602Y-50655602D01*
X58455602Y-50655602D02*
X57444398Y-50655602D01*
X57444398Y-50655602D02*
X56900000Y-51200000D01*
X56900000Y-51200000D02*
X56300000Y-51200000D01*
X56300000Y-51200000D02*
X55855602Y-50755602D01*
X55855602Y-50755602D02*
X53855990Y-50755602D01*
X53855990Y-50755602D02*
X53411592Y-51200000D01*
X40700000Y-64400000D02*
X40640000Y-64340000D01*
X51322408Y-64722408D02*
X51700000Y-65100000D01*
X51322408Y-53289184D02*
X51322408Y-64722408D01*
X53411592Y-51200000D02*
X51322408Y-53289184D01*
X40640000Y-64340000D02*
X40640000Y-63500000D01*
X40640000Y-64240000D02*
X40640000Y-63500000D01*
X43180000Y-64180000D02*
X43300000Y-64300000D01*
X51700000Y-64000000D02*
X52700000Y-65000000D01*
X51700000Y-53414490D02*
X51700000Y-64000000D01*
X54003286Y-51111204D02*
X51700000Y-53414490D01*
X55708306Y-51111204D02*
X54003286Y-51111204D01*
X56152704Y-51555602D02*
X55708306Y-51111204D01*
X57744398Y-51555602D02*
X56152704Y-51555602D01*
X57900000Y-51400000D02*
X57744398Y-51555602D01*
X43180000Y-64180000D02*
X43180000Y-63500000D01*
X58700000Y-52100000D02*
X57300000Y-52100000D01*
X53517388Y-52100000D02*
X52055602Y-53561786D01*
X52055602Y-53561786D02*
X52055602Y-63355602D01*
X52055602Y-63355602D02*
X52700000Y-64000000D01*
X45720000Y-64120000D02*
X45800000Y-64200000D01*
X58700000Y-52100000D02*
X59305000Y-52705000D01*
X54150582Y-51466806D02*
X53517388Y-52100000D01*
X55561010Y-51466806D02*
X54150582Y-51466806D01*
X56005408Y-51911204D02*
X55561010Y-51466806D01*
X57111204Y-51911204D02*
X56005408Y-51911204D01*
X57300000Y-52100000D02*
X57111204Y-51911204D01*
X60515000Y-52705000D02*
X59305000Y-52705000D01*
X45720000Y-64120000D02*
X45720000Y-63500000D01*
X48260000Y-63500000D02*
X48300000Y-63500000D01*
X52411204Y-62711204D02*
X53700000Y-64000000D01*
X52411204Y-53709082D02*
X52411204Y-62711204D01*
X54220286Y-51900000D02*
X52411204Y-53709082D01*
X55000000Y-51900000D02*
X54220286Y-51900000D01*
X55300000Y-52200000D02*
X55000000Y-51900000D01*
X60515000Y-53975000D02*
X59475000Y-53975000D01*
X59475000Y-53975000D02*
X58400000Y-52900000D01*
X58400000Y-52900000D02*
X53723184Y-52900000D01*
X53723184Y-52900000D02*
X52766806Y-53856378D01*
X52766806Y-53856378D02*
X52766806Y-62066806D01*
X52766806Y-62066806D02*
X53700000Y-63000000D01*
X40800000Y-61800000D02*
X40640000Y-61640000D01*
X40640000Y-61640000D02*
X40640000Y-60960000D01*
X43180000Y-61680000D02*
X43300000Y-61800000D01*
X53122408Y-61022408D02*
X54700000Y-62600000D01*
X53122408Y-54003674D02*
X53122408Y-61022408D01*
X53870480Y-53255602D02*
X53122408Y-54003674D01*
X57755602Y-53255602D02*
X53870480Y-53255602D01*
X58100000Y-53600000D02*
X57755602Y-53255602D01*
X43180000Y-61680000D02*
X43180000Y-60960000D01*
X60515000Y-55245000D02*
X58745000Y-55245000D01*
X45800000Y-61500000D02*
X45720000Y-61420000D01*
X53478010Y-60378010D02*
X54700000Y-61600000D01*
X53478010Y-54800000D02*
X53478010Y-60378010D01*
X54378010Y-53900000D02*
X53478010Y-54800000D01*
X57400000Y-53900000D02*
X54378010Y-53900000D01*
X58745000Y-55245000D02*
X57400000Y-53900000D01*
X45720000Y-61420000D02*
X45720000Y-60960000D01*
X48260000Y-60960000D02*
X48300000Y-61000000D01*
X53833612Y-59533612D02*
X55700000Y-61400000D01*
X53833612Y-55166388D02*
X53833612Y-59533612D01*
X54744398Y-54255602D02*
X53833612Y-55166388D01*
X56755602Y-54255602D02*
X54744398Y-54255602D01*
X57100000Y-54600000D02*
X56755602Y-54255602D01*
X60515000Y-56515000D02*
X58915000Y-56515000D01*
X40700000Y-59300000D02*
X40640000Y-59240000D01*
X54189214Y-58889214D02*
X55700000Y-60400000D01*
X54189214Y-56110786D02*
X54189214Y-58889214D01*
X55000000Y-55300000D02*
X54189214Y-56110786D01*
X57700000Y-55300000D02*
X55000000Y-55300000D01*
X58915000Y-56515000D02*
X57700000Y-55300000D01*
X40640000Y-59240000D02*
X40640000Y-58420000D01*
X43180000Y-59180000D02*
X43200000Y-59200000D01*
X54544816Y-58044816D02*
X56700000Y-60200000D01*
X54544816Y-56955184D02*
X54544816Y-58044816D01*
X55800000Y-55700000D02*
X54544816Y-56955184D01*
X57100000Y-55700000D02*
X55800000Y-55700000D01*
X57400000Y-56000000D02*
X57100000Y-55700000D01*
X43180000Y-59180000D02*
X43180000Y-58420000D01*
X60515000Y-57785000D02*
X57715000Y-57785000D01*
X45800000Y-59100000D02*
X45720000Y-59020000D01*
X57715000Y-57785000D02*
X56500000Y-59000000D01*
X45720000Y-59020000D02*
X45720000Y-58420000D01*
X48260000Y-58460000D02*
X48300000Y-58500000D01*
X56500000Y-58300000D02*
X55800000Y-58300000D01*
X58100000Y-56700000D02*
X56500000Y-58300000D01*
X48260000Y-58460000D02*
X48260000Y-58420000D01*
X60515000Y-59055000D02*
X57745000Y-59055000D01*
X40700000Y-56800000D02*
X40640000Y-56740000D01*
X57745000Y-59055000D02*
X57500000Y-59300000D01*
X40640000Y-56740000D02*
X40640000Y-55880000D01*
X43180000Y-56580000D02*
X43300000Y-56700000D01*
X43180000Y-56580000D02*
X43180000Y-55880000D01*
X45720000Y-56080000D02*
X45700000Y-56100000D01*
X45720000Y-56080000D02*
X45720000Y-55880000D01*
X63945000Y-60325000D02*
X65475000Y-60325000D01*
X48500000Y-56500000D02*
X48260000Y-56260000D01*
X58200000Y-48200000D02*
X57500000Y-48200000D01*
X60100000Y-46300000D02*
X58200000Y-48200000D01*
X64200000Y-46300000D02*
X60100000Y-46300000D01*
X66100000Y-48200000D02*
X64200000Y-46300000D01*
X66100000Y-59700000D02*
X66100000Y-48200000D01*
X65475000Y-60325000D02*
X66100000Y-59700000D01*
X48260000Y-56260000D02*
X48260000Y-55880000D01*
X40700000Y-53400000D02*
X40640000Y-53340000D01*
X43180000Y-54180000D02*
X43300000Y-54300000D01*
X43180000Y-54180000D02*
X43180000Y-53340000D01*
X66100000Y-62900000D02*
X66100000Y-62811204D01*
X50394204Y-51200000D02*
X49900000Y-51200000D01*
X56005408Y-45588796D02*
X50394204Y-51200000D01*
X64494592Y-45588796D02*
X56005408Y-45588796D01*
X66811204Y-47905408D02*
X64494592Y-45588796D01*
X66811204Y-62100000D02*
X66811204Y-47905408D01*
X66100000Y-62811204D02*
X66811204Y-62100000D01*
X45700000Y-53500000D02*
X45720000Y-53480000D01*
X45720000Y-53480000D02*
X45720000Y-53340000D01*
X45700000Y-53800000D02*
X45720000Y-53780000D01*
X63945000Y-62865000D02*
X65135000Y-62865000D01*
X56152704Y-45944398D02*
X48757102Y-53340000D01*
X64347296Y-45944398D02*
X56152704Y-45944398D01*
X66455602Y-48052704D02*
X64347296Y-45944398D01*
X66455602Y-61544398D02*
X66455602Y-48052704D01*
X65135000Y-62865000D02*
X66455602Y-61544398D01*
X48757102Y-53340000D02*
X48260000Y-53340000D01*
X67200000Y-64800000D02*
X67878010Y-64121990D01*
X67878010Y-64121990D02*
X67878010Y-47463520D01*
X67878010Y-47463520D02*
X64514490Y-44100000D01*
X64514490Y-44100000D02*
X58200000Y-44100000D01*
X66500000Y-64800000D02*
X67200000Y-64800000D01*
X40700000Y-51000000D02*
X40640000Y-50940000D01*
X40640000Y-50940000D02*
X40640000Y-50800000D01*
X67000000Y-64000000D02*
X67522408Y-63477592D01*
X67522408Y-63477592D02*
X67522408Y-47610816D01*
X67522408Y-47610816D02*
X64711592Y-44800000D01*
X64711592Y-44800000D02*
X57500000Y-44800000D01*
X57200000Y-44500000D02*
X57500000Y-44800000D01*
X60800000Y-65400000D02*
X60795000Y-65405000D01*
X60795000Y-65405000D02*
X60515000Y-65405000D01*
X67166806Y-62900000D02*
X67100000Y-62900000D01*
X67166806Y-62900000D02*
X67166806Y-47758112D01*
X67166806Y-47758112D02*
X64641888Y-45233194D01*
X64641888Y-45233194D02*
X55858112Y-45233194D01*
X55858112Y-45233194D02*
X50591306Y-50500000D01*
X48560000Y-50500000D02*
X50591306Y-50500000D01*
X65800000Y-64200000D02*
X65800000Y-65200000D01*
X65800000Y-65200000D02*
X65595000Y-65405000D01*
X65595000Y-65405000D02*
X63945000Y-65405000D01*
X67100000Y-62900000D02*
X65800000Y-64200000D01*
X48560000Y-50500000D02*
X48260000Y-50800000D01*
X40700000Y-49100000D02*
X40640000Y-49040000D01*
X40640000Y-49040000D02*
X40640000Y-48260000D01*
X43200000Y-48600000D02*
X43180000Y-48580000D01*
X43180000Y-48580000D02*
X43180000Y-48260000D01*
X45700000Y-48300000D02*
X45720000Y-48280000D01*
X45720000Y-48280000D02*
X45720000Y-48260000D01*
X63945000Y-67945000D02*
X65955000Y-67945000D01*
X49300000Y-49300000D02*
X48260000Y-48260000D01*
X51288408Y-49300000D02*
X49300000Y-49300000D01*
X57188408Y-43400000D02*
X51288408Y-49300000D01*
X64317388Y-43400000D02*
X57188408Y-43400000D01*
X68233612Y-47316224D02*
X64317388Y-43400000D01*
X68233612Y-65666388D02*
X68233612Y-47316224D01*
X65955000Y-67945000D02*
X68233612Y-65666388D01*
X40640000Y-46540000D02*
X40800000Y-46700000D01*
X40640000Y-46540000D02*
X40640000Y-45720000D01*
X43180000Y-45920000D02*
X43100000Y-46000000D01*
X43180000Y-45920000D02*
X43180000Y-45720000D01*
X45720000Y-45320000D02*
X45700000Y-45300000D01*
X45720000Y-45320000D02*
X45720000Y-45720000D01*
X63945000Y-70485000D02*
X65115000Y-70485000D01*
X65115000Y-70485000D02*
X68589214Y-67010786D01*
X68589214Y-67010786D02*
X68589214Y-47168928D01*
X68589214Y-47168928D02*
X64464684Y-43044398D01*
X64464684Y-43044398D02*
X57041112Y-43044398D01*
X57041112Y-43044398D02*
X53385510Y-46700000D01*
X53385510Y-46700000D02*
X49240000Y-46700000D01*
X49240000Y-46700000D02*
X48260000Y-45720000D01*
X40640000Y-43940000D02*
X40700000Y-44000000D01*
X40640000Y-43940000D02*
X40640000Y-43180000D01*
X43180000Y-43780000D02*
X43300000Y-43900000D01*
X43180000Y-43780000D02*
X43180000Y-43180000D01*
X45720000Y-43180000D02*
X45800000Y-43100000D01*
X48260000Y-43180000D02*
X56320000Y-43180000D01*
X56320000Y-43180000D02*
X56811204Y-42688796D01*
X63945000Y-73025000D02*
X66175000Y-73025000D01*
X66175000Y-73025000D02*
X68944816Y-70255184D01*
X68944816Y-70255184D02*
X68944816Y-47021632D01*
X68944816Y-47021632D02*
X64611980Y-42688796D01*
X64611980Y-42688796D02*
X56811204Y-42688796D01*
X48751204Y-42688796D02*
X48260000Y-43180000D01*
X82500000Y-85100000D02*
X83900000Y-85100000D01*
X83900000Y-85100000D02*
X84400000Y-84600000D01*
X81980000Y-84580000D02*
X77450000Y-84580000D01*
X81980000Y-84580000D02*
X82500000Y-85100000D01*
X81800000Y-83100000D02*
X83300000Y-83100000D01*
X80800000Y-82100000D02*
X81800000Y-83100000D01*
X79600000Y-82100000D02*
X80800000Y-82100000D01*
X79200000Y-81700000D02*
X79600000Y-82100000D01*
X79200000Y-79820000D02*
X79200000Y-81700000D01*
X83300000Y-83100000D02*
X84300000Y-82100000D01*
X106680000Y-40640000D02*
X106680000Y-39480000D01*
X79600000Y-38400000D02*
X72100000Y-45900000D01*
X105600000Y-38400000D02*
X79600000Y-38400000D01*
X106680000Y-39480000D02*
X105600000Y-38400000D01*
X77450000Y-84580000D02*
X70720000Y-84580000D01*
X70720000Y-84580000D02*
X70700000Y-84600000D01*
X70700000Y-84600000D02*
X70700000Y-84700000D01*
X43180000Y-40640000D02*
X45720000Y-40640000D01*
X43180000Y-81280000D02*
X45720000Y-81280000D01*
X106680000Y-81280000D02*
X109220000Y-81280000D01*
X106680000Y-40640000D02*
X109220000Y-40640000D01*
D18*
G36*
X43307000Y-81153000D02*
X45593000Y-81153000D01*
X45593000Y-81133000D01*
X45847000Y-81133000D01*
X45847000Y-81153000D01*
X45867000Y-81153000D01*
X45867000Y-81407000D01*
X45847000Y-81407000D01*
X45847000Y-82706210D01*
X46005750Y-82864960D01*
X46796269Y-82864960D01*
X46892997Y-82824894D01*
X47021655Y-82912803D01*
X47310040Y-82971202D01*
X49209960Y-82971202D01*
X49479370Y-82920509D01*
X49726806Y-82761288D01*
X49892803Y-82518345D01*
X49951202Y-82229960D01*
X49951202Y-82095900D01*
X64342044Y-82095900D01*
X66923071Y-84676928D01*
X67187768Y-84853793D01*
X67227590Y-84861714D01*
X67500000Y-84915900D01*
X69900000Y-84915900D01*
X70212231Y-84853793D01*
X70476928Y-84676928D01*
X71637956Y-83515900D01*
X72410000Y-83515900D01*
X72410000Y-84714250D01*
X72485750Y-84790000D01*
X72410000Y-84865750D01*
X72410000Y-85036100D01*
X39614400Y-85036100D01*
X39614400Y-82955885D01*
X39690040Y-82971202D01*
X41589960Y-82971202D01*
X41859370Y-82920509D01*
X42007585Y-82825135D01*
X42103731Y-82864960D01*
X42894250Y-82864960D01*
X43053000Y-82706210D01*
X43053000Y-81407000D01*
X43307000Y-81407000D01*
X43307000Y-82706210D01*
X43465750Y-82864960D01*
X44256269Y-82864960D01*
X44450000Y-82784714D01*
X44643731Y-82864960D01*
X45434250Y-82864960D01*
X45593000Y-82706210D01*
X45593000Y-81407000D01*
X43307000Y-81407000D01*
X43053000Y-81407000D01*
X43033000Y-81407000D01*
X43033000Y-81153000D01*
X43053000Y-81153000D01*
X43053000Y-81133000D01*
X43307000Y-81133000D01*
X43307000Y-81153000D01*
X43307000Y-81153000D01*
G37*
X43307000Y-81153000D02*
X45593000Y-81153000D01*
X45593000Y-81133000D01*
X45847000Y-81133000D01*
X45847000Y-81153000D01*
X45867000Y-81153000D01*
X45867000Y-81407000D01*
X45847000Y-81407000D01*
X45847000Y-82706210D01*
X46005750Y-82864960D01*
X46796269Y-82864960D01*
X46892997Y-82824894D01*
X47021655Y-82912803D01*
X47310040Y-82971202D01*
X49209960Y-82971202D01*
X49479370Y-82920509D01*
X49726806Y-82761288D01*
X49892803Y-82518345D01*
X49951202Y-82229960D01*
X49951202Y-82095900D01*
X64342044Y-82095900D01*
X66923071Y-84676928D01*
X67187768Y-84853793D01*
X67227590Y-84861714D01*
X67500000Y-84915900D01*
X69900000Y-84915900D01*
X70212231Y-84853793D01*
X70476928Y-84676928D01*
X71637956Y-83515900D01*
X72410000Y-83515900D01*
X72410000Y-84714250D01*
X72485750Y-84790000D01*
X72410000Y-84865750D01*
X72410000Y-85036100D01*
X39614400Y-85036100D01*
X39614400Y-82955885D01*
X39690040Y-82971202D01*
X41589960Y-82971202D01*
X41859370Y-82920509D01*
X42007585Y-82825135D01*
X42103731Y-82864960D01*
X42894250Y-82864960D01*
X43053000Y-82706210D01*
X43053000Y-81407000D01*
X43307000Y-81407000D01*
X43307000Y-82706210D01*
X43465750Y-82864960D01*
X44256269Y-82864960D01*
X44450000Y-82784714D01*
X44643731Y-82864960D01*
X45434250Y-82864960D01*
X45593000Y-82706210D01*
X45593000Y-81407000D01*
X43307000Y-81407000D01*
X43053000Y-81407000D01*
X43033000Y-81407000D01*
X43033000Y-81153000D01*
X43053000Y-81153000D01*
X43053000Y-81133000D01*
X43307000Y-81133000D01*
X43307000Y-81153000D01*
G36*
X106807000Y-81153000D02*
X109093000Y-81153000D01*
X109093000Y-81133000D01*
X109347000Y-81133000D01*
X109347000Y-81153000D01*
X109367000Y-81153000D01*
X109367000Y-81407000D01*
X109347000Y-81407000D01*
X109347000Y-82706210D01*
X109505750Y-82864960D01*
X110296269Y-82864960D01*
X110392997Y-82824894D01*
X110521655Y-82912803D01*
X110810040Y-82971202D01*
X112709960Y-82971202D01*
X112785600Y-82956969D01*
X112785600Y-85036100D01*
X80790000Y-85036100D01*
X80790000Y-84865750D01*
X80714250Y-84790000D01*
X80790000Y-84714250D01*
X80790000Y-84221649D01*
X80987769Y-84353793D01*
X81300000Y-84415900D01*
X101820000Y-84415900D01*
X102132231Y-84353793D01*
X102396928Y-84176928D01*
X103602655Y-82971202D01*
X105089960Y-82971202D01*
X105359370Y-82920509D01*
X105507585Y-82825135D01*
X105603731Y-82864960D01*
X106394250Y-82864960D01*
X106553000Y-82706210D01*
X106553000Y-81407000D01*
X106807000Y-81407000D01*
X106807000Y-82706210D01*
X106965750Y-82864960D01*
X107756269Y-82864960D01*
X107950000Y-82784714D01*
X108143731Y-82864960D01*
X108934250Y-82864960D01*
X109093000Y-82706210D01*
X109093000Y-81407000D01*
X106807000Y-81407000D01*
X106553000Y-81407000D01*
X106533000Y-81407000D01*
X106533000Y-81153000D01*
X106553000Y-81153000D01*
X106553000Y-81133000D01*
X106807000Y-81133000D01*
X106807000Y-81153000D01*
X106807000Y-81153000D01*
G37*
X106807000Y-81153000D02*
X109093000Y-81153000D01*
X109093000Y-81133000D01*
X109347000Y-81133000D01*
X109347000Y-81153000D01*
X109367000Y-81153000D01*
X109367000Y-81407000D01*
X109347000Y-81407000D01*
X109347000Y-82706210D01*
X109505750Y-82864960D01*
X110296269Y-82864960D01*
X110392997Y-82824894D01*
X110521655Y-82912803D01*
X110810040Y-82971202D01*
X112709960Y-82971202D01*
X112785600Y-82956969D01*
X112785600Y-85036100D01*
X80790000Y-85036100D01*
X80790000Y-84865750D01*
X80714250Y-84790000D01*
X80790000Y-84714250D01*
X80790000Y-84221649D01*
X80987769Y-84353793D01*
X81300000Y-84415900D01*
X101820000Y-84415900D01*
X102132231Y-84353793D01*
X102396928Y-84176928D01*
X103602655Y-82971202D01*
X105089960Y-82971202D01*
X105359370Y-82920509D01*
X105507585Y-82825135D01*
X105603731Y-82864960D01*
X106394250Y-82864960D01*
X106553000Y-82706210D01*
X106553000Y-81407000D01*
X106807000Y-81407000D01*
X106807000Y-82706210D01*
X106965750Y-82864960D01*
X107756269Y-82864960D01*
X107950000Y-82784714D01*
X108143731Y-82864960D01*
X108934250Y-82864960D01*
X109093000Y-82706210D01*
X109093000Y-81407000D01*
X106807000Y-81407000D01*
X106553000Y-81407000D01*
X106533000Y-81407000D01*
X106533000Y-81153000D01*
X106553000Y-81153000D01*
X106553000Y-81133000D01*
X106807000Y-81133000D01*
X106807000Y-81153000D01*
G36*
X58313758Y-60695000D02*
X58364451Y-60964410D01*
X58366031Y-60966866D01*
X58313758Y-61225000D01*
X58313758Y-61965000D01*
X58364451Y-62234410D01*
X58366031Y-62236866D01*
X58313758Y-62495000D01*
X58313758Y-63235000D01*
X58364451Y-63504410D01*
X58366031Y-63506866D01*
X58313758Y-63765000D01*
X58313758Y-64505000D01*
X58364451Y-64774410D01*
X58366031Y-64776866D01*
X58313758Y-65035000D01*
X58313758Y-65775000D01*
X58364451Y-66044410D01*
X58366031Y-66046866D01*
X58313758Y-66305000D01*
X58313758Y-67045000D01*
X58364451Y-67314410D01*
X58366031Y-67316866D01*
X58313758Y-67575000D01*
X58313758Y-68315000D01*
X58364451Y-68584410D01*
X58366031Y-68586866D01*
X58313758Y-68845000D01*
X58313758Y-69585000D01*
X58364451Y-69854410D01*
X58366031Y-69856866D01*
X58313758Y-70115000D01*
X58313758Y-70855000D01*
X58364451Y-71124410D01*
X58366031Y-71126866D01*
X58313758Y-71385000D01*
X58313758Y-72125000D01*
X58364451Y-72394410D01*
X58366031Y-72396866D01*
X58313758Y-72655000D01*
X58313758Y-73395000D01*
X58364451Y-73664410D01*
X58523672Y-73911846D01*
X58766615Y-74077843D01*
X59055000Y-74136242D01*
X60953008Y-74136242D01*
X60868237Y-74340393D01*
X60867764Y-74882230D01*
X61074679Y-75383003D01*
X61457482Y-75766474D01*
X61957893Y-75974263D01*
X62499730Y-75974736D01*
X63000503Y-75767821D01*
X63383974Y-75385018D01*
X63591763Y-74884607D01*
X63592236Y-74342770D01*
X63506900Y-74136242D01*
X65405000Y-74136242D01*
X65674410Y-74085549D01*
X65921846Y-73926328D01*
X65980217Y-73840900D01*
X66175000Y-73840900D01*
X66487231Y-73778793D01*
X66751928Y-73601928D01*
X68839284Y-71514573D01*
X68839284Y-80506860D01*
X68723072Y-80623072D01*
X68546207Y-80887769D01*
X68484100Y-81200000D01*
X68484100Y-82548894D01*
X68361231Y-82671549D01*
X68192193Y-83078638D01*
X68192014Y-83284100D01*
X67837957Y-83284100D01*
X65256928Y-80703072D01*
X64992231Y-80526207D01*
X64976465Y-80523071D01*
X64680000Y-80464100D01*
X49951202Y-80464100D01*
X49951202Y-80330040D01*
X49900509Y-80060630D01*
X49869503Y-80012445D01*
X49892803Y-79978345D01*
X49951202Y-79689960D01*
X49951202Y-77790040D01*
X49900509Y-77520630D01*
X49869503Y-77472445D01*
X49892803Y-77438345D01*
X49951202Y-77149960D01*
X49951202Y-75250040D01*
X49900509Y-74980630D01*
X49869503Y-74932445D01*
X49892803Y-74898345D01*
X49951202Y-74609960D01*
X49951202Y-72710040D01*
X49900509Y-72440630D01*
X49869503Y-72392445D01*
X49892803Y-72358345D01*
X49951202Y-72069960D01*
X49951202Y-70170040D01*
X49900509Y-69900630D01*
X49869503Y-69852445D01*
X49892803Y-69818345D01*
X49951202Y-69529960D01*
X49951202Y-69208045D01*
X50119428Y-69208192D01*
X50526812Y-69039864D01*
X50838769Y-68728451D01*
X50888716Y-68608165D01*
X50919428Y-68608192D01*
X51326812Y-68439864D01*
X51638769Y-68128451D01*
X51807807Y-67721362D01*
X51807994Y-67507833D01*
X52219428Y-67508192D01*
X52626812Y-67339864D01*
X52938769Y-67028451D01*
X53107807Y-66621362D01*
X53108192Y-66180572D01*
X53055119Y-66052126D01*
X53326812Y-65939864D01*
X53638769Y-65628451D01*
X53807807Y-65221362D01*
X53807906Y-65108095D01*
X53919428Y-65108192D01*
X54326812Y-64939864D01*
X54638769Y-64628451D01*
X54807807Y-64221362D01*
X54808192Y-63780572D01*
X54778234Y-63708069D01*
X54919428Y-63708192D01*
X55326812Y-63539864D01*
X55638769Y-63228451D01*
X55807807Y-62821362D01*
X55808081Y-62508095D01*
X55919428Y-62508192D01*
X56326812Y-62339864D01*
X56638769Y-62028451D01*
X56807807Y-61621362D01*
X56808081Y-61308095D01*
X56919428Y-61308192D01*
X57326812Y-61139864D01*
X57638769Y-60828451D01*
X57807807Y-60421362D01*
X57807850Y-60371657D01*
X58126812Y-60239864D01*
X58313758Y-60053244D01*
X58313758Y-60695000D01*
X58313758Y-60695000D01*
G37*
X58313758Y-60695000D02*
X58364451Y-60964410D01*
X58366031Y-60966866D01*
X58313758Y-61225000D01*
X58313758Y-61965000D01*
X58364451Y-62234410D01*
X58366031Y-62236866D01*
X58313758Y-62495000D01*
X58313758Y-63235000D01*
X58364451Y-63504410D01*
X58366031Y-63506866D01*
X58313758Y-63765000D01*
X58313758Y-64505000D01*
X58364451Y-64774410D01*
X58366031Y-64776866D01*
X58313758Y-65035000D01*
X58313758Y-65775000D01*
X58364451Y-66044410D01*
X58366031Y-66046866D01*
X58313758Y-66305000D01*
X58313758Y-67045000D01*
X58364451Y-67314410D01*
X58366031Y-67316866D01*
X58313758Y-67575000D01*
X58313758Y-68315000D01*
X58364451Y-68584410D01*
X58366031Y-68586866D01*
X58313758Y-68845000D01*
X58313758Y-69585000D01*
X58364451Y-69854410D01*
X58366031Y-69856866D01*
X58313758Y-70115000D01*
X58313758Y-70855000D01*
X58364451Y-71124410D01*
X58366031Y-71126866D01*
X58313758Y-71385000D01*
X58313758Y-72125000D01*
X58364451Y-72394410D01*
X58366031Y-72396866D01*
X58313758Y-72655000D01*
X58313758Y-73395000D01*
X58364451Y-73664410D01*
X58523672Y-73911846D01*
X58766615Y-74077843D01*
X59055000Y-74136242D01*
X60953008Y-74136242D01*
X60868237Y-74340393D01*
X60867764Y-74882230D01*
X61074679Y-75383003D01*
X61457482Y-75766474D01*
X61957893Y-75974263D01*
X62499730Y-75974736D01*
X63000503Y-75767821D01*
X63383974Y-75385018D01*
X63591763Y-74884607D01*
X63592236Y-74342770D01*
X63506900Y-74136242D01*
X65405000Y-74136242D01*
X65674410Y-74085549D01*
X65921846Y-73926328D01*
X65980217Y-73840900D01*
X66175000Y-73840900D01*
X66487231Y-73778793D01*
X66751928Y-73601928D01*
X68839284Y-71514573D01*
X68839284Y-80506860D01*
X68723072Y-80623072D01*
X68546207Y-80887769D01*
X68484100Y-81200000D01*
X68484100Y-82548894D01*
X68361231Y-82671549D01*
X68192193Y-83078638D01*
X68192014Y-83284100D01*
X67837957Y-83284100D01*
X65256928Y-80703072D01*
X64992231Y-80526207D01*
X64976465Y-80523071D01*
X64680000Y-80464100D01*
X49951202Y-80464100D01*
X49951202Y-80330040D01*
X49900509Y-80060630D01*
X49869503Y-80012445D01*
X49892803Y-79978345D01*
X49951202Y-79689960D01*
X49951202Y-77790040D01*
X49900509Y-77520630D01*
X49869503Y-77472445D01*
X49892803Y-77438345D01*
X49951202Y-77149960D01*
X49951202Y-75250040D01*
X49900509Y-74980630D01*
X49869503Y-74932445D01*
X49892803Y-74898345D01*
X49951202Y-74609960D01*
X49951202Y-72710040D01*
X49900509Y-72440630D01*
X49869503Y-72392445D01*
X49892803Y-72358345D01*
X49951202Y-72069960D01*
X49951202Y-70170040D01*
X49900509Y-69900630D01*
X49869503Y-69852445D01*
X49892803Y-69818345D01*
X49951202Y-69529960D01*
X49951202Y-69208045D01*
X50119428Y-69208192D01*
X50526812Y-69039864D01*
X50838769Y-68728451D01*
X50888716Y-68608165D01*
X50919428Y-68608192D01*
X51326812Y-68439864D01*
X51638769Y-68128451D01*
X51807807Y-67721362D01*
X51807994Y-67507833D01*
X52219428Y-67508192D01*
X52626812Y-67339864D01*
X52938769Y-67028451D01*
X53107807Y-66621362D01*
X53108192Y-66180572D01*
X53055119Y-66052126D01*
X53326812Y-65939864D01*
X53638769Y-65628451D01*
X53807807Y-65221362D01*
X53807906Y-65108095D01*
X53919428Y-65108192D01*
X54326812Y-64939864D01*
X54638769Y-64628451D01*
X54807807Y-64221362D01*
X54808192Y-63780572D01*
X54778234Y-63708069D01*
X54919428Y-63708192D01*
X55326812Y-63539864D01*
X55638769Y-63228451D01*
X55807807Y-62821362D01*
X55808081Y-62508095D01*
X55919428Y-62508192D01*
X56326812Y-62339864D01*
X56638769Y-62028451D01*
X56807807Y-61621362D01*
X56808081Y-61308095D01*
X56919428Y-61308192D01*
X57326812Y-61139864D01*
X57638769Y-60828451D01*
X57807807Y-60421362D01*
X57807850Y-60371657D01*
X58126812Y-60239864D01*
X58313758Y-60053244D01*
X58313758Y-60695000D01*
G36*
X86694509Y-79477346D02*
X86812074Y-79555900D01*
X86959207Y-79654211D01*
X87271438Y-79716318D01*
X99462462Y-79716318D01*
X99491960Y-79745816D01*
X99491808Y-79919428D01*
X99660136Y-80326812D01*
X99971549Y-80638769D01*
X100378638Y-80807807D01*
X100819428Y-80808192D01*
X101226812Y-80639864D01*
X101538769Y-80328451D01*
X101681603Y-79984468D01*
X101978638Y-80107807D01*
X102419428Y-80108192D01*
X102500507Y-80074691D01*
X102448798Y-80330040D01*
X102448798Y-81817345D01*
X101482044Y-82784100D01*
X83898709Y-82784100D01*
X84007807Y-82521362D01*
X84008192Y-82080572D01*
X83839864Y-81673188D01*
X83528451Y-81361231D01*
X83504278Y-81351194D01*
X83504278Y-76287114D01*
X86694509Y-79477346D01*
X86694509Y-79477346D01*
G37*
X86694509Y-79477346D02*
X86812074Y-79555900D01*
X86959207Y-79654211D01*
X87271438Y-79716318D01*
X99462462Y-79716318D01*
X99491960Y-79745816D01*
X99491808Y-79919428D01*
X99660136Y-80326812D01*
X99971549Y-80638769D01*
X100378638Y-80807807D01*
X100819428Y-80808192D01*
X101226812Y-80639864D01*
X101538769Y-80328451D01*
X101681603Y-79984468D01*
X101978638Y-80107807D01*
X102419428Y-80108192D01*
X102500507Y-80074691D01*
X102448798Y-80330040D01*
X102448798Y-81817345D01*
X101482044Y-82784100D01*
X83898709Y-82784100D01*
X84007807Y-82521362D01*
X84008192Y-82080572D01*
X83839864Y-81673188D01*
X83528451Y-81361231D01*
X83504278Y-81351194D01*
X83504278Y-76287114D01*
X86694509Y-79477346D01*
G36*
X79327000Y-81471250D02*
X79485750Y-81630000D01*
X79991886Y-81630000D01*
X79991808Y-81719428D01*
X80101168Y-81984100D01*
X78192189Y-81984100D01*
X78192276Y-81884721D01*
X78082026Y-81617897D01*
X78091463Y-81618722D01*
X78118690Y-81630000D01*
X78220364Y-81630000D01*
X78315367Y-81638312D01*
X78341729Y-81630000D01*
X78914250Y-81630000D01*
X79073000Y-81471250D01*
X79073000Y-81128780D01*
X79132834Y-81078573D01*
X79249480Y-80854498D01*
X79255123Y-80790000D01*
X79327000Y-80790000D01*
X79327000Y-81471250D01*
X79327000Y-81471250D01*
G37*
X79327000Y-81471250D02*
X79485750Y-81630000D01*
X79991886Y-81630000D01*
X79991808Y-81719428D01*
X80101168Y-81984100D01*
X78192189Y-81984100D01*
X78192276Y-81884721D01*
X78082026Y-81617897D01*
X78091463Y-81618722D01*
X78118690Y-81630000D01*
X78220364Y-81630000D01*
X78315367Y-81638312D01*
X78341729Y-81630000D01*
X78914250Y-81630000D01*
X79073000Y-81471250D01*
X79073000Y-81128780D01*
X79132834Y-81078573D01*
X79249480Y-80854498D01*
X79255123Y-80790000D01*
X79327000Y-80790000D01*
X79327000Y-81471250D01*
G36*
X112785600Y-38964115D02*
X112709960Y-38948798D01*
X110810040Y-38948798D01*
X110540630Y-38999491D01*
X110392415Y-39094865D01*
X110296269Y-39055040D01*
X109505750Y-39055040D01*
X109347000Y-39213790D01*
X109347000Y-40513000D01*
X109367000Y-40513000D01*
X109367000Y-40767000D01*
X109347000Y-40767000D01*
X109347000Y-40787000D01*
X109093000Y-40787000D01*
X109093000Y-40767000D01*
X106807000Y-40767000D01*
X106807000Y-40787000D01*
X106553000Y-40787000D01*
X106553000Y-40767000D01*
X106533000Y-40767000D01*
X106533000Y-40513000D01*
X106553000Y-40513000D01*
X106553000Y-39213790D01*
X106807000Y-39213790D01*
X106807000Y-40513000D01*
X109093000Y-40513000D01*
X109093000Y-39213790D01*
X108934250Y-39055040D01*
X108143731Y-39055040D01*
X107950000Y-39135286D01*
X107756269Y-39055040D01*
X106965750Y-39055040D01*
X106807000Y-39213790D01*
X106553000Y-39213790D01*
X106394250Y-39055040D01*
X105603731Y-39055040D01*
X105507003Y-39095106D01*
X105378345Y-39007197D01*
X105089960Y-38948798D01*
X103190040Y-38948798D01*
X102920630Y-38999491D01*
X102673194Y-39158712D01*
X102507197Y-39401655D01*
X102448798Y-39690040D01*
X102448798Y-41589960D01*
X102499491Y-41859370D01*
X102530497Y-41907555D01*
X102507197Y-41941655D01*
X102448798Y-42230040D01*
X102448798Y-42364100D01*
X92920000Y-42364100D01*
X92607769Y-42426207D01*
X92343072Y-42603071D01*
X87878072Y-47068072D01*
X87701207Y-47332769D01*
X87639100Y-47645000D01*
X87639100Y-47783758D01*
X86995000Y-47783758D01*
X86725590Y-47834451D01*
X86478154Y-47993672D01*
X86312157Y-48236615D01*
X86253758Y-48525000D01*
X86253758Y-49055503D01*
X85516326Y-48318072D01*
X85251629Y-48141207D01*
X84939398Y-48079100D01*
X79951981Y-48079100D01*
X79906328Y-48008154D01*
X79663385Y-47842157D01*
X79375000Y-47783758D01*
X77476992Y-47783758D01*
X77561763Y-47579607D01*
X77562236Y-47037770D01*
X77355321Y-46536997D01*
X76972518Y-46153526D01*
X76472107Y-45945737D01*
X75930270Y-45945264D01*
X75429497Y-46152179D01*
X75046026Y-46534982D01*
X74838237Y-47035393D01*
X74837764Y-47577230D01*
X74923100Y-47783758D01*
X73025000Y-47783758D01*
X72755590Y-47834451D01*
X72508154Y-47993672D01*
X72342157Y-48236615D01*
X72283758Y-48525000D01*
X72283758Y-49265000D01*
X72334451Y-49534410D01*
X72336031Y-49536866D01*
X72283758Y-49795000D01*
X72283758Y-50535000D01*
X72334451Y-50804410D01*
X72336031Y-50806866D01*
X72283758Y-51065000D01*
X72283758Y-51805000D01*
X72334451Y-52074410D01*
X72336031Y-52076866D01*
X72283758Y-52335000D01*
X72283758Y-53075000D01*
X72334451Y-53344410D01*
X72336031Y-53346866D01*
X72283758Y-53605000D01*
X72283758Y-54345000D01*
X72334451Y-54614410D01*
X72336031Y-54616866D01*
X72283758Y-54875000D01*
X72283758Y-55615000D01*
X72334451Y-55884410D01*
X72336031Y-55886866D01*
X72283758Y-56145000D01*
X72283758Y-56885000D01*
X72334451Y-57154410D01*
X72336031Y-57156866D01*
X72283758Y-57415000D01*
X72283758Y-58155000D01*
X72334451Y-58424410D01*
X72336031Y-58426866D01*
X72283758Y-58685000D01*
X72283758Y-59425000D01*
X72334451Y-59694410D01*
X72336031Y-59696866D01*
X72283758Y-59955000D01*
X72283758Y-60695000D01*
X72334451Y-60964410D01*
X72336031Y-60966866D01*
X72283758Y-61225000D01*
X72283758Y-61562385D01*
X69760716Y-64085428D01*
X69760716Y-47021632D01*
X69698609Y-46709401D01*
X69620164Y-46592000D01*
X69521744Y-46444703D01*
X65188908Y-42111868D01*
X64924211Y-41935003D01*
X64611980Y-41872896D01*
X56811204Y-41872896D01*
X56550775Y-41924699D01*
X56498972Y-41935003D01*
X56234275Y-42111868D01*
X55982044Y-42364100D01*
X49951202Y-42364100D01*
X49951202Y-42230040D01*
X49900509Y-41960630D01*
X49869503Y-41912445D01*
X49892803Y-41878345D01*
X49951202Y-41589960D01*
X49951202Y-39690040D01*
X49900509Y-39420630D01*
X49741288Y-39173194D01*
X49498345Y-39007197D01*
X49209960Y-38948798D01*
X47310040Y-38948798D01*
X47040630Y-38999491D01*
X46892415Y-39094865D01*
X46796269Y-39055040D01*
X46005750Y-39055040D01*
X45847000Y-39213790D01*
X45847000Y-40513000D01*
X45867000Y-40513000D01*
X45867000Y-40767000D01*
X45847000Y-40767000D01*
X45847000Y-40787000D01*
X45593000Y-40787000D01*
X45593000Y-40767000D01*
X43307000Y-40767000D01*
X43307000Y-40787000D01*
X43053000Y-40787000D01*
X43053000Y-40767000D01*
X43033000Y-40767000D01*
X43033000Y-40513000D01*
X43053000Y-40513000D01*
X43053000Y-39213790D01*
X43307000Y-39213790D01*
X43307000Y-40513000D01*
X45593000Y-40513000D01*
X45593000Y-39213790D01*
X45434250Y-39055040D01*
X44643731Y-39055040D01*
X44450000Y-39135286D01*
X44256269Y-39055040D01*
X43465750Y-39055040D01*
X43307000Y-39213790D01*
X43053000Y-39213790D01*
X42894250Y-39055040D01*
X42103731Y-39055040D01*
X42007003Y-39095106D01*
X41878345Y-39007197D01*
X41589960Y-38948798D01*
X39690040Y-38948798D01*
X39614400Y-38963031D01*
X39614400Y-36883900D01*
X112785600Y-36883900D01*
X112785600Y-38964115D01*
X112785600Y-38964115D01*
G37*
X112785600Y-38964115D02*
X112709960Y-38948798D01*
X110810040Y-38948798D01*
X110540630Y-38999491D01*
X110392415Y-39094865D01*
X110296269Y-39055040D01*
X109505750Y-39055040D01*
X109347000Y-39213790D01*
X109347000Y-40513000D01*
X109367000Y-40513000D01*
X109367000Y-40767000D01*
X109347000Y-40767000D01*
X109347000Y-40787000D01*
X109093000Y-40787000D01*
X109093000Y-40767000D01*
X106807000Y-40767000D01*
X106807000Y-40787000D01*
X106553000Y-40787000D01*
X106553000Y-40767000D01*
X106533000Y-40767000D01*
X106533000Y-40513000D01*
X106553000Y-40513000D01*
X106553000Y-39213790D01*
X106807000Y-39213790D01*
X106807000Y-40513000D01*
X109093000Y-40513000D01*
X109093000Y-39213790D01*
X108934250Y-39055040D01*
X108143731Y-39055040D01*
X107950000Y-39135286D01*
X107756269Y-39055040D01*
X106965750Y-39055040D01*
X106807000Y-39213790D01*
X106553000Y-39213790D01*
X106394250Y-39055040D01*
X105603731Y-39055040D01*
X105507003Y-39095106D01*
X105378345Y-39007197D01*
X105089960Y-38948798D01*
X103190040Y-38948798D01*
X102920630Y-38999491D01*
X102673194Y-39158712D01*
X102507197Y-39401655D01*
X102448798Y-39690040D01*
X102448798Y-41589960D01*
X102499491Y-41859370D01*
X102530497Y-41907555D01*
X102507197Y-41941655D01*
X102448798Y-42230040D01*
X102448798Y-42364100D01*
X92920000Y-42364100D01*
X92607769Y-42426207D01*
X92343072Y-42603071D01*
X87878072Y-47068072D01*
X87701207Y-47332769D01*
X87639100Y-47645000D01*
X87639100Y-47783758D01*
X86995000Y-47783758D01*
X86725590Y-47834451D01*
X86478154Y-47993672D01*
X86312157Y-48236615D01*
X86253758Y-48525000D01*
X86253758Y-49055503D01*
X85516326Y-48318072D01*
X85251629Y-48141207D01*
X84939398Y-48079100D01*
X79951981Y-48079100D01*
X79906328Y-48008154D01*
X79663385Y-47842157D01*
X79375000Y-47783758D01*
X77476992Y-47783758D01*
X77561763Y-47579607D01*
X77562236Y-47037770D01*
X77355321Y-46536997D01*
X76972518Y-46153526D01*
X76472107Y-45945737D01*
X75930270Y-45945264D01*
X75429497Y-46152179D01*
X75046026Y-46534982D01*
X74838237Y-47035393D01*
X74837764Y-47577230D01*
X74923100Y-47783758D01*
X73025000Y-47783758D01*
X72755590Y-47834451D01*
X72508154Y-47993672D01*
X72342157Y-48236615D01*
X72283758Y-48525000D01*
X72283758Y-49265000D01*
X72334451Y-49534410D01*
X72336031Y-49536866D01*
X72283758Y-49795000D01*
X72283758Y-50535000D01*
X72334451Y-50804410D01*
X72336031Y-50806866D01*
X72283758Y-51065000D01*
X72283758Y-51805000D01*
X72334451Y-52074410D01*
X72336031Y-52076866D01*
X72283758Y-52335000D01*
X72283758Y-53075000D01*
X72334451Y-53344410D01*
X72336031Y-53346866D01*
X72283758Y-53605000D01*
X72283758Y-54345000D01*
X72334451Y-54614410D01*
X72336031Y-54616866D01*
X72283758Y-54875000D01*
X72283758Y-55615000D01*
X72334451Y-55884410D01*
X72336031Y-55886866D01*
X72283758Y-56145000D01*
X72283758Y-56885000D01*
X72334451Y-57154410D01*
X72336031Y-57156866D01*
X72283758Y-57415000D01*
X72283758Y-58155000D01*
X72334451Y-58424410D01*
X72336031Y-58426866D01*
X72283758Y-58685000D01*
X72283758Y-59425000D01*
X72334451Y-59694410D01*
X72336031Y-59696866D01*
X72283758Y-59955000D01*
X72283758Y-60695000D01*
X72334451Y-60964410D01*
X72336031Y-60966866D01*
X72283758Y-61225000D01*
X72283758Y-61562385D01*
X69760716Y-64085428D01*
X69760716Y-47021632D01*
X69698609Y-46709401D01*
X69620164Y-46592000D01*
X69521744Y-46444703D01*
X65188908Y-42111868D01*
X64924211Y-41935003D01*
X64611980Y-41872896D01*
X56811204Y-41872896D01*
X56550775Y-41924699D01*
X56498972Y-41935003D01*
X56234275Y-42111868D01*
X55982044Y-42364100D01*
X49951202Y-42364100D01*
X49951202Y-42230040D01*
X49900509Y-41960630D01*
X49869503Y-41912445D01*
X49892803Y-41878345D01*
X49951202Y-41589960D01*
X49951202Y-39690040D01*
X49900509Y-39420630D01*
X49741288Y-39173194D01*
X49498345Y-39007197D01*
X49209960Y-38948798D01*
X47310040Y-38948798D01*
X47040630Y-38999491D01*
X46892415Y-39094865D01*
X46796269Y-39055040D01*
X46005750Y-39055040D01*
X45847000Y-39213790D01*
X45847000Y-40513000D01*
X45867000Y-40513000D01*
X45867000Y-40767000D01*
X45847000Y-40767000D01*
X45847000Y-40787000D01*
X45593000Y-40787000D01*
X45593000Y-40767000D01*
X43307000Y-40767000D01*
X43307000Y-40787000D01*
X43053000Y-40787000D01*
X43053000Y-40767000D01*
X43033000Y-40767000D01*
X43033000Y-40513000D01*
X43053000Y-40513000D01*
X43053000Y-39213790D01*
X43307000Y-39213790D01*
X43307000Y-40513000D01*
X45593000Y-40513000D01*
X45593000Y-39213790D01*
X45434250Y-39055040D01*
X44643731Y-39055040D01*
X44450000Y-39135286D01*
X44256269Y-39055040D01*
X43465750Y-39055040D01*
X43307000Y-39213790D01*
X43053000Y-39213790D01*
X42894250Y-39055040D01*
X42103731Y-39055040D01*
X42007003Y-39095106D01*
X41878345Y-39007197D01*
X41589960Y-38948798D01*
X39690040Y-38948798D01*
X39614400Y-38963031D01*
X39614400Y-36883900D01*
X112785600Y-36883900D01*
X112785600Y-38964115D01*
M02*
