G04 #@! TF.FileFunction,Soldermask,Top*
%FSLAX46Y46*%
G04 Gerber Fmt 4.6, Leading zero omitted, Abs format (unit mm)*
G04 Created by KiCad (PCBNEW 4.0.1-stable) date 2017-04-12 2:11:18 PM*
%MOMM*%
G01*
G04 APERTURE LIST*
%ADD10C,0.150000*%
%ADD11R,2.407920X2.407920*%
%ADD12R,3.428000X1.248000*%
%ADD13C,1.778000*%
%ADD14R,2.418000X2.858000*%
%ADD15R,7.618000X2.018000*%
%ADD16C,2.238000*%
G04 APERTURE END LIST*
D10*
D11*
X104140000Y-43180000D03*
X106680000Y-43180000D03*
X109220000Y-43180000D03*
X111760000Y-43180000D03*
X104140000Y-45720000D03*
X106680000Y-45720000D03*
X109220000Y-45720000D03*
X111760000Y-45720000D03*
X104140000Y-48260000D03*
X106680000Y-48260000D03*
X109220000Y-48260000D03*
X111760000Y-48260000D03*
X104140000Y-50800000D03*
X106680000Y-50800000D03*
X109220000Y-50800000D03*
X111760000Y-50800000D03*
X104140000Y-53340000D03*
X106680000Y-53340000D03*
X109220000Y-53340000D03*
X111760000Y-53340000D03*
X104140000Y-55880000D03*
X106680000Y-55880000D03*
X109220000Y-55880000D03*
X111760000Y-55880000D03*
X104140000Y-58420000D03*
X106680000Y-58420000D03*
X109220000Y-58420000D03*
X111760000Y-58420000D03*
X104140000Y-60960000D03*
X106680000Y-60960000D03*
X109220000Y-60960000D03*
X111760000Y-60960000D03*
X104140000Y-63500000D03*
X106680000Y-63500000D03*
X109220000Y-63500000D03*
X111760000Y-63500000D03*
X104140000Y-66040000D03*
X106680000Y-66040000D03*
X109220000Y-66040000D03*
X111760000Y-66040000D03*
X104140000Y-68580000D03*
X106680000Y-68580000D03*
X109220000Y-68580000D03*
X111760000Y-68580000D03*
X104140000Y-71120000D03*
X106680000Y-71120000D03*
X109220000Y-71120000D03*
X111760000Y-71120000D03*
X104140000Y-73660000D03*
X106680000Y-73660000D03*
X109220000Y-73660000D03*
X111760000Y-73660000D03*
X104140000Y-76200000D03*
X106680000Y-76200000D03*
X109220000Y-76200000D03*
X111760000Y-76200000D03*
X104140000Y-78740000D03*
X106680000Y-78740000D03*
X109220000Y-78740000D03*
X111760000Y-78740000D03*
X40640000Y-78740000D03*
X43180000Y-78740000D03*
X45720000Y-78740000D03*
X48260000Y-78740000D03*
X40640000Y-76200000D03*
X43180000Y-76200000D03*
X45720000Y-76200000D03*
X48260000Y-76200000D03*
X40640000Y-73660000D03*
X43180000Y-73660000D03*
X45720000Y-73660000D03*
X48260000Y-73660000D03*
X40640000Y-71120000D03*
X43180000Y-71120000D03*
X45720000Y-71120000D03*
X48260000Y-71120000D03*
X40640000Y-68580000D03*
X43180000Y-68580000D03*
X45720000Y-68580000D03*
X48260000Y-68580000D03*
X40640000Y-66040000D03*
X43180000Y-66040000D03*
X45720000Y-66040000D03*
X48260000Y-66040000D03*
X40640000Y-63500000D03*
X43180000Y-63500000D03*
X45720000Y-63500000D03*
X48260000Y-63500000D03*
X40640000Y-60960000D03*
X43180000Y-60960000D03*
X45720000Y-60960000D03*
X48260000Y-60960000D03*
X40640000Y-58420000D03*
X43180000Y-58420000D03*
X45720000Y-58420000D03*
X48260000Y-58420000D03*
X40640000Y-55880000D03*
X43180000Y-55880000D03*
X45720000Y-55880000D03*
X48260000Y-55880000D03*
X40640000Y-53340000D03*
X43180000Y-53340000D03*
X45720000Y-53340000D03*
X48260000Y-53340000D03*
X40640000Y-50800000D03*
X43180000Y-50800000D03*
X45720000Y-50800000D03*
X48260000Y-50800000D03*
X40640000Y-48260000D03*
X43180000Y-48260000D03*
X45720000Y-48260000D03*
X48260000Y-48260000D03*
X40640000Y-45720000D03*
X43180000Y-45720000D03*
X45720000Y-45720000D03*
X48260000Y-45720000D03*
X40640000Y-43180000D03*
X43180000Y-43180000D03*
X45720000Y-43180000D03*
X48260000Y-43180000D03*
X48260000Y-40640000D03*
X48260000Y-81280000D03*
X104140000Y-81280000D03*
X104140000Y-40640000D03*
X45720000Y-40640000D03*
X43180000Y-40640000D03*
X45720000Y-81280000D03*
X43180000Y-81280000D03*
X106680000Y-81280000D03*
X109220000Y-81280000D03*
X106680000Y-40640000D03*
X109220000Y-40640000D03*
X40640000Y-40640000D03*
X40640000Y-81280000D03*
X111760000Y-81280000D03*
X111760000Y-40640000D03*
D12*
X91885000Y-61595000D03*
X91885000Y-60325000D03*
X91885000Y-48895000D03*
D13*
X90170000Y-47307500D03*
X90170000Y-74612500D03*
D12*
X88455000Y-50165000D03*
X88455000Y-48895000D03*
X91885000Y-50165000D03*
X91885000Y-53975000D03*
X91885000Y-55245000D03*
X91885000Y-52705000D03*
X91885000Y-51435000D03*
X88455000Y-51435000D03*
X88455000Y-52705000D03*
X88455000Y-55245000D03*
X88455000Y-53975000D03*
X91885000Y-67945000D03*
X91885000Y-69215000D03*
X91885000Y-71755000D03*
X91885000Y-70485000D03*
X88455000Y-70485000D03*
X88455000Y-71755000D03*
X88455000Y-69215000D03*
X88455000Y-67945000D03*
X88455000Y-73025000D03*
X91885000Y-73025000D03*
X91885000Y-66675000D03*
X88455000Y-66675000D03*
X88455000Y-59055000D03*
X88455000Y-60325000D03*
X88455000Y-57785000D03*
X88455000Y-56515000D03*
X88455000Y-61595000D03*
X88455000Y-62865000D03*
X88455000Y-65405000D03*
X88455000Y-64135000D03*
X91885000Y-64135000D03*
X91885000Y-65405000D03*
X91885000Y-62865000D03*
X91885000Y-56515000D03*
X91885000Y-57785000D03*
X91885000Y-59055000D03*
X77915000Y-61595000D03*
X77915000Y-60325000D03*
X77915000Y-48895000D03*
D13*
X76200000Y-47307500D03*
X76200000Y-74612500D03*
D12*
X74485000Y-50165000D03*
X74485000Y-48895000D03*
X77915000Y-50165000D03*
X77915000Y-53975000D03*
X77915000Y-55245000D03*
X77915000Y-52705000D03*
X77915000Y-51435000D03*
X74485000Y-51435000D03*
X74485000Y-52705000D03*
X74485000Y-55245000D03*
X74485000Y-53975000D03*
X77915000Y-67945000D03*
X77915000Y-69215000D03*
X77915000Y-71755000D03*
X77915000Y-70485000D03*
X74485000Y-70485000D03*
X74485000Y-71755000D03*
X74485000Y-69215000D03*
X74485000Y-67945000D03*
X74485000Y-73025000D03*
X77915000Y-73025000D03*
X77915000Y-66675000D03*
X74485000Y-66675000D03*
X74485000Y-59055000D03*
X74485000Y-60325000D03*
X74485000Y-57785000D03*
X74485000Y-56515000D03*
X74485000Y-61595000D03*
X74485000Y-62865000D03*
X74485000Y-65405000D03*
X74485000Y-64135000D03*
X77915000Y-64135000D03*
X77915000Y-65405000D03*
X77915000Y-62865000D03*
X77915000Y-56515000D03*
X77915000Y-57785000D03*
X77915000Y-59055000D03*
X63945000Y-61595000D03*
X63945000Y-60325000D03*
X63945000Y-48895000D03*
D13*
X62230000Y-47307500D03*
X62230000Y-74612500D03*
D12*
X60515000Y-50165000D03*
X60515000Y-48895000D03*
X63945000Y-50165000D03*
X63945000Y-53975000D03*
X63945000Y-55245000D03*
X63945000Y-52705000D03*
X63945000Y-51435000D03*
X60515000Y-51435000D03*
X60515000Y-52705000D03*
X60515000Y-55245000D03*
X60515000Y-53975000D03*
X63945000Y-67945000D03*
X63945000Y-69215000D03*
X63945000Y-71755000D03*
X63945000Y-70485000D03*
X60515000Y-70485000D03*
X60515000Y-71755000D03*
X60515000Y-69215000D03*
X60515000Y-67945000D03*
X60515000Y-73025000D03*
X63945000Y-73025000D03*
X63945000Y-66675000D03*
X60515000Y-66675000D03*
X60515000Y-59055000D03*
X60515000Y-60325000D03*
X60515000Y-57785000D03*
X60515000Y-56515000D03*
X60515000Y-61595000D03*
X60515000Y-62865000D03*
X60515000Y-65405000D03*
X60515000Y-64135000D03*
X63945000Y-64135000D03*
X63945000Y-65405000D03*
X63945000Y-62865000D03*
X63945000Y-56515000D03*
X63945000Y-57785000D03*
X63945000Y-59055000D03*
D10*
G36*
X76529509Y-85717421D02*
X76013742Y-84300365D01*
X78370491Y-83442579D01*
X78886258Y-84859635D01*
X76529509Y-85717421D01*
X76529509Y-85717421D01*
G37*
G36*
X74313742Y-84859635D02*
X74829509Y-83442579D01*
X77186258Y-84300365D01*
X76670491Y-85717421D01*
X74313742Y-84859635D01*
X74313742Y-84859635D01*
G37*
G36*
X76013742Y-80099635D02*
X76529509Y-78682579D01*
X78886258Y-79540365D01*
X78370491Y-80957421D01*
X76013742Y-80099635D01*
X76013742Y-80099635D01*
G37*
G36*
X74829509Y-80957421D02*
X74313742Y-79540365D01*
X76670491Y-78682579D01*
X77186258Y-80099635D01*
X74829509Y-80957421D01*
X74829509Y-80957421D01*
G37*
G36*
X78016425Y-84850562D02*
X77244252Y-84202633D01*
X78213575Y-83047438D01*
X78985748Y-83695367D01*
X78016425Y-84850562D01*
X78016425Y-84850562D01*
G37*
G36*
X74214252Y-83695367D02*
X74986425Y-83047438D01*
X75955748Y-84202633D01*
X75183575Y-84850562D01*
X74214252Y-83695367D01*
X74214252Y-83695367D01*
G37*
G36*
X77244252Y-80197367D02*
X78016425Y-79549438D01*
X78985748Y-80704633D01*
X78213575Y-81352562D01*
X77244252Y-80197367D01*
X77244252Y-80197367D01*
G37*
G36*
X74986425Y-81352562D02*
X74214252Y-80704633D01*
X75183575Y-79549438D01*
X75955748Y-80197367D01*
X74986425Y-81352562D01*
X74986425Y-81352562D01*
G37*
D14*
X79200000Y-84580000D03*
D15*
X76600000Y-85000000D03*
D14*
X74000000Y-84580000D03*
X79200000Y-79820000D03*
D16*
X76600000Y-82200000D03*
D15*
X76600000Y-79400000D03*
D14*
X74000000Y-79820000D03*
M02*
