M48
;DRILL file {KiCad 4.0.4-stable} date 07/30/19 10:08:19
;FORMAT={-:-/ absolute / inch / decimal}
FMAT,2
INCH,TZ
T1C0.015
%
G90
G05
M72
T1
X1.5984Y-3.1378
X1.6024Y-1.7323
X1.6024Y-1.9331
X1.6024Y-2.0079
X1.6024Y-2.1024
X1.6024Y-2.2362
X1.6024Y-2.3346
X1.6024Y-2.5354
X1.6024Y-2.6378
X1.6024Y-2.7362
X1.6024Y-2.9331
X1.6024Y-3.0315
X1.6063Y-1.8386
X1.6063Y-2.4331
X1.6063Y-2.8346
X1.6969Y-1.811
X1.7Y-2.
X1.7008Y-1.9134
X1.7008Y-2.3307
X1.7008Y-2.6299
X1.7008Y-2.7362
X1.7008Y-2.8307
X1.7008Y-2.9252
X1.7008Y-3.0354
X1.7008Y-3.1299
X1.7047Y-1.7283
X1.7047Y-2.1378
X1.7047Y-2.2323
X1.7047Y-2.4331
X1.7047Y-2.5315
X1.7992Y-1.5394
X1.7992Y-1.7835
X1.7992Y-1.9016
X1.7992Y-2.1063
X1.7992Y-2.2087
X1.7992Y-2.6181
X1.7992Y-2.9331
X1.7992Y-3.0079
X1.8Y-2.
X1.8031Y-1.6969
X1.8031Y-2.3268
X1.8031Y-2.4213
X1.8031Y-2.5276
X1.8031Y-2.7283
X1.8031Y-2.8346
X1.8031Y-3.126
X1.9016Y-2.3031
X1.9016Y-2.4016
X1.9016Y-2.5
X1.9016Y-2.6024
X1.9016Y-2.7126
X1.9016Y-2.9213
X1.9016Y-3.0118
X1.9016Y-3.1181
X1.9055Y-2.8071
X1.9094Y-2.2244
X1.9646Y-2.0157
X1.9646Y-2.6811
X1.9961Y-2.6575
X2.0079Y-2.6181
X2.0354Y-2.563
X2.0472Y-2.6142
X2.0748Y-2.5197
X2.0748Y-2.5591
X2.1142Y-2.4803
X2.1142Y-2.5197
X2.1535Y-2.4252
X2.1535Y-2.4646
X2.1772Y-2.0551
X2.1929Y-2.378
X2.1929Y-2.4173
X2.1969Y-2.2953
X2.2244Y-2.3228
X2.2283Y-1.9882
X2.2323Y-2.3701
X2.248Y-2.1496
X2.252Y-1.752
X2.2598Y-2.2047
X2.2638Y-1.8976
X2.2638Y-2.3346
X2.2756Y-1.9528
X2.2795Y-2.0236
X2.2874Y-2.1102
X2.2874Y-2.2323
X2.2913Y-1.7362
X2.2992Y-2.374
X2.2992Y-2.4252
X2.2992Y-2.4724
X2.2992Y-2.5236
X2.2992Y-2.8228
X2.2992Y-2.878
X2.3031Y-2.5748
X2.3031Y-2.626
X2.3031Y-2.6772
X2.3031Y-2.7244
X2.3031Y-2.7756
X2.5118Y-1.8858
X2.5945Y-2.7244
X2.5945Y-2.8268
X2.5984Y-1.9764
X2.5984Y-2.0236
X2.5984Y-2.0748
X2.5984Y-2.126
X2.5984Y-2.1732
X2.5984Y-2.2244
X2.5984Y-2.2756
X2.5984Y-2.315
X2.5984Y-2.4016
X2.6024Y-2.4803
X2.6024Y-2.5354
X2.6024Y-2.5748
X2.6024Y-2.6457
X2.6339Y-2.4528
X2.7283Y-3.2795
X2.7559Y-3.2244
X2.811Y-3.1102
X2.8346Y-3.2087
X2.8484Y-1.6732
X2.8494Y-1.7244
X2.8504Y-1.9252
X2.8504Y-1.9764
X2.8504Y-2.0236
X2.8504Y-2.0748
X2.8504Y-2.122
X2.8504Y-2.8238
X2.8514Y-1.874
X2.8524Y-1.7746
X2.8524Y-1.8228
X2.8583Y-3.0787
X2.8642Y-2.9154
X2.8858Y-2.9685
X2.9252Y-3.2205
X2.9803Y-3.0709
X3.0433Y-3.0551
X3.0728Y-2.9528
X3.1132Y-2.9518
X3.1476Y-2.623
X3.1476Y-2.6752
X3.1476Y-2.7254
X3.1476Y-2.7736
X3.1535Y-2.5728
X3.1545Y-2.5226
X3.1575Y-2.4734
X3.1732Y-3.0709
X3.185Y-3.1142
X3.1929Y-3.2087
X3.1969Y-3.1654
X3.2283Y-3.2283
X3.2638Y-3.2402
X3.4213Y-2.126
X3.4213Y-2.1732
X3.4213Y-2.2244
X3.4252Y-1.9764
X3.4252Y-2.0236
X3.4252Y-2.0748
X3.4252Y-2.2756
X3.4252Y-2.3228
X3.4252Y-2.374
X3.4252Y-2.4252
X3.4252Y-2.4724
X3.4252Y-2.5236
X3.4252Y-2.5748
X3.4252Y-2.622
X3.4252Y-2.6732
X3.4252Y-2.7244
X3.4252Y-2.7756
X3.4252Y-2.8268
X3.4252Y-2.874
X3.685Y-1.9252
X3.8425Y-2.6339
X3.8425Y-2.689
X3.8465Y-2.0787
X3.8504Y-2.5236
X3.8504Y-2.5787
X3.8583Y-2.4134
X3.8583Y-2.4685
X3.8701Y-2.3583
X3.878Y-2.248
X3.878Y-2.3031
X3.8819Y-2.1929
X3.8937Y-2.1102
X3.9094Y-1.9449
X3.9173Y-2.8976
X3.9331Y-2.8425
X3.9409Y-1.9921
X3.9449Y-1.8898
X3.9488Y-2.6496
X3.9488Y-2.689
X3.9606Y-3.1378
X3.9646Y-2.1378
X3.9646Y-2.7874
X3.9646Y-2.9291
X3.9646Y-2.9685
X3.9646Y-3.0079
X3.9685Y-1.7283
X3.9685Y-2.8583
X3.9764Y-1.8346
X3.9921Y-2.7205
X3.9921Y-2.7598
X4.0118Y-1.7795
X4.0197Y-3.0709
X4.0236Y-3.0276
X4.0236Y-3.1102
X4.0394Y-1.752
X4.0945Y-2.1614
X4.0984Y-1.8622
X4.0984Y-1.9646
X4.0984Y-2.2638
X4.0984Y-2.3661
X4.0984Y-2.4606
X4.0984Y-2.5669
X4.1024Y-2.063
X4.1762Y-3.2638
X4.1969Y-1.8661
X4.1969Y-2.0709
X4.1969Y-2.1693
X4.1969Y-2.2717
X4.1969Y-2.4724
X4.1969Y-2.6654
X4.1969Y-2.7677
X4.1969Y-2.8661
X4.1969Y-2.9685
X4.1969Y-3.0709
X4.2008Y-1.6654
X4.2008Y-1.7677
X4.2008Y-1.9646
X4.2008Y-2.3661
X4.2008Y-2.5709
X4.2992Y-1.6929
X4.2992Y-1.7717
X4.2992Y-1.878
X4.2992Y-1.9685
X4.2992Y-2.0669
X4.2992Y-2.1654
X4.2992Y-2.2677
X4.2992Y-2.3701
X4.2992Y-2.4764
X4.2992Y-2.5709
X4.2992Y-2.6693
X4.2992Y-2.7717
X4.2992Y-2.8701
X4.2992Y-2.9685
X4.2992Y-3.0709
X4.3278Y-3.2874
X4.3878Y-1.4941
X4.3976Y-1.7008
X4.3976Y-1.7992
X4.3976Y-1.9016
X4.3976Y-2.0945
X4.3976Y-2.1969
X4.3976Y-2.3976
X4.3976Y-2.5
X4.3976Y-2.5984
X4.3976Y-2.8976
X4.3976Y-2.9961
X4.3976Y-3.1024
X4.4016Y-1.9961
X4.4016Y-2.2992
X4.4016Y-2.6969
X4.4016Y-2.7953
T0
M30
